<svg width="153" height="43" viewBox="0 0 153 43" fill="none" xmlns="http://www.w3.org/2000/svg">
<path d="M22.6585 42.041C16.9002 42.041 11.7983 40.2028 7.35293 36.5265C2.90756 32.8501 0.684869 27.767 0.684869 21.2772C0.684869 14.9561 2.84191 9.89176 7.15598 6.08412C11.4888 2.25772 16.6563 0.344519 22.6585 0.344519C24.8156 0.344519 27.1039 0.588358 29.5235 1.07604C31.9619 1.54496 34.2784 2.4828 36.4729 3.88956L35.7977 9.79797C35.7227 10.1356 35.5351 10.3044 35.235 10.3044H35.1506C34.9255 10.2857 34.6817 10.0231 34.4191 9.51662C33.1999 6.90942 31.6806 5.17441 29.8612 4.31159C28.0605 3.44878 25.6596 3.01737 22.6585 3.01737C18.4757 3.01737 14.7525 4.47103 11.4888 7.37834C8.22512 10.2857 6.59328 14.9186 6.59328 21.2772C6.59328 25.3662 8.11258 29.3145 11.1512 33.1221C14.2086 36.9298 18.0443 38.9461 22.6585 39.1712C23.1087 39.19 23.5401 39.1993 23.9527 39.1993C26.091 39.1993 27.8917 38.918 29.3547 38.3553C31.0991 37.68 32.5621 36.3108 33.7438 34.2475V28.9581C33.7063 28.3766 33.4062 27.9265 32.8435 27.6076C32.3371 27.345 31.5962 27.0168 30.6208 26.6229C29.6455 26.2102 29.1578 25.8069 29.1578 25.4131C29.1578 25.0192 29.3547 24.8222 29.7486 24.8222H41.0309C41.4248 24.8222 41.6217 25.0192 41.6217 25.4131C41.6217 25.9007 41.1528 26.3134 40.2149 26.651C39.2771 26.9886 38.8082 27.7577 38.8082 28.9581V39.9027C35.9196 40.034 33.1342 40.4373 30.452 41.1125C29.1015 41.4689 27.7698 41.7128 26.4568 41.8441C25.1438 41.9754 23.8777 42.041 22.6585 42.041ZM51.3002 1.61061C53.3447 1.61061 54.367 2.64223 54.367 4.70549C54.367 6.7875 53.3447 7.8285 51.3002 7.8285C49.2557 7.8285 48.2335 6.7875 48.2335 4.70549C48.2335 2.64223 49.2557 1.61061 51.3002 1.61061ZM53.8324 36.8922C53.8324 38.1114 54.3013 38.8899 55.2392 39.2275C56.177 39.5463 56.6459 39.9402 56.6459 40.4092C56.6459 40.8031 56.4584 41 56.0832 41H46.5454C46.1515 41 45.9545 40.8031 45.9545 40.4092C45.9545 39.9402 46.4235 39.5463 47.3613 39.2275C48.2991 38.8899 48.7681 38.1114 48.7681 36.8922V18.8857C48.7681 17.704 48.2991 16.9443 47.3613 16.6067C46.4235 16.2691 45.9545 15.8564 45.9545 15.3688C45.9545 14.9749 46.1515 14.7779 46.5454 14.7779C47.7833 14.7216 49.0025 14.5341 50.203 14.2152C51.4222 13.8776 52.632 13.5025 53.8324 13.0898V36.8922ZM69.7007 17.0006C70.7323 16.6067 71.642 16.2597 72.4298 15.9596C73.2176 15.6595 73.9679 15.3875 74.6807 15.1437C76.4063 14.5435 78.1976 14.1496 80.0545 13.962C80.2796 13.9432 80.514 13.9339 80.7579 13.9339C82.3335 13.9339 83.834 14.4684 85.2595 15.5376C87.5291 17.282 88.6639 21.024 88.6639 26.7635V36.8922C88.6639 38.1114 89.1328 38.8899 90.0707 39.2275C91.0085 39.5463 91.4774 39.9402 91.4774 40.4092C91.4774 40.8031 91.2899 41 90.9147 41H84.0778C83.759 41 83.5995 40.8781 83.5995 40.6342V26.7635C83.5995 22.6558 82.7461 19.7672 81.0392 18.0979C79.9513 17.0287 78.6196 16.4942 77.044 16.4942C76.1437 16.4942 75.159 16.6724 74.0898 17.0287C73.6772 17.1788 73.152 17.3757 72.5142 17.6196C71.8953 17.8447 71.3607 18.0416 70.9105 18.2104C70.4604 18.3792 70.0571 18.5293 69.7007 18.6606V36.8922C69.7007 38.1114 70.1696 38.8899 71.1075 39.2275C72.0453 39.5463 72.5142 39.9402 72.5142 40.4092C72.5142 40.8031 72.3267 41 71.9515 41H62.4137C62.0198 41 61.8228 40.8031 61.8228 40.4092C61.8228 39.9402 62.2918 39.5463 63.2296 39.2275C64.1674 38.8899 64.6364 38.1114 64.6364 36.8922V18.8857C64.6364 17.704 64.1674 16.9443 63.2296 16.6067C62.2918 16.2691 61.8228 15.8564 61.8228 15.3688C61.8228 14.9749 62.0198 14.7779 62.4137 14.7779C63.6516 14.7216 64.8708 14.5341 66.0713 14.2152C67.2905 13.8776 68.5003 13.5025 69.7007 13.0898V17.0006ZM119.275 16.241L101.325 38.7773H113.535C114.492 38.7398 115.299 38.4116 115.955 37.7926C116.612 37.1736 117.343 36.3014 118.15 35.176C118.619 34.5383 118.919 34.2194 119.05 34.2194C119.388 34.2194 119.556 34.3882 119.556 34.7258V39.1712C119.556 40.0903 119.435 40.6249 119.191 40.7749C118.947 40.925 118.159 41 116.827 41L97.5546 41.0281C96.2041 41.0094 95.2944 40.925 94.8255 40.7749C94.6004 40.7186 94.4879 40.5967 94.4879 40.4092C94.4879 40.2028 94.6379 39.9215 94.9381 39.5651L112.72 16.7755H102.816C101.841 16.7755 101.053 17.085 100.453 17.704C99.8524 18.323 99.1583 19.1858 98.3706 20.2924C97.9016 20.9114 97.6015 21.2209 97.4702 21.2209C97.1139 21.2209 96.9357 21.0615 96.9357 20.7426V16.2691C96.9357 15.425 97.0857 14.9092 97.3858 14.7216C97.6859 14.5153 98.455 14.4122 99.6929 14.4122H117.193C118.862 14.4122 119.697 14.7123 119.697 15.3125C119.697 15.5751 119.556 15.8846 119.275 16.241ZM144.175 38.5522L136.438 41.3939C135.837 41.6002 135.34 41.7034 134.946 41.7034H133.793C131.129 41.5721 128.832 40.4842 126.9 38.4397C124.968 36.3952 123.871 33.8818 123.608 30.8994C123.533 30.1116 123.495 29.352 123.495 28.6205C123.495 27.6451 123.561 26.6979 123.692 25.7788C123.917 24.1845 124.536 22.5901 125.549 20.9958C126.037 20.1705 126.872 19.3077 128.053 18.4074C128.466 18.126 128.925 17.8728 129.432 17.6477C130.932 17.085 132.433 16.5223 133.934 15.9596C135.453 15.3969 136.972 14.8342 138.491 14.2715C138.81 14.1589 139.11 14.1027 139.392 14.1027H139.532C140.733 14.1589 142.187 14.4591 143.893 15.003C144.043 15.0593 144.137 15.0968 144.175 15.1155C144.587 15.2844 145.094 15.4719 145.694 15.6782C145.938 15.7533 146.163 15.7908 146.369 15.7908C146.669 15.7908 146.932 15.7064 147.157 15.5376C147.551 15.1999 147.832 14.9186 148.001 14.6935C148.095 14.5622 148.217 14.4966 148.367 14.4966C148.461 14.4966 148.555 14.5153 148.648 14.5528C149.061 14.7029 149.267 14.8905 149.267 15.1155V36.8922C149.267 38.1114 149.736 38.8899 150.674 39.2275C151.612 39.5463 152.081 39.9402 152.081 40.4092C152.081 40.8031 151.884 41 151.49 41H144.653C144.334 41 144.175 40.8781 144.175 40.6342V38.5522ZM144.175 19.364C143.406 18.6512 142.393 17.9947 141.136 17.3945C139.879 16.7755 138.763 16.4473 137.788 16.4098H137.676C137.3 16.4098 136.925 16.4848 136.55 16.6348C135.875 16.8787 135.2 17.1319 134.524 17.3945C133.868 17.6383 133.202 17.8822 132.527 18.126C132.058 18.3136 131.683 18.5574 131.401 18.8575C130.238 20.0955 129.46 21.596 129.066 23.3592C128.747 24.6909 128.588 26.0133 128.588 27.3263C128.588 27.7389 128.607 28.1609 128.644 28.5923C128.85 31.2933 129.582 33.4879 130.839 35.176C132.095 36.9204 133.671 38.0552 135.565 38.5804C136.278 38.7867 137 38.8899 137.732 38.8899C137.957 38.8899 138.191 38.8805 138.435 38.8617C138.848 38.8242 139.336 38.7023 139.898 38.496C140.33 38.3459 141.005 38.1021 141.924 37.7644C142.843 37.4081 143.593 37.1173 144.175 36.8922V19.364Z" fill="white"/>
</svg>
