<?xml version="1.0" encoding="UTF-8"?> <svg xmlns="http://www.w3.org/2000/svg" width="109" height="31.037" viewBox="0 0 109 31.037"><g id="Group_274" data-name="Group 274" transform="translate(-141 -4021.472)"><ellipse id="Ellipse_351" data-name="Ellipse 351" cx="0.748" cy="0.748" rx="0.748" ry="0.748" transform="translate(141 4021.596)" fill="#fff"></ellipse><ellipse id="Ellipse_352" data-name="Ellipse 352" cx="0.748" cy="0.748" rx="0.748" ry="0.748" transform="translate(143.092 4021.596)" fill="#fff"></ellipse><ellipse id="Ellipse_353" data-name="Ellipse 353" cx="0.748" cy="0.748" rx="0.748" ry="0.748" transform="translate(145.193 4021.606) rotate(-0.774)" fill="#fff"></ellipse><ellipse id="Ellipse_354" data-name="Ellipse 354" cx="0.748" cy="0.748" rx="0.748" ry="0.748" transform="translate(147.285 4021.606) rotate(-0.774)" fill="#fff"></ellipse><ellipse id="Ellipse_355" data-name="Ellipse 355" cx="0.748" cy="0.748" rx="0.748" ry="0.748" transform="translate(164.068 4021.606) rotate(-0.774)" fill="#fff"></ellipse><ellipse id="Ellipse_356" data-name="Ellipse 356" cx="0.748" cy="0.748" rx="0.748" ry="0.748" transform="translate(166.16 4021.606) rotate(-0.774)" fill="#fff"></ellipse><ellipse id="Ellipse_357" data-name="Ellipse 357" cx="0.748" cy="0.748" rx="0.748" ry="0.748" transform="translate(168.271 4021.606) rotate(-0.774)" fill="#fff"></ellipse><ellipse id="Ellipse_358" data-name="Ellipse 358" cx="0.748" cy="0.748" rx="0.748" ry="0.748" transform="matrix(1, -0.015, 0.015, 1, 170.362, 4021.606)" fill="#fff"></ellipse><ellipse id="Ellipse_359" data-name="Ellipse 359" cx="0.748" cy="0.748" rx="0.748" ry="0.748" transform="translate(141 4023.695)" fill="#fff"></ellipse><ellipse id="Ellipse_360" data-name="Ellipse 360" cx="0.748" cy="0.748" rx="0.748" ry="0.748" transform="translate(143.092 4023.695)" fill="#fff"></ellipse><ellipse id="Ellipse_361" data-name="Ellipse 361" cx="0.748" cy="0.748" rx="0.748" ry="0.748" transform="translate(145.203 4023.695)" fill="#fff"></ellipse><ellipse id="Ellipse_362" data-name="Ellipse 362" cx="0.748" cy="0.748" rx="0.748" ry="0.748" transform="translate(147.295 4023.695)" fill="#fff"></ellipse><ellipse id="Ellipse_363" data-name="Ellipse 363" cx="0.748" cy="0.748" rx="0.748" ry="0.748" transform="translate(149.389 4023.695)" fill="#fff"></ellipse><ellipse id="Ellipse_364" data-name="Ellipse 364" cx="0.748" cy="0.748" rx="0.748" ry="0.748" transform="translate(161.987 4023.695)" fill="#fff"></ellipse><ellipse id="Ellipse_365" data-name="Ellipse 365" cx="0.748" cy="0.748" rx="0.748" ry="0.748" transform="translate(164.08 4023.695)" fill="#fff"></ellipse><ellipse id="Ellipse_366" data-name="Ellipse 366" cx="0.748" cy="0.748" rx="0.748" ry="0.748" transform="translate(166.19 4023.695)" fill="#fff"></ellipse><ellipse id="Ellipse_367" data-name="Ellipse 367" cx="0.748" cy="0.748" rx="0.748" ry="0.748" transform="translate(168.283 4023.695)" fill="#fff"></ellipse><ellipse id="Ellipse_368" data-name="Ellipse 368" cx="0.748" cy="0.748" rx="0.748" ry="0.748" transform="translate(170.376 4023.695)" fill="#fff"></ellipse><ellipse id="Ellipse_369" data-name="Ellipse 369" cx="0.748" cy="0.748" rx="0.748" ry="0.748" transform="translate(141 4025.791)" fill="#fff"></ellipse><ellipse id="Ellipse_370" data-name="Ellipse 370" cx="0.748" cy="0.748" rx="0.748" ry="0.748" transform="translate(143.092 4025.791)" fill="#fff"></ellipse><ellipse id="Ellipse_371" data-name="Ellipse 371" cx="0.748" cy="0.748" rx="0.748" ry="0.748" transform="translate(145.203 4025.791)" fill="#fff"></ellipse><ellipse id="Ellipse_372" data-name="Ellipse 372" cx="0.748" cy="0.748" rx="0.748" ry="0.748" transform="translate(147.295 4025.791)" fill="#fff"></ellipse><ellipse id="Ellipse_373" data-name="Ellipse 373" cx="0.748" cy="0.748" rx="0.748" ry="0.748" transform="translate(164.078 4025.791)" fill="#fff"></ellipse><ellipse id="Ellipse_374" data-name="Ellipse 374" cx="0.748" cy="0.748" rx="0.748" ry="0.748" transform="translate(166.17 4025.791)" fill="#fff"></ellipse><ellipse id="Ellipse_375" data-name="Ellipse 375" cx="0.748" cy="0.748" rx="0.748" ry="0.748" transform="translate(168.281 4025.791)" fill="#fff"></ellipse><ellipse id="Ellipse_376" data-name="Ellipse 376" cx="0.748" cy="0.748" rx="0.748" ry="0.748" transform="translate(170.373 4025.791)" fill="#fff"></ellipse><ellipse id="Ellipse_377" data-name="Ellipse 377" cx="0.748" cy="0.748" rx="0.748" ry="0.748" transform="translate(141 4027.891)" fill="#fff"></ellipse><ellipse id="Ellipse_378" data-name="Ellipse 378" cx="0.748" cy="0.748" rx="0.748" ry="0.748" transform="translate(143.092 4027.891)" fill="#fff"></ellipse><ellipse id="Ellipse_379" data-name="Ellipse 379" cx="0.748" cy="0.748" rx="0.748" ry="0.748" transform="translate(145.203 4027.891)" fill="#fff"></ellipse><ellipse id="Ellipse_380" data-name="Ellipse 380" cx="0.748" cy="0.748" rx="0.748" ry="0.748" transform="translate(147.295 4027.891)" fill="#fff"></ellipse><ellipse id="Ellipse_381" data-name="Ellipse 381" cx="0.748" cy="0.748" rx="0.748" ry="0.748" transform="translate(149.389 4027.891)" fill="#fff"></ellipse><ellipse id="Ellipse_382" data-name="Ellipse 382" cx="0.748" cy="0.748" rx="0.748" ry="0.748" transform="translate(151.482 4027.891)" fill="#fff"></ellipse><ellipse id="Ellipse_383" data-name="Ellipse 383" cx="0.748" cy="0.748" rx="0.748" ry="0.748" transform="translate(153.576 4027.891)" fill="#fff"></ellipse><ellipse id="Ellipse_384" data-name="Ellipse 384" cx="0.748" cy="0.748" rx="0.748" ry="0.748" transform="translate(157.8 4027.891)" fill="#fff"></ellipse><ellipse id="Ellipse_385" data-name="Ellipse 385" cx="0.748" cy="0.748" rx="0.748" ry="0.748" transform="translate(159.894 4027.891)" fill="#fff"></ellipse><ellipse id="Ellipse_386" data-name="Ellipse 386" cx="0.748" cy="0.748" rx="0.748" ry="0.748" transform="translate(161.987 4027.891)" fill="#fff"></ellipse><ellipse id="Ellipse_387" data-name="Ellipse 387" cx="0.748" cy="0.748" rx="0.748" ry="0.748" transform="translate(164.08 4027.891)" fill="#fff"></ellipse><ellipse id="Ellipse_388" data-name="Ellipse 388" cx="0.748" cy="0.748" rx="0.748" ry="0.748" transform="translate(166.19 4027.891)" fill="#fff"></ellipse><ellipse id="Ellipse_389" data-name="Ellipse 389" cx="0.748" cy="0.748" rx="0.748" ry="0.748" transform="translate(168.283 4027.891)" fill="#fff"></ellipse><ellipse id="Ellipse_390" data-name="Ellipse 390" cx="0.748" cy="0.748" rx="0.748" ry="0.748" transform="translate(170.376 4027.891)" fill="#fff"></ellipse><path id="Path_153" data-name="Path 153" d="M180.1,76.59a.748.748,0,1,1-.748-.748A.748.748,0,0,1,180.1,76.59Z" transform="translate(6.66 3949.95)" fill="#fff"></path><path id="Path_154" data-name="Path 154" d="M187.168,76.59a.748.748,0,1,1-.748-.748A.748.748,0,0,1,187.168,76.59Z" transform="translate(1.686 3949.95)" fill="#fff"></path><path id="Path_155" data-name="Path 155" d="M194.235,76.59a.748.748,0,1,1-.748-.748A.748.748,0,0,1,194.235,76.59Z" transform="translate(-3.287 3949.95)" fill="#fff"></path><path id="Path_156" data-name="Path 156" d="M201.445,76.59a.748.748,0,1,1-.748-.748A.748.748,0,0,1,201.445,76.59Z" transform="translate(-8.361 3949.95)" fill="#fff"></path><path id="Path_157" data-name="Path 157" d="M201.445,69.59a.748.748,0,1,1-.748-.748A.748.748,0,0,1,201.445,69.59Z" transform="translate(-8.361 3954.876)" fill="#fff"></path><path id="Path_158" data-name="Path 158" d="M208.748,76.59a.748.748,0,1,1-.748-.748A.748.748,0,0,1,208.748,76.59Z" transform="translate(-13.501 3949.95)" fill="#fff"></path><path id="Path_159" data-name="Path 159" d="M215.811,76.59a.748.748,0,1,1-.748-.748A.748.748,0,0,1,215.811,76.59Z" transform="translate(-18.472 3949.95)" fill="#fff"></path><path id="Path_160" data-name="Path 160" d="M222.878,76.59a.748.748,0,1,1-.748-.748A.748.748,0,0,1,222.878,76.59Z" transform="translate(-23.445 3949.95)" fill="#fff"></path><path id="Path_161" data-name="Path 161" d="M175.249,90.756a.748.748,0,1,1-.748-.748A.748.748,0,0,1,175.249,90.756Z" transform="translate(10.074 3939.981)" fill="#fff"></path><path id="Path_162" data-name="Path 162" d="M182.316,90.756a.748.748,0,1,1-.748-.748A.748.748,0,0,1,182.316,90.756Z" transform="translate(5.101 3939.981)" fill="#fff"></path><path id="Path_163" data-name="Path 163" d="M189.383,90.756a.748.748,0,1,1-.748-.748A.748.748,0,0,1,189.383,90.756Z" transform="translate(0.127 3939.981)" fill="#fff"></path><path id="Path_164" data-name="Path 164" d="M196.445,90.756a.748.748,0,1,1-.748-.748A.748.748,0,0,1,196.445,90.756Z" transform="translate(-4.843 3939.981)" fill="#fff"></path><path id="Path_165" data-name="Path 165" d="M213.57,90.756a.748.748,0,1,1-.748-.748A.748.748,0,0,1,213.57,90.756Z" transform="translate(-16.895 3939.981)" fill="#fff"></path><path id="Path_166" data-name="Path 166" d="M220.633,90.756a.748.748,0,1,1-.748-.748A.748.748,0,0,1,220.633,90.756Z" transform="translate(-21.865 3939.981)" fill="#fff"></path><path id="Path_167" data-name="Path 167" d="M227.7,90.756a.748.748,0,1,1-.748-.748A.748.748,0,0,1,227.7,90.756Z" transform="translate(-26.838 3939.981)" fill="#fff"></path><path id="Path_168" data-name="Path 168" d="M177.774,83.673a.748.748,0,1,1-.748-.748A.748.748,0,0,1,177.774,83.673Z" transform="translate(8.297 3944.965)" fill="#fff"></path><path id="Path_169" data-name="Path 169" d="M184.841,83.673a.748.748,0,1,1-.748-.748A.748.748,0,0,1,184.841,83.673Z" transform="translate(3.324 3944.965)" fill="#fff"></path><path id="Path_170" data-name="Path 170" d="M192.908,83.673a.748.748,0,1,1-.748-.748A.748.748,0,0,1,192.908,83.673Z" transform="translate(-2.354 3944.965)" fill="#fff"></path><path id="Path_171" data-name="Path 171" d="M201.445,83.673a.748.748,0,1,1-.748-.748A.748.748,0,0,1,201.445,83.673Z" transform="translate(-8.361 3944.965)" fill="#fff"></path><ellipse id="Ellipse_391" data-name="Ellipse 391" cx="0.748" cy="0.748" rx="0.748" ry="0.748" transform="translate(194.203 4027.891)" fill="#fff"></ellipse><ellipse id="Ellipse_392" data-name="Ellipse 392" cx="0.748" cy="0.748" rx="0.748" ry="0.748" transform="translate(196.591 4027.891)" fill="#fff"></ellipse><ellipse id="Ellipse_393" data-name="Ellipse 393" cx="0.748" cy="0.748" rx="0.748" ry="0.748" transform="translate(198.685 4027.891)" fill="#fff"></ellipse><ellipse id="Ellipse_394" data-name="Ellipse 394" cx="0.748" cy="0.748" rx="0.748" ry="0.748" transform="translate(149.389 4025.791)" fill="#fff"></ellipse><ellipse id="Ellipse_395" data-name="Ellipse 395" cx="0.748" cy="0.748" rx="0.748" ry="0.748" transform="translate(151.482 4025.791)" fill="#fff"></ellipse><ellipse id="Ellipse_396" data-name="Ellipse 396" cx="0.748" cy="0.748" rx="0.748" ry="0.748" transform="translate(159.894 4025.791)" fill="#fff"></ellipse><ellipse id="Ellipse_397" data-name="Ellipse 397" cx="0.748" cy="0.748" rx="0.748" ry="0.748" transform="translate(161.987 4025.791)" fill="#fff"></ellipse><ellipse id="Ellipse_398" data-name="Ellipse 398" cx="0.748" cy="0.748" rx="0.748" ry="0.748" transform="translate(141 4030.004)" fill="#fff"></ellipse><ellipse id="Ellipse_399" data-name="Ellipse 399" cx="0.748" cy="0.748" rx="0.748" ry="0.748" transform="translate(143.092 4030.004)" fill="#fff"></ellipse><ellipse id="Ellipse_400" data-name="Ellipse 400" cx="0.748" cy="0.748" rx="0.748" ry="0.748" transform="translate(145.203 4030.004)" fill="#fff"></ellipse><ellipse id="Ellipse_401" data-name="Ellipse 401" cx="0.748" cy="0.748" rx="0.748" ry="0.748" transform="translate(147.295 4030.004)" fill="#fff"></ellipse><ellipse id="Ellipse_402" data-name="Ellipse 402" cx="0.748" cy="0.748" rx="0.748" ry="0.748" transform="translate(149.389 4030.004)" fill="#fff"></ellipse><ellipse id="Ellipse_403" data-name="Ellipse 403" cx="0.748" cy="0.748" rx="0.748" ry="0.748" transform="translate(151.482 4030.004)" fill="#fff"></ellipse><ellipse id="Ellipse_404" data-name="Ellipse 404" cx="0.748" cy="0.748" rx="0.748" ry="0.748" transform="translate(153.576 4030.004)" fill="#fff"></ellipse><path id="Path_172" data-name="Path 172" d="M80.279,90.808a.748.748,0,1,1-.748-.748A.748.748,0,0,1,80.279,90.808Z" transform="translate(76.909 3939.944)" fill="#fff"></path><ellipse id="Ellipse_405" data-name="Ellipse 405" cx="0.748" cy="0.748" rx="0.748" ry="0.748" transform="translate(157.8 4030.004)" fill="#fff"></ellipse><ellipse id="Ellipse_406" data-name="Ellipse 406" cx="0.748" cy="0.748" rx="0.748" ry="0.748" transform="translate(159.894 4030.004)" fill="#fff"></ellipse><ellipse id="Ellipse_407" data-name="Ellipse 407" cx="0.748" cy="0.748" rx="0.748" ry="0.748" transform="translate(161.987 4030.004)" fill="#fff"></ellipse><ellipse id="Ellipse_408" data-name="Ellipse 408" cx="0.748" cy="0.748" rx="0.748" ry="0.748" transform="translate(164.08 4030.004)" fill="#fff"></ellipse><ellipse id="Ellipse_409" data-name="Ellipse 409" cx="0.748" cy="0.748" rx="0.748" ry="0.748" transform="translate(166.19 4030.004)" fill="#fff"></ellipse><ellipse id="Ellipse_410" data-name="Ellipse 410" cx="0.748" cy="0.748" rx="0.748" ry="0.748" transform="translate(168.283 4030.004)" fill="#fff"></ellipse><ellipse id="Ellipse_411" data-name="Ellipse 411" cx="0.748" cy="0.748" rx="0.748" ry="0.748" transform="translate(170.376 4030.004)" fill="#fff"></ellipse><ellipse id="Ellipse_412" data-name="Ellipse 412" cx="0.748" cy="0.748" rx="0.748" ry="0.748" transform="translate(141 4032.102)" fill="#fff"></ellipse><ellipse id="Ellipse_413" data-name="Ellipse 413" cx="0.748" cy="0.748" rx="0.748" ry="0.748" transform="translate(143.092 4032.102)" fill="#fff"></ellipse><ellipse id="Ellipse_414" data-name="Ellipse 414" cx="0.748" cy="0.748" rx="0.748" ry="0.748" transform="translate(145.203 4032.102)" fill="#fff"></ellipse><ellipse id="Ellipse_415" data-name="Ellipse 415" cx="0.748" cy="0.748" rx="0.748" ry="0.748" transform="translate(147.295 4032.102)" fill="#fff"></ellipse><ellipse id="Ellipse_416" data-name="Ellipse 416" cx="0.748" cy="0.748" rx="0.748" ry="0.748" transform="translate(149.389 4032.102)" fill="#fff"></ellipse><ellipse id="Ellipse_417" data-name="Ellipse 417" cx="0.748" cy="0.748" rx="0.748" ry="0.748" transform="translate(151.482 4032.102)" fill="#fff"></ellipse><ellipse id="Ellipse_418" data-name="Ellipse 418" cx="0.748" cy="0.748" rx="0.748" ry="0.748" transform="translate(153.576 4032.102)" fill="#fff"></ellipse><path id="Path_173" data-name="Path 173" d="M80.279,97.889a.748.748,0,1,1-.748-.748A.748.748,0,0,1,80.279,97.889Z" transform="translate(76.909 3934.961)" fill="#fff"></path><ellipse id="Ellipse_419" data-name="Ellipse 419" cx="0.748" cy="0.748" rx="0.748" ry="0.748" transform="translate(157.8 4032.102)" fill="#fff"></ellipse><ellipse id="Ellipse_420" data-name="Ellipse 420" cx="0.748" cy="0.748" rx="0.748" ry="0.748" transform="translate(159.894 4032.102)" fill="#fff"></ellipse><ellipse id="Ellipse_421" data-name="Ellipse 421" cx="0.748" cy="0.748" rx="0.748" ry="0.748" transform="translate(161.987 4032.102)" fill="#fff"></ellipse><ellipse id="Ellipse_422" data-name="Ellipse 422" cx="0.748" cy="0.748" rx="0.748" ry="0.748" transform="translate(164.08 4032.102)" fill="#fff"></ellipse><ellipse id="Ellipse_423" data-name="Ellipse 423" cx="0.748" cy="0.748" rx="0.748" ry="0.748" transform="translate(166.19 4032.102)" fill="#fff"></ellipse><ellipse id="Ellipse_424" data-name="Ellipse 424" cx="0.748" cy="0.748" rx="0.748" ry="0.748" transform="translate(168.283 4032.102)" fill="#fff"></ellipse><ellipse id="Ellipse_425" data-name="Ellipse 425" cx="0.748" cy="0.748" rx="0.748" ry="0.748" transform="translate(170.376 4032.102)" fill="#fff"></ellipse><ellipse id="Ellipse_426" data-name="Ellipse 426" cx="0.748" cy="0.748" rx="0.748" ry="0.748" transform="translate(186.657 4021.594)" fill="#fff"></ellipse><ellipse id="Ellipse_427" data-name="Ellipse 427" cx="0.748" cy="0.748" rx="0.748" ry="0.748" transform="translate(188.561 4021.61) rotate(-1.511)" fill="#fff"></ellipse><path id="Path_174" data-name="Path 174" d="M197.954,62.418a.748.748,0,1,1-.748-.748A.748.748,0,0,1,197.954,62.418Z" transform="translate(-5.905 3959.924)" fill="#fff"></path><ellipse id="Ellipse_428" data-name="Ellipse 428" cx="0.748" cy="0.748" rx="0.748" ry="0.748" transform="translate(192.622 4021.631) rotate(-2.787)" fill="#fff"></ellipse><path id="Path_175" data-name="Path 175" d="M211.7,62.418a.748.748,0,1,1-.748-.748A.748.748,0,0,1,211.7,62.418Z" transform="translate(-15.576 3959.924)" fill="#fff"></path><ellipse id="Ellipse_429" data-name="Ellipse 429" cx="0.748" cy="0.748" rx="0.748" ry="0.748" transform="translate(196.512 4021.631) rotate(-2.787)" fill="#fff"></ellipse><ellipse id="Ellipse_430" data-name="Ellipse 430" cx="0.748" cy="0.748" rx="0.748" ry="0.748" transform="translate(185.977 4023.695)" fill="#fff"></ellipse><ellipse id="Ellipse_431" data-name="Ellipse 431" cx="0.748" cy="0.748" rx="0.748" ry="0.748" transform="translate(187.774 4023.695)" fill="#fff"></ellipse><ellipse id="Ellipse_432" data-name="Ellipse 432" cx="0.748" cy="0.748" rx="0.748" ry="0.748" transform="translate(189.57 4023.695)" fill="#fff"></ellipse><ellipse id="Ellipse_433" data-name="Ellipse 433" cx="0.748" cy="0.748" rx="0.748" ry="0.748" transform="translate(193.634 4023.695)" fill="#fff"></ellipse><ellipse id="Ellipse_434" data-name="Ellipse 434" cx="0.748" cy="0.748" rx="0.748" ry="0.748" transform="translate(195.43 4023.695)" fill="#fff"></ellipse><path id="Path_176" data-name="Path 176" d="M220.483,69.511a.748.748,0,1,1-.748-.748A.748.748,0,0,1,220.483,69.511Z" transform="translate(-21.759 3954.932)" fill="#fff"></path><ellipse id="Ellipse_435" data-name="Ellipse 435" cx="0.748" cy="0.748" rx="0.748" ry="0.748" transform="translate(141 4034.2)" fill="#fff"></ellipse><ellipse id="Ellipse_436" data-name="Ellipse 436" cx="0.748" cy="0.748" rx="0.748" ry="0.748" transform="translate(143.092 4034.2)" fill="#fff"></ellipse><ellipse id="Ellipse_437" data-name="Ellipse 437" cx="0.748" cy="0.748" rx="0.748" ry="0.748" transform="translate(145.203 4034.2)" fill="#fff"></ellipse><ellipse id="Ellipse_438" data-name="Ellipse 438" cx="0.748" cy="0.748" rx="0.748" ry="0.748" transform="translate(147.295 4034.2)" fill="#fff"></ellipse><ellipse id="Ellipse_439" data-name="Ellipse 439" cx="0.748" cy="0.748" rx="0.748" ry="0.748" transform="translate(151.482 4034.2)" fill="#fff"></ellipse><ellipse id="Ellipse_440" data-name="Ellipse 440" cx="0.748" cy="0.748" rx="0.748" ry="0.748" transform="translate(153.576 4034.2)" fill="#fff"></ellipse><path id="Path_177" data-name="Path 177" d="M80.279,104.97a.748.748,0,1,1-.748-.748A.748.748,0,0,1,80.279,104.97Z" transform="translate(76.909 3929.978)" fill="#fff"></path><ellipse id="Ellipse_441" data-name="Ellipse 441" cx="0.748" cy="0.748" rx="0.748" ry="0.748" transform="translate(157.8 4034.2)" fill="#fff"></ellipse><ellipse id="Ellipse_442" data-name="Ellipse 442" cx="0.748" cy="0.748" rx="0.748" ry="0.748" transform="translate(159.894 4034.2)" fill="#fff"></ellipse><ellipse id="Ellipse_443" data-name="Ellipse 443" cx="0.748" cy="0.748" rx="0.748" ry="0.748" transform="translate(164.08 4034.2)" fill="#fff"></ellipse><ellipse id="Ellipse_444" data-name="Ellipse 444" cx="0.748" cy="0.748" rx="0.748" ry="0.748" transform="translate(166.19 4034.2)" fill="#fff"></ellipse><ellipse id="Ellipse_445" data-name="Ellipse 445" cx="0.748" cy="0.748" rx="0.748" ry="0.748" transform="translate(168.283 4034.2)" fill="#fff"></ellipse><ellipse id="Ellipse_446" data-name="Ellipse 446" cx="0.748" cy="0.748" rx="0.748" ry="0.748" transform="translate(170.376 4034.2)" fill="#fff"></ellipse><path id="Path_178" data-name="Path 178" d="M30.685,111.989a.748.748,0,1,1-.748-.748A.748.748,0,0,1,30.685,111.989Z" transform="translate(111.811 3925.038)" fill="#fff"></path><path id="Path_179" data-name="Path 179" d="M37.747,111.989a.748.748,0,1,1-.748-.748A.748.748,0,0,1,37.747,111.989Z" transform="translate(106.841 3925.038)" fill="#fff"></path><path id="Path_180" data-name="Path 180" d="M44.872,111.989a.748.748,0,1,1-.748-.748A.748.748,0,0,1,44.872,111.989Z" transform="translate(101.827 3925.038)" fill="#fff"></path><path id="Path_181" data-name="Path 181" d="M51.935,111.989a.748.748,0,1,1-.748-.748A.748.748,0,0,1,51.935,111.989Z" transform="translate(96.856 3925.038)" fill="#fff"></path><path id="Path_182" data-name="Path 182" d="M73.135,111.989a.748.748,0,1,1-.748-.748A.748.748,0,0,1,73.135,111.989Z" transform="translate(81.937 3925.038)" fill="#fff"></path><path id="Path_183" data-name="Path 183" d="M80.279,111.989a.748.748,0,1,1-.748-.748A.748.748,0,0,1,80.279,111.989Z" transform="translate(76.909 3925.038)" fill="#fff"></path><path id="Path_184" data-name="Path 184" d="M87.394,111.989a.748.748,0,1,1-.748-.748A.748.748,0,0,1,87.394,111.989Z" transform="translate(71.902 3925.038)" fill="#fff"></path><path id="Path_185" data-name="Path 185" d="M108.59,111.989a.748.748,0,1,1-.748-.748A.748.748,0,0,1,108.59,111.989Z" transform="translate(56.985 3925.038)" fill="#fff"></path><path id="Path_186" data-name="Path 186" d="M115.715,111.989a.748.748,0,1,1-.748-.748A.748.748,0,0,1,115.715,111.989Z" transform="translate(51.971 3925.038)" fill="#fff"></path><path id="Path_187" data-name="Path 187" d="M122.778,111.989a.748.748,0,1,1-.748-.748A.748.748,0,0,1,122.778,111.989Z" transform="translate(47 3925.038)" fill="#fff"></path><path id="Path_188" data-name="Path 188" d="M129.845,111.989a.748.748,0,1,1-.748-.748A.748.748,0,0,1,129.845,111.989Z" transform="translate(42.027 3925.038)" fill="#fff"></path><ellipse id="Ellipse_447" data-name="Ellipse 447" cx="0.748" cy="0.748" rx="0.748" ry="0.748" transform="translate(141 4038.395)" fill="#fff"></ellipse><ellipse id="Ellipse_448" data-name="Ellipse 448" cx="0.748" cy="0.748" rx="0.748" ry="0.748" transform="translate(143.092 4038.395)" fill="#fff"></ellipse><ellipse id="Ellipse_449" data-name="Ellipse 449" cx="0.748" cy="0.748" rx="0.748" ry="0.748" transform="translate(145.203 4038.395)" fill="#fff"></ellipse><ellipse id="Ellipse_450" data-name="Ellipse 450" cx="0.748" cy="0.748" rx="0.748" ry="0.748" transform="translate(147.295 4038.395)" fill="#fff"></ellipse><path id="Path_189" data-name="Path 189" d="M30.685,126.186a.748.748,0,1,1-.748-.748A.748.748,0,0,1,30.685,126.186Z" transform="translate(111.811 3915.047)" fill="#fff"></path><path id="Path_190" data-name="Path 190" d="M37.747,126.186a.748.748,0,1,1-.748-.748A.748.748,0,0,1,37.747,126.186Z" transform="translate(106.841 3915.047)" fill="#fff"></path><path id="Path_191" data-name="Path 191" d="M44.872,126.186a.748.748,0,1,1-.748-.748A.748.748,0,0,1,44.872,126.186Z" transform="translate(101.827 3915.047)" fill="#fff"></path><path id="Path_192" data-name="Path 192" d="M51.935,126.186a.748.748,0,1,1-.748-.748A.748.748,0,0,1,51.935,126.186Z" transform="translate(96.856 3915.047)" fill="#fff"></path><ellipse id="Ellipse_451" data-name="Ellipse 451" cx="0.748" cy="0.748" rx="0.748" ry="0.748" transform="translate(141 4042.598)" fill="#fff"></ellipse><ellipse id="Ellipse_452" data-name="Ellipse 452" cx="0.748" cy="0.748" rx="0.748" ry="0.748" transform="translate(143.092 4042.598)" fill="#fff"></ellipse><ellipse id="Ellipse_453" data-name="Ellipse 453" cx="0.748" cy="0.748" rx="0.748" ry="0.748" transform="translate(145.203 4042.598)" fill="#fff"></ellipse><ellipse id="Ellipse_454" data-name="Ellipse 454" cx="0.748" cy="0.748" rx="0.748" ry="0.748" transform="translate(147.295 4042.598)" fill="#fff"></ellipse><ellipse id="Ellipse_455" data-name="Ellipse 455" cx="0.748" cy="0.748" rx="0.748" ry="0.748" transform="translate(141 4044.696)" fill="#fff"></ellipse><ellipse id="Ellipse_456" data-name="Ellipse 456" cx="0.748" cy="0.748" rx="0.748" ry="0.748" transform="translate(143.092 4044.696)" fill="#fff"></ellipse><ellipse id="Ellipse_457" data-name="Ellipse 457" cx="0.748" cy="0.748" rx="0.748" ry="0.748" transform="translate(145.203 4044.696)" fill="#fff"></ellipse><ellipse id="Ellipse_458" data-name="Ellipse 458" cx="0.748" cy="0.748" rx="0.748" ry="0.748" transform="translate(147.295 4044.696)" fill="#fff"></ellipse><ellipse id="Ellipse_459" data-name="Ellipse 459" cx="0.748" cy="0.748" rx="0.748" ry="0.748" transform="translate(141 4046.794)" fill="#fff"></ellipse><ellipse id="Ellipse_460" data-name="Ellipse 460" cx="0.748" cy="0.748" rx="0.748" ry="0.748" transform="translate(143.092 4046.794)" fill="#fff"></ellipse><ellipse id="Ellipse_461" data-name="Ellipse 461" cx="0.748" cy="0.748" rx="0.748" ry="0.748" transform="translate(145.203 4046.794)" fill="#fff"></ellipse><ellipse id="Ellipse_462" data-name="Ellipse 462" cx="0.748" cy="0.748" rx="0.748" ry="0.748" transform="translate(147.295 4046.794)" fill="#fff"></ellipse><path id="Path_193" data-name="Path 193" d="M30.685,154.5a.748.748,0,1,1-.748-.748A.748.748,0,0,1,30.685,154.5Z" transform="translate(111.811 3895.12)" fill="#fff"></path><path id="Path_194" data-name="Path 194" d="M37.747,154.5a.748.748,0,1,1-.748-.748A.748.748,0,0,1,37.747,154.5Z" transform="translate(106.841 3895.12)" fill="#fff"></path><path id="Path_195" data-name="Path 195" d="M44.872,154.5a.748.748,0,1,1-.748-.748A.748.748,0,0,1,44.872,154.5Z" transform="translate(101.827 3895.12)" fill="#fff"></path><path id="Path_196" data-name="Path 196" d="M51.935,154.5a.748.748,0,1,1-.748-.748A.748.748,0,0,1,51.935,154.5Z" transform="translate(96.856 3895.12)" fill="#fff"></path><ellipse id="Ellipse_463" data-name="Ellipse 463" cx="0.748" cy="0.748" rx="0.748" ry="0.748" transform="translate(141 4050.989)" fill="#fff"></ellipse><ellipse id="Ellipse_464" data-name="Ellipse 464" cx="0.748" cy="0.748" rx="0.748" ry="0.748" transform="translate(143.092 4050.989)" fill="#fff"></ellipse><ellipse id="Ellipse_465" data-name="Ellipse 465" cx="0.748" cy="0.748" rx="0.748" ry="0.748" transform="translate(145.203 4050.989)" fill="#fff"></ellipse><ellipse id="Ellipse_466" data-name="Ellipse 466" cx="0.748" cy="0.748" rx="0.748" ry="0.748" transform="translate(147.295 4050.989)" fill="#fff"></ellipse><ellipse id="Ellipse_467" data-name="Ellipse 467" cx="0.748" cy="0.748" rx="0.748" ry="0.748" transform="matrix(1, -0.014, 0.014, 1, 242.188, 4021.606)" fill="#fff"></ellipse><ellipse id="Ellipse_468" data-name="Ellipse 468" cx="0.748" cy="0.748" rx="0.748" ry="0.748" transform="matrix(1, -0.014, 0.014, 1, 244.28, 4021.606)" fill="#fff"></ellipse><ellipse id="Ellipse_469" data-name="Ellipse 469" cx="0.748" cy="0.748" rx="0.748" ry="0.748" transform="matrix(1, -0.014, 0.014, 1, 246.391, 4021.606)" fill="#fff"></ellipse><ellipse id="Ellipse_470" data-name="Ellipse 470" cx="0.748" cy="0.748" rx="0.748" ry="0.748" transform="matrix(1, -0.014, 0.014, 1, 248.483, 4021.606)" fill="#fff"></ellipse><ellipse id="Ellipse_471" data-name="Ellipse 471" cx="0.748" cy="0.748" rx="0.748" ry="0.748" transform="translate(242.198 4023.695)" fill="#fff"></ellipse><ellipse id="Ellipse_472" data-name="Ellipse 472" cx="0.748" cy="0.748" rx="0.748" ry="0.748" transform="translate(244.291 4023.695)" fill="#fff"></ellipse><ellipse id="Ellipse_473" data-name="Ellipse 473" cx="0.748" cy="0.748" rx="0.748" ry="0.748" transform="translate(246.401 4023.695)" fill="#fff"></ellipse><ellipse id="Ellipse_474" data-name="Ellipse 474" cx="0.748" cy="0.748" rx="0.748" ry="0.748" transform="translate(248.494 4023.695)" fill="#fff"></ellipse><ellipse id="Ellipse_475" data-name="Ellipse 475" cx="0.748" cy="0.748" rx="0.748" ry="0.748" transform="translate(242.198 4025.791)" fill="#fff"></ellipse><ellipse id="Ellipse_476" data-name="Ellipse 476" cx="0.748" cy="0.748" rx="0.748" ry="0.748" transform="translate(244.291 4025.791)" fill="#fff"></ellipse><ellipse id="Ellipse_477" data-name="Ellipse 477" cx="0.748" cy="0.748" rx="0.748" ry="0.748" transform="translate(246.401 4025.791)" fill="#fff"></ellipse><ellipse id="Ellipse_478" data-name="Ellipse 478" cx="0.748" cy="0.748" rx="0.748" ry="0.748" transform="translate(248.494 4025.791)" fill="#fff"></ellipse><ellipse id="Ellipse_479" data-name="Ellipse 479" cx="0.748" cy="0.748" rx="0.748" ry="0.748" transform="translate(242.198 4027.891)" fill="#fff"></ellipse><ellipse id="Ellipse_480" data-name="Ellipse 480" cx="0.748" cy="0.748" rx="0.748" ry="0.748" transform="translate(244.291 4027.891)" fill="#fff"></ellipse><ellipse id="Ellipse_481" data-name="Ellipse 481" cx="0.748" cy="0.748" rx="0.748" ry="0.748" transform="translate(246.401 4027.891)" fill="#fff"></ellipse><ellipse id="Ellipse_482" data-name="Ellipse 482" cx="0.748" cy="0.748" rx="0.748" ry="0.748" transform="translate(248.494 4027.891)" fill="#fff"></ellipse><ellipse id="Ellipse_483" data-name="Ellipse 483" cx="0.748" cy="0.748" rx="0.748" ry="0.748" transform="translate(242.198 4030.004)" fill="#fff"></ellipse><ellipse id="Ellipse_484" data-name="Ellipse 484" cx="0.748" cy="0.748" rx="0.748" ry="0.748" transform="translate(244.291 4030.004)" fill="#fff"></ellipse><ellipse id="Ellipse_485" data-name="Ellipse 485" cx="0.748" cy="0.748" rx="0.748" ry="0.748" transform="translate(246.401 4030.004)" fill="#fff"></ellipse><ellipse id="Ellipse_486" data-name="Ellipse 486" cx="0.748" cy="0.748" rx="0.748" ry="0.748" transform="translate(248.494 4030.004)" fill="#fff"></ellipse><ellipse id="Ellipse_487" data-name="Ellipse 487" cx="0.748" cy="0.748" rx="0.748" ry="0.748" transform="translate(242.198 4032.102)" fill="#fff"></ellipse><ellipse id="Ellipse_488" data-name="Ellipse 488" cx="0.748" cy="0.748" rx="0.748" ry="0.748" transform="translate(244.291 4032.102)" fill="#fff"></ellipse><ellipse id="Ellipse_489" data-name="Ellipse 489" cx="0.748" cy="0.748" rx="0.748" ry="0.748" transform="translate(246.401 4032.102)" fill="#fff"></ellipse><ellipse id="Ellipse_490" data-name="Ellipse 490" cx="0.748" cy="0.748" rx="0.748" ry="0.748" transform="translate(248.494 4032.102)" fill="#fff"></ellipse><ellipse id="Ellipse_491" data-name="Ellipse 491" cx="0.748" cy="0.748" rx="0.748" ry="0.748" transform="translate(242.198 4034.2)" fill="#fff"></ellipse><ellipse id="Ellipse_492" data-name="Ellipse 492" cx="0.748" cy="0.748" rx="0.748" ry="0.748" transform="translate(244.291 4034.2)" fill="#fff"></ellipse><ellipse id="Ellipse_493" data-name="Ellipse 493" cx="0.748" cy="0.748" rx="0.748" ry="0.748" transform="translate(246.401 4034.2)" fill="#fff"></ellipse><ellipse id="Ellipse_494" data-name="Ellipse 494" cx="0.748" cy="0.748" rx="0.748" ry="0.748" transform="translate(248.494 4034.2)" fill="#fff"></ellipse><path id="Path_197" data-name="Path 197" d="M372.284,111.989a.748.748,0,1,1-.748-.748A.748.748,0,0,1,372.284,111.989Z" transform="translate(-128.589 3925.038)" fill="#fff"></path><path id="Path_198" data-name="Path 198" d="M379.346,111.989a.748.748,0,1,1-.748-.748A.748.748,0,0,1,379.346,111.989Z" transform="translate(-133.56 3925.038)" fill="#fff"></path><path id="Path_199" data-name="Path 199" d="M386.471,111.989a.748.748,0,1,1-.748-.748A.748.748,0,0,1,386.471,111.989Z" transform="translate(-138.574 3925.038)" fill="#fff"></path><path id="Path_200" data-name="Path 200" d="M393.534,111.989a.748.748,0,1,1-.748-.748A.748.748,0,0,1,393.534,111.989Z" transform="translate(-143.544 3925.038)" fill="#fff"></path><ellipse id="Ellipse_495" data-name="Ellipse 495" cx="0.748" cy="0.748" rx="0.748" ry="0.748" transform="translate(242.198 4038.395)" fill="#fff"></ellipse><ellipse id="Ellipse_496" data-name="Ellipse 496" cx="0.748" cy="0.748" rx="0.748" ry="0.748" transform="translate(244.291 4038.395)" fill="#fff"></ellipse><ellipse id="Ellipse_497" data-name="Ellipse 497" cx="0.748" cy="0.748" rx="0.748" ry="0.748" transform="translate(246.401 4038.395)" fill="#fff"></ellipse><ellipse id="Ellipse_498" data-name="Ellipse 498" cx="0.748" cy="0.748" rx="0.748" ry="0.748" transform="translate(248.494 4038.395)" fill="#fff"></ellipse><path id="Path_201" data-name="Path 201" d="M372.284,126.186a.748.748,0,1,1-.748-.748A.748.748,0,0,1,372.284,126.186Z" transform="translate(-128.589 3915.047)" fill="#fff"></path><path id="Path_202" data-name="Path 202" d="M379.346,126.186a.748.748,0,1,1-.748-.748A.748.748,0,0,1,379.346,126.186Z" transform="translate(-133.56 3915.047)" fill="#fff"></path><path id="Path_203" data-name="Path 203" d="M386.471,126.186a.748.748,0,1,1-.748-.748A.748.748,0,0,1,386.471,126.186Z" transform="translate(-138.574 3915.047)" fill="#fff"></path><path id="Path_204" data-name="Path 204" d="M393.534,126.186a.748.748,0,1,1-.748-.748A.748.748,0,0,1,393.534,126.186Z" transform="translate(-143.544 3915.047)" fill="#fff"></path><ellipse id="Ellipse_499" data-name="Ellipse 499" cx="0.748" cy="0.748" rx="0.748" ry="0.748" transform="translate(242.198 4042.598)" fill="#fff"></ellipse><ellipse id="Ellipse_500" data-name="Ellipse 500" cx="0.748" cy="0.748" rx="0.748" ry="0.748" transform="translate(244.291 4042.598)" fill="#fff"></ellipse><ellipse id="Ellipse_501" data-name="Ellipse 501" cx="0.748" cy="0.748" rx="0.748" ry="0.748" transform="translate(246.401 4042.598)" fill="#fff"></ellipse><ellipse id="Ellipse_502" data-name="Ellipse 502" cx="0.748" cy="0.748" rx="0.748" ry="0.748" transform="translate(248.494 4042.598)" fill="#fff"></ellipse><ellipse id="Ellipse_503" data-name="Ellipse 503" cx="0.748" cy="0.748" rx="0.748" ry="0.748" transform="translate(242.198 4044.696)" fill="#fff"></ellipse><ellipse id="Ellipse_504" data-name="Ellipse 504" cx="0.748" cy="0.748" rx="0.748" ry="0.748" transform="translate(244.291 4044.696)" fill="#fff"></ellipse><ellipse id="Ellipse_505" data-name="Ellipse 505" cx="0.748" cy="0.748" rx="0.748" ry="0.748" transform="translate(246.401 4044.696)" fill="#fff"></ellipse><ellipse id="Ellipse_506" data-name="Ellipse 506" cx="0.748" cy="0.748" rx="0.748" ry="0.748" transform="translate(248.494 4044.696)" fill="#fff"></ellipse><ellipse id="Ellipse_507" data-name="Ellipse 507" cx="0.748" cy="0.748" rx="0.748" ry="0.748" transform="translate(242.198 4046.794)" fill="#fff"></ellipse><ellipse id="Ellipse_508" data-name="Ellipse 508" cx="0.748" cy="0.748" rx="0.748" ry="0.748" transform="translate(244.291 4046.794)" fill="#fff"></ellipse><ellipse id="Ellipse_509" data-name="Ellipse 509" cx="0.748" cy="0.748" rx="0.748" ry="0.748" transform="translate(246.401 4046.794)" fill="#fff"></ellipse><ellipse id="Ellipse_510" data-name="Ellipse 510" cx="0.748" cy="0.748" rx="0.748" ry="0.748" transform="translate(248.494 4046.794)" fill="#fff"></ellipse><path id="Path_205" data-name="Path 205" d="M372.284,154.5a.748.748,0,1,1-.748-.748A.748.748,0,0,1,372.284,154.5Z" transform="translate(-128.589 3895.119)" fill="#fff"></path><path id="Path_206" data-name="Path 206" d="M379.346,154.5a.748.748,0,1,1-.748-.748A.748.748,0,0,1,379.346,154.5Z" transform="translate(-133.56 3895.119)" fill="#fff"></path><path id="Path_207" data-name="Path 207" d="M386.471,154.5a.748.748,0,1,1-.748-.748A.748.748,0,0,1,386.471,154.5Z" transform="translate(-138.574 3895.119)" fill="#fff"></path><path id="Path_208" data-name="Path 208" d="M393.534,154.5a.748.748,0,1,1-.748-.748A.748.748,0,0,1,393.534,154.5Z" transform="translate(-143.544 3895.119)" fill="#fff"></path><ellipse id="Ellipse_511" data-name="Ellipse 511" cx="0.748" cy="0.748" rx="0.748" ry="0.748" transform="translate(242.198 4050.989)" fill="#fff"></ellipse><ellipse id="Ellipse_512" data-name="Ellipse 512" cx="0.748" cy="0.748" rx="0.748" ry="0.748" transform="translate(244.291 4050.989)" fill="#fff"></ellipse><ellipse id="Ellipse_513" data-name="Ellipse 513" cx="0.748" cy="0.748" rx="0.748" ry="0.748" transform="translate(246.401 4050.989)" fill="#fff"></ellipse><ellipse id="Ellipse_514" data-name="Ellipse 514" cx="0.748" cy="0.748" rx="0.748" ry="0.748" transform="translate(248.494 4050.989)" fill="#fff"></ellipse><path id="Path_209" data-name="Path 209" d="M108.59,126.186a.748.748,0,1,1-.748-.748A.748.748,0,0,1,108.59,126.186Z" transform="translate(56.985 3915.047)" fill="#fff"></path><path id="Path_210" data-name="Path 210" d="M115.653,126.186a.748.748,0,1,1-.748-.748A.748.748,0,0,1,115.653,126.186Z" transform="translate(52.015 3915.047)" fill="#fff"></path><path id="Path_211" data-name="Path 211" d="M122.778,126.186a.748.748,0,1,1-.748-.748A.748.748,0,0,1,122.778,126.186Z" transform="translate(47 3915.047)" fill="#fff"></path><path id="Path_212" data-name="Path 212" d="M129.84,126.186a.748.748,0,1,1-.748-.748A.748.748,0,0,1,129.84,126.186Z" transform="translate(42.031 3915.047)" fill="#fff"></path><ellipse id="Ellipse_515" data-name="Ellipse 515" cx="0.748" cy="0.748" rx="0.748" ry="0.748" transform="translate(164.08 4042.598)" fill="#fff"></ellipse><ellipse id="Ellipse_516" data-name="Ellipse 516" cx="0.748" cy="0.748" rx="0.748" ry="0.748" transform="translate(166.172 4042.598)" fill="#fff"></ellipse><ellipse id="Ellipse_517" data-name="Ellipse 517" cx="0.748" cy="0.748" rx="0.748" ry="0.748" transform="translate(168.283 4042.598)" fill="#fff"></ellipse><ellipse id="Ellipse_518" data-name="Ellipse 518" cx="0.748" cy="0.748" rx="0.748" ry="0.748" transform="translate(170.375 4042.598)" fill="#fff"></ellipse><ellipse id="Ellipse_519" data-name="Ellipse 519" cx="0.748" cy="0.748" rx="0.748" ry="0.748" transform="translate(164.08 4044.696)" fill="#fff"></ellipse><ellipse id="Ellipse_520" data-name="Ellipse 520" cx="0.748" cy="0.748" rx="0.748" ry="0.748" transform="translate(166.172 4044.696)" fill="#fff"></ellipse><ellipse id="Ellipse_521" data-name="Ellipse 521" cx="0.748" cy="0.748" rx="0.748" ry="0.748" transform="translate(168.283 4044.696)" fill="#fff"></ellipse><ellipse id="Ellipse_522" data-name="Ellipse 522" cx="0.748" cy="0.748" rx="0.748" ry="0.748" transform="translate(170.375 4044.696)" fill="#fff"></ellipse><ellipse id="Ellipse_523" data-name="Ellipse 523" cx="0.748" cy="0.748" rx="0.748" ry="0.748" transform="translate(164.08 4046.794)" fill="#fff"></ellipse><ellipse id="Ellipse_524" data-name="Ellipse 524" cx="0.748" cy="0.748" rx="0.748" ry="0.748" transform="translate(166.172 4046.794)" fill="#fff"></ellipse><ellipse id="Ellipse_525" data-name="Ellipse 525" cx="0.748" cy="0.748" rx="0.748" ry="0.748" transform="translate(168.283 4046.794)" fill="#fff"></ellipse><ellipse id="Ellipse_526" data-name="Ellipse 526" cx="0.748" cy="0.748" rx="0.748" ry="0.748" transform="translate(170.375 4046.794)" fill="#fff"></ellipse><path id="Path_213" data-name="Path 213" d="M108.59,154.5a.748.748,0,1,1-.748-.748A.748.748,0,0,1,108.59,154.5Z" transform="translate(56.985 3895.12)" fill="#fff"></path><path id="Path_214" data-name="Path 214" d="M115.653,154.5a.748.748,0,1,1-.748-.748A.748.748,0,0,1,115.653,154.5Z" transform="translate(52.015 3895.12)" fill="#fff"></path><path id="Path_215" data-name="Path 215" d="M122.778,154.5a.748.748,0,1,1-.748-.748A.748.748,0,0,1,122.778,154.5Z" transform="translate(47 3895.12)" fill="#fff"></path><path id="Path_216" data-name="Path 216" d="M129.84,154.5a.748.748,0,1,1-.748-.748A.748.748,0,0,1,129.84,154.5Z" transform="translate(42.031 3895.12)" fill="#fff"></path><ellipse id="Ellipse_527" data-name="Ellipse 527" cx="0.748" cy="0.748" rx="0.748" ry="0.748" transform="translate(164.08 4050.989)" fill="#fff"></ellipse><ellipse id="Ellipse_528" data-name="Ellipse 528" cx="0.748" cy="0.748" rx="0.748" ry="0.748" transform="translate(166.172 4050.989)" fill="#fff"></ellipse><ellipse id="Ellipse_529" data-name="Ellipse 529" cx="0.748" cy="0.748" rx="0.748" ry="0.748" transform="translate(168.283 4050.989)" fill="#fff"></ellipse><ellipse id="Ellipse_530" data-name="Ellipse 530" cx="0.748" cy="0.748" rx="0.748" ry="0.748" transform="translate(170.375 4050.989)" fill="#fff"></ellipse><path id="Path_217" data-name="Path 217" d="M80.279,119.132a.748.748,0,1,1-.748-.748A.748.748,0,0,1,80.279,119.132Z" transform="translate(76.909 3920.011)" fill="#fff"></path><ellipse id="Ellipse_531" data-name="Ellipse 531" cx="0.748" cy="0.748" rx="0.748" ry="0.748" transform="translate(164.08 4038.395)" fill="#fff"></ellipse><ellipse id="Ellipse_532" data-name="Ellipse 532" cx="0.748" cy="0.748" rx="0.748" ry="0.748" transform="translate(166.19 4038.395)" fill="#fff"></ellipse><ellipse id="Ellipse_533" data-name="Ellipse 533" cx="0.748" cy="0.748" rx="0.748" ry="0.748" transform="translate(168.283 4038.395)" fill="#fff"></ellipse><ellipse id="Ellipse_534" data-name="Ellipse 534" cx="0.748" cy="0.748" rx="0.748" ry="0.748" transform="translate(170.376 4038.395)" fill="#fff"></ellipse><path id="Path_218" data-name="Path 218" d="M206.51,90.756a.748.748,0,1,1-.748-.748A.748.748,0,0,1,206.51,90.756Z" transform="translate(-11.926 3939.981)" fill="#fff"></path><ellipse id="Ellipse_535" data-name="Ellipse 535" cx="0.748" cy="0.748" rx="0.748" ry="0.748" transform="translate(183.135 4032.102)" fill="#fff"></ellipse><ellipse id="Ellipse_536" data-name="Ellipse 536" cx="0.748" cy="0.748" rx="0.748" ry="0.748" transform="translate(185.229 4032.102)" fill="#fff"></ellipse><ellipse id="Ellipse_537" data-name="Ellipse 537" cx="0.748" cy="0.748" rx="0.748" ry="0.748" transform="translate(187.322 4032.102)" fill="#fff"></ellipse><ellipse id="Ellipse_538" data-name="Ellipse 538" cx="0.748" cy="0.748" rx="0.748" ry="0.748" transform="translate(189.415 4032.102)" fill="#fff"></ellipse><path id="Path_219" data-name="Path 219" d="M216.1,97.889a.748.748,0,1,1-.748-.748A.748.748,0,0,1,216.1,97.889Z" transform="translate(-18.672 3934.961)" fill="#fff"></path><path id="Path_220" data-name="Path 220" d="M223.158,97.889a.748.748,0,1,1-.748-.748A.748.748,0,0,1,223.158,97.889Z" transform="translate(-23.642 3934.961)" fill="#fff"></path><path id="Path_221" data-name="Path 221" d="M230.225,97.889a.748.748,0,1,1-.748-.748A.748.748,0,0,1,230.225,97.889Z" transform="translate(-28.615 3934.961)" fill="#fff"></path><ellipse id="Ellipse_539" data-name="Ellipse 539" cx="0.748" cy="0.748" rx="0.748" ry="0.748" transform="translate(193.836 4032.102)" fill="#fff"></ellipse><ellipse id="Ellipse_540" data-name="Ellipse 540" cx="0.748" cy="0.748" rx="0.748" ry="0.748" transform="translate(182.387 4034.2)" fill="#fff"></ellipse><ellipse id="Ellipse_541" data-name="Ellipse 541" cx="0.748" cy="0.748" rx="0.748" ry="0.748" transform="translate(184.48 4034.2)" fill="#fff"></ellipse><ellipse id="Ellipse_542" data-name="Ellipse 542" cx="0.748" cy="0.748" rx="0.748" ry="0.748" transform="translate(186.574 4034.2)" fill="#fff"></ellipse><ellipse id="Ellipse_543" data-name="Ellipse 543" cx="0.748" cy="0.748" rx="0.748" ry="0.748" transform="translate(188.666 4034.2)" fill="#fff"></ellipse><ellipse id="Ellipse_544" data-name="Ellipse 544" cx="0.748" cy="0.748" rx="0.748" ry="0.748" transform="translate(196.608 4034.2)" fill="#fff"></ellipse><ellipse id="Ellipse_545" data-name="Ellipse 545" cx="0.748" cy="0.748" rx="0.748" ry="0.748" transform="translate(198.701 4034.2)" fill="#fff"></ellipse><ellipse id="Ellipse_546" data-name="Ellipse 546" cx="0.748" cy="0.748" rx="0.748" ry="0.748" transform="translate(200.794 4034.2)" fill="#fff"></ellipse><ellipse id="Ellipse_547" data-name="Ellipse 547" cx="0.748" cy="0.748" rx="0.748" ry="0.748" transform="translate(194.517 4034.2)" fill="#fff"></ellipse><path id="Path_222" data-name="Path 222" d="M168.041,112.1a.748.748,0,1,1-.748-.748A.748.748,0,0,1,168.041,112.1Z" transform="translate(15.146 3924.958)" fill="#fff"></path><path id="Path_223" data-name="Path 223" d="M175.108,112.1a.748.748,0,1,1-.748-.748A.748.748,0,0,1,175.108,112.1Z" transform="translate(10.173 3924.958)" fill="#fff"></path><ellipse id="Ellipse_548" data-name="Ellipse 548" cx="0.748" cy="0.748" rx="0.748" ry="0.748" transform="translate(185.879 4036.313)" fill="#fff"></ellipse><ellipse id="Ellipse_549" data-name="Ellipse 549" cx="0.748" cy="0.748" rx="0.748" ry="0.748" transform="translate(187.971 4036.313)" fill="#fff"></ellipse><ellipse id="Ellipse_550" data-name="Ellipse 550" cx="0.748" cy="0.748" rx="0.748" ry="0.748" transform="translate(197.315 4036.313)" fill="#fff"></ellipse><ellipse id="Ellipse_551" data-name="Ellipse 551" cx="0.748" cy="0.748" rx="0.748" ry="0.748" transform="translate(199.407 4036.313)" fill="#fff"></ellipse><ellipse id="Ellipse_552" data-name="Ellipse 552" cx="0.748" cy="0.748" rx="0.748" ry="0.748" transform="translate(201.501 4036.313)" fill="#fff"></ellipse><ellipse id="Ellipse_553" data-name="Ellipse 553" cx="0.748" cy="0.748" rx="0.748" ry="0.748" transform="translate(195.223 4036.313)" fill="#fff"></ellipse><ellipse id="Ellipse_554" data-name="Ellipse 554" cx="0.748" cy="0.748" rx="0.748" ry="0.748" transform="translate(181.023 4038.395)" fill="#fff"></ellipse><ellipse id="Ellipse_555" data-name="Ellipse 555" cx="0.748" cy="0.748" rx="0.748" ry="0.748" transform="translate(183.117 4038.395)" fill="#fff"></ellipse><ellipse id="Ellipse_556" data-name="Ellipse 556" cx="0.748" cy="0.748" rx="0.748" ry="0.748" transform="translate(185.21 4038.395)" fill="#fff"></ellipse><ellipse id="Ellipse_557" data-name="Ellipse 557" cx="0.748" cy="0.748" rx="0.748" ry="0.748" transform="translate(187.326 4038.395)" fill="#fff"></ellipse><ellipse id="Ellipse_558" data-name="Ellipse 558" cx="0.748" cy="0.748" rx="0.748" ry="0.748" transform="translate(189.434 4038.395)" fill="#fff"></ellipse><path id="Path_224" data-name="Path 224" d="M201.483,119.132a.748.748,0,1,1-.748-.748A.748.748,0,0,1,201.483,119.132Z" transform="translate(-8.388 3920.011)" fill="#fff"></path><path id="Path_225" data-name="Path 225" d="M209,119.132a.748.748,0,1,1-.748-.748A.748.748,0,0,1,209,119.132Z" transform="translate(-13.678 3920.011)" fill="#fff"></path><path id="Path_226" data-name="Path 226" d="M216.062,119.132a.748.748,0,1,1-.748-.748A.748.748,0,0,1,216.062,119.132Z" transform="translate(-18.648 3920.011)" fill="#fff"></path><path id="Path_227" data-name="Path 227" d="M223.187,119.132a.748.748,0,1,1-.748-.748A.748.748,0,0,1,223.187,119.132Z" transform="translate(-23.662 3920.011)" fill="#fff"></path><path id="Path_228" data-name="Path 228" d="M230.249,119.132a.748.748,0,1,1-.748-.748A.748.748,0,0,1,230.249,119.132Z" transform="translate(-28.632 3920.011)" fill="#fff"></path><path id="Path_229" data-name="Path 229" d="M237.316,119.132a.748.748,0,1,1-.748-.748A.748.748,0,0,1,237.316,119.132Z" transform="translate(-33.605 3920.011)" fill="#fff"></path><path id="Path_230" data-name="Path 230" d="M163.258,126.181a.748.748,0,1,1-.748-.748A.748.748,0,0,1,163.258,126.181Z" transform="translate(18.513 3915.05)" fill="#fff"></path><ellipse id="Ellipse_559" data-name="Ellipse 559" cx="0.748" cy="0.748" rx="0.748" ry="0.748" transform="translate(182.368 4040.483)" fill="#fff"></ellipse><ellipse id="Ellipse_560" data-name="Ellipse 560" cx="0.748" cy="0.748" rx="0.748" ry="0.748" transform="translate(184.462 4040.483)" fill="#fff"></ellipse><ellipse id="Ellipse_561" data-name="Ellipse 561" cx="0.748" cy="0.748" rx="0.748" ry="0.748" transform="translate(186.578 4040.483)" fill="#fff"></ellipse><ellipse id="Ellipse_562" data-name="Ellipse 562" cx="0.748" cy="0.748" rx="0.748" ry="0.748" transform="translate(188.686 4040.483)" fill="#fff"></ellipse><path id="Path_231" data-name="Path 231" d="M204.791,126.181a.748.748,0,1,1-.748-.748A.748.748,0,0,1,204.791,126.181Z" transform="translate(-10.716 3915.05)" fill="#fff"></path><path id="Path_232" data-name="Path 232" d="M198.162,126.181a.748.748,0,1,1-.748-.748A.748.748,0,0,1,198.162,126.181Z" transform="translate(-6.051 3915.05)" fill="#fff"></path><path id="Path_233" data-name="Path 233" d="M211.525,126.181a.748.748,0,1,1-.748-.748A.748.748,0,0,1,211.525,126.181Z" transform="translate(-15.455 3915.05)" fill="#fff"></path><ellipse id="Ellipse_563" data-name="Ellipse 563" cx="0.748" cy="0.748" rx="0.748" ry="0.748" transform="translate(196.598 4040.483)" fill="#fff"></ellipse><ellipse id="Ellipse_564" data-name="Ellipse 564" cx="0.748" cy="0.748" rx="0.748" ry="0.748" transform="translate(198.709 4040.483)" fill="#fff"></ellipse><ellipse id="Ellipse_565" data-name="Ellipse 565" cx="0.748" cy="0.748" rx="0.748" ry="0.748" transform="translate(200.801 4040.483)" fill="#fff"></ellipse><ellipse id="Ellipse_566" data-name="Ellipse 566" cx="0.748" cy="0.748" rx="0.748" ry="0.748" transform="translate(202.895 4040.483)" fill="#fff"></ellipse><ellipse id="Ellipse_567" data-name="Ellipse 567" cx="0.748" cy="0.748" rx="0.748" ry="0.748" transform="translate(179.584 4042.589)" fill="#fff"></ellipse><ellipse id="Ellipse_568" data-name="Ellipse 568" cx="0.748" cy="0.748" rx="0.748" ry="0.748" transform="translate(181.678 4042.589)" fill="#fff"></ellipse><ellipse id="Ellipse_569" data-name="Ellipse 569" cx="0.748" cy="0.748" rx="0.748" ry="0.748" transform="translate(183.771 4042.589)" fill="#fff"></ellipse><ellipse id="Ellipse_570" data-name="Ellipse 570" cx="0.748" cy="0.748" rx="0.748" ry="0.748" transform="translate(185.865 4042.589)" fill="#fff"></ellipse><ellipse id="Ellipse_571" data-name="Ellipse 571" cx="0.748" cy="0.748" rx="0.748" ry="0.748" transform="translate(187.938 4042.589)" fill="#fff"></ellipse><ellipse id="Ellipse_572" data-name="Ellipse 572" cx="0.748" cy="0.748" rx="0.748" ry="0.748" transform="translate(189.778 4042.604)" fill="#fff"></ellipse><ellipse id="Ellipse_573" data-name="Ellipse 573" cx="0.748" cy="0.748" rx="0.748" ry="0.748" transform="translate(193.417 4042.589)" fill="#fff"></ellipse><ellipse id="Ellipse_574" data-name="Ellipse 574" cx="0.748" cy="0.748" rx="0.748" ry="0.748" transform="translate(195.392 4042.589)" fill="#fff"></ellipse><path id="Path_234" data-name="Path 234" d="M220.85,133.288a.748.748,0,1,1-.748-.748A.748.748,0,0,1,220.85,133.288Z" transform="translate(-22.018 3910.049)" fill="#fff"></path><path id="Path_235" data-name="Path 235" d="M227.975,133.288a.748.748,0,1,1-.748-.748A.748.748,0,0,1,227.975,133.288Z" transform="translate(-27.032 3910.049)" fill="#fff"></path><path id="Path_236" data-name="Path 236" d="M235.038,133.288a.748.748,0,1,1-.748-.748A.748.748,0,0,1,235.038,133.288Z" transform="translate(-32.002 3910.049)" fill="#fff"></path><ellipse id="Ellipse_575" data-name="Ellipse 575" cx="0.748" cy="0.748" rx="0.748" ry="0.748" transform="translate(203.633 4042.589)" fill="#fff"></ellipse><ellipse id="Ellipse_576" data-name="Ellipse 576" cx="0.748" cy="0.748" rx="0.748" ry="0.748" transform="translate(178.9 4044.696)" fill="#fff"></ellipse><ellipse id="Ellipse_577" data-name="Ellipse 577" cx="0.748" cy="0.748" rx="0.748" ry="0.748" transform="translate(180.992 4044.696)" fill="#fff"></ellipse><ellipse id="Ellipse_578" data-name="Ellipse 578" cx="0.748" cy="0.748" rx="0.748" ry="0.748" transform="translate(183.086 4044.696)" fill="#fff"></ellipse><ellipse id="Ellipse_579" data-name="Ellipse 579" cx="0.748" cy="0.748" rx="0.748" ry="0.748" transform="translate(185.18 4044.696)" fill="#fff"></ellipse><ellipse id="Ellipse_580" data-name="Ellipse 580" cx="0.748" cy="0.748" rx="0.748" ry="0.748" transform="translate(187.273 4044.696)" fill="#fff"></ellipse><ellipse id="Ellipse_581" data-name="Ellipse 581" cx="0.748" cy="0.748" rx="0.748" ry="0.748" transform="translate(189.434 4044.696)" fill="#fff"></ellipse><path id="Path_237" data-name="Path 237" d="M201.483,140.4a.748.748,0,1,1-.748-.748A.748.748,0,0,1,201.483,140.4Z" transform="translate(-8.388 3905.043)" fill="#fff"></path><path id="Path_238" data-name="Path 238" d="M201.483,133.4a.748.748,0,1,1-.748-.748A.748.748,0,0,1,201.483,133.4Z" transform="translate(-8.388 3909.969)" fill="#fff"></path><path id="Path_239" data-name="Path 239" d="M209.029,140.4a.748.748,0,1,1-.748-.748A.748.748,0,0,1,209.029,140.4Z" transform="translate(-13.699 3905.043)" fill="#fff"></path><path id="Path_240" data-name="Path 240" d="M216.1,140.4a.748.748,0,1,1-.748-.748A.748.748,0,0,1,216.1,140.4Z" transform="translate(-18.672 3905.043)" fill="#fff"></path><path id="Path_241" data-name="Path 241" d="M223.158,140.4a.748.748,0,1,1-.748-.748A.748.748,0,0,1,223.158,140.4Z" transform="translate(-23.642 3905.043)" fill="#fff"></path><path id="Path_242" data-name="Path 242" d="M230.283,140.4a.748.748,0,1,1-.748-.748A.748.748,0,0,1,230.283,140.4Z" transform="translate(-28.656 3905.043)" fill="#fff"></path><path id="Path_243" data-name="Path 243" d="M237.346,140.4a.748.748,0,1,1-.748-.748A.748.748,0,0,1,237.346,140.4Z" transform="translate(-33.627 3905.043)" fill="#fff"></path><path id="Path_244" data-name="Path 244" d="M244.413,140.4a.748.748,0,1,1-.748-.748A.748.748,0,0,1,244.413,140.4Z" transform="translate(-38.6 3905.043)" fill="#fff"></path><path id="Path_245" data-name="Path 245" d="M156.125,147.431a.748.748,0,1,1-.748-.748A.748.748,0,0,1,156.125,147.431Z" transform="translate(23.533 3900.096)" fill="#fff"></path><ellipse id="Ellipse_582" data-name="Ellipse 582" cx="0.748" cy="0.748" rx="0.748" ry="0.748" transform="translate(180.255 4046.778)" fill="#fff"></ellipse><ellipse id="Ellipse_583" data-name="Ellipse 583" cx="0.748" cy="0.748" rx="0.748" ry="0.748" transform="translate(182.349 4046.778)" fill="#fff"></ellipse><ellipse id="Ellipse_584" data-name="Ellipse 584" cx="0.748" cy="0.748" rx="0.748" ry="0.748" transform="translate(184.465 4046.778)" fill="#fff"></ellipse><ellipse id="Ellipse_585" data-name="Ellipse 585" cx="0.748" cy="0.748" rx="0.748" ry="0.748" transform="translate(177.471 4048.884)" fill="#fff"></ellipse><ellipse id="Ellipse_586" data-name="Ellipse 586" cx="0.748" cy="0.748" rx="0.748" ry="0.748" transform="translate(179.565 4048.884)" fill="#fff"></ellipse><ellipse id="Ellipse_587" data-name="Ellipse 587" cx="0.748" cy="0.748" rx="0.748" ry="0.748" transform="translate(181.658 4048.884)" fill="#fff"></ellipse><ellipse id="Ellipse_588" data-name="Ellipse 588" cx="0.748" cy="0.748" rx="0.748" ry="0.748" transform="translate(183.752 4048.884)" fill="#fff"></ellipse><ellipse id="Ellipse_589" data-name="Ellipse 589" cx="0.748" cy="0.748" rx="0.748" ry="0.748" transform="translate(176.725 4050.991)" fill="#fff"></ellipse><ellipse id="Ellipse_590" data-name="Ellipse 590" cx="0.748" cy="0.748" rx="0.748" ry="0.748" transform="translate(178.816 4050.991)" fill="#fff"></ellipse><ellipse id="Ellipse_591" data-name="Ellipse 591" cx="0.748" cy="0.748" rx="0.748" ry="0.748" transform="translate(180.91 4050.991)" fill="#fff"></ellipse><ellipse id="Ellipse_592" data-name="Ellipse 592" cx="0.748" cy="0.748" rx="0.748" ry="0.748" transform="translate(183.004 4050.991)" fill="#fff"></ellipse><path id="Path_246" data-name="Path 246" d="M245.4,147.506a.748.748,0,1,0,.748-.748A.748.748,0,0,0,245.4,147.506Z" transform="translate(-40.349 3900.043)" fill="#fff"></path><path id="Path_247" data-name="Path 247" d="M238.335,147.506a.748.748,0,1,0,.748-.748A.748.748,0,0,0,238.335,147.506Z" transform="translate(-35.375 3900.043)" fill="#fff"></path><path id="Path_248" data-name="Path 248" d="M231.269,147.506a.748.748,0,1,0,.748-.748A.748.748,0,0,0,231.269,147.506Z" transform="translate(-30.403 3900.043)" fill="#fff"></path><ellipse id="Ellipse_593" data-name="Ellipse 593" cx="0.748" cy="0.748" rx="0.748" ry="0.748" transform="translate(198.768 4046.778)" fill="#fff"></ellipse><ellipse id="Ellipse_594" data-name="Ellipse 594" cx="0.748" cy="0.748" rx="0.748" ry="0.748" transform="translate(205.789 4048.906)" fill="#fff"></ellipse><ellipse id="Ellipse_595" data-name="Ellipse 595" cx="0.748" cy="0.748" rx="0.748" ry="0.748" transform="translate(203.695 4048.906)" fill="#fff"></ellipse><ellipse id="Ellipse_596" data-name="Ellipse 596" cx="0.748" cy="0.748" rx="0.748" ry="0.748" transform="translate(201.601 4048.906)" fill="#fff"></ellipse><ellipse id="Ellipse_597" data-name="Ellipse 597" cx="0.748" cy="0.748" rx="0.748" ry="0.748" transform="translate(199.508 4048.906)" fill="#fff"></ellipse><path id="Path_249" data-name="Path 249" d="M250.194,161.727a.748.748,0,1,0,.748-.748A.748.748,0,0,0,250.194,161.727Z" transform="translate(-43.721 3890.035)" fill="#fff"></path><path id="Path_250" data-name="Path 250" d="M243.132,161.727a.748.748,0,1,0,.748-.748A.748.748,0,0,0,243.132,161.727Z" transform="translate(-38.751 3890.035)" fill="#fff"></path><path id="Path_251" data-name="Path 251" d="M236.065,161.727a.748.748,0,1,0,.748-.748A.748.748,0,0,0,236.065,161.727Z" transform="translate(-33.778 3890.035)" fill="#fff"></path><path id="Path_252" data-name="Path 252" d="M229,161.727a.748.748,0,1,0,.748-.748A.748.748,0,0,0,229,161.727Z" transform="translate(-28.805 3890.035)" fill="#fff"></path><path id="Path_253" data-name="Path 253" d="M312.692,90.735a.748.748,0,1,1-.748-.748A.749.749,0,0,1,312.692,90.735Z" transform="translate(-86.652 3939.996)" fill="#fff"></path><path id="Path_254" data-name="Path 254" d="M319.754,90.735a.748.748,0,1,1-.748-.748A.748.748,0,0,1,319.754,90.735Z" transform="translate(-91.622 3939.996)" fill="#fff"></path><path id="Path_255" data-name="Path 255" d="M326.879,90.735a.748.748,0,1,1-.748-.748A.748.748,0,0,1,326.879,90.735Z" transform="translate(-96.636 3939.996)" fill="#fff"></path><path id="Path_256" data-name="Path 256" d="M333.942,90.735a.748.748,0,1,1-.748-.748A.749.749,0,0,1,333.942,90.735Z" transform="translate(-101.606 3939.996)" fill="#fff"></path><ellipse id="Ellipse_598" data-name="Ellipse 598" cx="0.748" cy="0.748" rx="0.748" ry="0.748" transform="translate(212.265 4050.989)" fill="#fff"></ellipse><ellipse id="Ellipse_599" data-name="Ellipse 599" cx="0.748" cy="0.748" rx="0.748" ry="0.748" transform="translate(213.279 4048.897)" fill="#fff"></ellipse><path id="Path_257" data-name="Path 257" d="M277.385,146.709a.748.748,0,1,1-.748.748A.748.748,0,0,1,277.385,146.709Z" transform="translate(-62.331 3900.077)" fill="#fff"></path><ellipse id="Ellipse_600" data-name="Ellipse 600" cx="0.748" cy="0.748" rx="0.748" ry="0.748" transform="translate(215.316 4044.694)" fill="#fff"></ellipse><path id="Path_258" data-name="Path 258" d="M304.84,90.023a.748.748,0,1,1-.748.748A.748.748,0,0,1,304.84,90.023Z" transform="translate(-81.652 3939.97)" fill="#fff"></path><path id="Path_259" data-name="Path 259" d="M305.858,104.926a.748.748,0,1,1-.749-.748A.749.749,0,0,1,305.858,104.926Z" transform="translate(-81.841 3930.009)" fill="#fff"></path><path id="Path_260" data-name="Path 260" d="M312.92,104.926a.748.748,0,1,1-.748-.748A.748.748,0,0,1,312.92,104.926Z" transform="translate(-86.812 3930.009)" fill="#fff"></path><path id="Path_261" data-name="Path 261" d="M320.045,104.926a.748.748,0,1,1-.748-.748A.748.748,0,0,1,320.045,104.926Z" transform="translate(-91.826 3930.009)" fill="#fff"></path><path id="Path_262" data-name="Path 262" d="M327.108,104.926a.748.748,0,1,1-.749-.748A.749.749,0,0,1,327.108,104.926Z" transform="translate(-96.796 3930.009)" fill="#fff"></path><ellipse id="Ellipse_601" data-name="Ellipse 601" cx="0.748" cy="0.748" rx="0.748" ry="0.748" transform="translate(220.416 4034.197)" fill="#fff"></ellipse><path id="Path_263" data-name="Path 263" d="M302.483,112.013a.748.748,0,1,1-.749-.748A.748.748,0,0,1,302.483,112.013Z" transform="translate(-79.466 3925.021)" fill="#fff"></path><path id="Path_264" data-name="Path 264" d="M309.545,112.013a.748.748,0,1,1-.748-.748A.748.748,0,0,1,309.545,112.013Z" transform="translate(-84.436 3925.021)" fill="#fff"></path><path id="Path_265" data-name="Path 265" d="M316.67,112.013a.748.748,0,1,1-.748-.748A.748.748,0,0,1,316.67,112.013Z" transform="translate(-89.45 3925.021)" fill="#fff"></path><path id="Path_266" data-name="Path 266" d="M323.733,112.013a.748.748,0,1,1-.749-.748A.748.748,0,0,1,323.733,112.013Z" transform="translate(-94.421 3925.021)" fill="#fff"></path><ellipse id="Ellipse_602" data-name="Ellipse 602" cx="0.748" cy="0.748" rx="0.748" ry="0.748" transform="translate(219.416 4036.297)" fill="#fff"></ellipse><path id="Path_267" data-name="Path 267" d="M299.025,119.1a.748.748,0,1,1-.748-.748A.748.748,0,0,1,299.025,119.1Z" transform="translate(-77.033 3920.034)" fill="#fff"></path><path id="Path_268" data-name="Path 268" d="M306.087,119.1a.748.748,0,1,1-.748-.748A.748.748,0,0,1,306.087,119.1Z" transform="translate(-82.003 3920.034)" fill="#fff"></path><path id="Path_269" data-name="Path 269" d="M313.212,119.1a.748.748,0,1,1-.748-.748A.748.748,0,0,1,313.212,119.1Z" transform="translate(-87.018 3920.034)" fill="#fff"></path><path id="Path_270" data-name="Path 270" d="M320.275,119.1a.748.748,0,1,1-.748-.748A.748.748,0,0,1,320.275,119.1Z" transform="translate(-91.988 3920.034)" fill="#fff"></path><path id="Path_271" data-name="Path 271" d="M291.173,118.388a.748.748,0,1,1-.748.748A.748.748,0,0,1,291.173,118.388Z" transform="translate(-72.034 3920.008)" fill="#fff"></path><path id="Path_272" data-name="Path 272" d="M295.53,126.186a.748.748,0,1,1-.748-.748A.748.748,0,0,1,295.53,126.186Z" transform="translate(-74.574 3915.047)" fill="#fff"></path><path id="Path_273" data-name="Path 273" d="M302.592,126.186a.748.748,0,1,1-.748-.748A.748.748,0,0,1,302.592,126.186Z" transform="translate(-79.544 3915.047)" fill="#fff"></path><path id="Path_274" data-name="Path 274" d="M309.717,126.186a.748.748,0,1,1-.748-.748A.748.748,0,0,1,309.717,126.186Z" transform="translate(-84.558 3915.047)" fill="#fff"></path><path id="Path_275" data-name="Path 275" d="M316.78,126.186a.748.748,0,1,1-.748-.748A.748.748,0,0,1,316.78,126.186Z" transform="translate(-89.528 3915.047)" fill="#fff"></path><ellipse id="Ellipse_603" data-name="Ellipse 603" cx="0.748" cy="0.748" rx="0.748" ry="0.748" transform="translate(217.355 4040.496)" fill="#fff"></ellipse><ellipse id="Ellipse_604" data-name="Ellipse 604" cx="0.748" cy="0.748" rx="0.748" ry="0.748" transform="translate(218.443 4042.584)" fill="#fff"></ellipse><ellipse id="Ellipse_605" data-name="Ellipse 605" cx="0.748" cy="0.748" rx="0.748" ry="0.748" transform="translate(220.535 4042.584)" fill="#fff"></ellipse><ellipse id="Ellipse_606" data-name="Ellipse 606" cx="0.748" cy="0.748" rx="0.748" ry="0.748" transform="translate(222.646 4042.584)" fill="#fff"></ellipse><ellipse id="Ellipse_607" data-name="Ellipse 607" cx="0.748" cy="0.748" rx="0.748" ry="0.748" transform="translate(224.738 4042.584)" fill="#fff"></ellipse><ellipse id="Ellipse_608" data-name="Ellipse 608" cx="0.748" cy="0.748" rx="0.748" ry="0.748" transform="translate(216.338 4042.595)" fill="#fff"></ellipse><path id="Path_276" data-name="Path 276" d="M309.276,97.84a.748.748,0,1,1-.748-.748A.748.748,0,0,1,309.276,97.84Z" transform="translate(-84.248 3934.996)" fill="#fff"></path><path id="Path_277" data-name="Path 277" d="M316.338,97.84a.748.748,0,1,1-.748-.748A.748.748,0,0,1,316.338,97.84Z" transform="translate(-89.217 3934.996)" fill="#fff"></path><path id="Path_278" data-name="Path 278" d="M323.463,97.84a.748.748,0,1,1-.748-.748A.748.748,0,0,1,323.463,97.84Z" transform="translate(-94.232 3934.996)" fill="#fff"></path><path id="Path_279" data-name="Path 279" d="M330.526,97.84a.748.748,0,1,1-.748-.748A.748.748,0,0,1,330.526,97.84Z" transform="translate(-99.202 3934.996)" fill="#fff"></path><ellipse id="Ellipse_609" data-name="Ellipse 609" cx="0.748" cy="0.748" rx="0.748" ry="0.748" transform="translate(221.428 4032.098)" fill="#fff"></ellipse><ellipse id="Ellipse_610" data-name="Ellipse 610" cx="0.748" cy="0.748" rx="0.748" ry="0.748" transform="translate(214.369 4050.979)" fill="#fff"></ellipse><ellipse id="Ellipse_611" data-name="Ellipse 611" cx="0.748" cy="0.748" rx="0.748" ry="0.748" transform="translate(215.383 4048.886)" fill="#fff"></ellipse><ellipse id="Ellipse_612" data-name="Ellipse 612" cx="0.748" cy="0.748" rx="0.748" ry="0.748" transform="translate(216.411 4046.775)" fill="#fff"></ellipse><ellipse id="Ellipse_613" data-name="Ellipse 613" cx="0.748" cy="0.748" rx="0.748" ry="0.748" transform="translate(217.42 4044.684)" fill="#fff"></ellipse><ellipse id="Ellipse_614" data-name="Ellipse 614" cx="0.748" cy="0.748" rx="0.748" ry="0.748" transform="translate(218.443 4042.584)" fill="#fff"></ellipse><ellipse id="Ellipse_615" data-name="Ellipse 615" cx="0.748" cy="0.748" rx="0.748" ry="0.748" transform="translate(216.461 4050.979)" fill="#fff"></ellipse><ellipse id="Ellipse_616" data-name="Ellipse 616" cx="0.748" cy="0.748" rx="0.748" ry="0.748" transform="translate(217.475 4048.886)" fill="#fff"></ellipse><ellipse id="Ellipse_617" data-name="Ellipse 617" cx="0.748" cy="0.748" rx="0.748" ry="0.748" transform="translate(218.503 4046.775)" fill="#fff"></ellipse><ellipse id="Ellipse_618" data-name="Ellipse 618" cx="0.748" cy="0.748" rx="0.748" ry="0.748" transform="translate(219.513 4044.684)" fill="#fff"></ellipse><ellipse id="Ellipse_619" data-name="Ellipse 619" cx="0.748" cy="0.748" rx="0.748" ry="0.748" transform="translate(220.535 4042.584)" fill="#fff"></ellipse><ellipse id="Ellipse_620" data-name="Ellipse 620" cx="0.748" cy="0.748" rx="0.748" ry="0.748" transform="translate(218.572 4050.979)" fill="#fff"></ellipse><ellipse id="Ellipse_621" data-name="Ellipse 621" cx="0.748" cy="0.748" rx="0.748" ry="0.748" transform="translate(219.586 4048.886)" fill="#fff"></ellipse><ellipse id="Ellipse_622" data-name="Ellipse 622" cx="0.748" cy="0.748" rx="0.748" ry="0.748" transform="translate(220.613 4046.775)" fill="#fff"></ellipse><ellipse id="Ellipse_623" data-name="Ellipse 623" cx="0.748" cy="0.748" rx="0.748" ry="0.748" transform="translate(221.623 4044.684)" fill="#fff"></ellipse><ellipse id="Ellipse_624" data-name="Ellipse 624" cx="0.748" cy="0.748" rx="0.748" ry="0.748" transform="translate(222.646 4042.584)" fill="#fff"></ellipse><ellipse id="Ellipse_625" data-name="Ellipse 625" cx="0.748" cy="0.748" rx="0.748" ry="0.748" transform="translate(220.665 4050.983)" fill="#fff"></ellipse><ellipse id="Ellipse_626" data-name="Ellipse 626" cx="0.748" cy="0.748" rx="0.748" ry="0.748" transform="translate(221.678 4048.891)" fill="#fff"></ellipse><ellipse id="Ellipse_627" data-name="Ellipse 627" cx="0.748" cy="0.748" rx="0.748" ry="0.748" transform="translate(222.706 4046.78)" fill="#fff"></ellipse><ellipse id="Ellipse_628" data-name="Ellipse 628" cx="0.748" cy="0.748" rx="0.748" ry="0.748" transform="translate(223.715 4044.688)" fill="#fff"></ellipse><ellipse id="Ellipse_629" data-name="Ellipse 629" cx="0.748" cy="0.748" rx="0.748" ry="0.748" transform="translate(222.75 4050.983)" fill="#fff"></ellipse><ellipse id="Ellipse_630" data-name="Ellipse 630" cx="0.748" cy="0.748" rx="0.748" ry="0.748" transform="translate(223.764 4048.891)" fill="#fff"></ellipse><path id="Path_280" data-name="Path 280" d="M312.777,146.688a.748.748,0,1,1-.748.748A.748.748,0,0,1,312.777,146.688Z" transform="translate(-87.238 3900.092)" fill="#fff"></path><path id="Path_281" data-name="Path 281" d="M316.185,139.626a.748.748,0,1,1-.748.748A.748.748,0,0,1,316.185,139.626Z" transform="translate(-89.636 3905.062)" fill="#fff"></path><ellipse id="Ellipse_631" data-name="Ellipse 631" cx="0.748" cy="0.748" rx="0.748" ry="0.748" transform="translate(224.827 4050.983)" fill="#fff"></ellipse><ellipse id="Ellipse_632" data-name="Ellipse 632" cx="0.748" cy="0.748" rx="0.748" ry="0.748" transform="translate(225.841 4048.891)" fill="#fff"></ellipse><path id="Path_282" data-name="Path 282" d="M319.79,146.688a.748.748,0,1,1-.748.748A.748.748,0,0,1,319.79,146.688Z" transform="translate(-92.173 3900.092)" fill="#fff"></path><path id="Path_283" data-name="Path 283" d="M323.2,139.626a.748.748,0,1,1-.748.748A.748.748,0,0,1,323.2,139.626Z" transform="translate(-94.572 3905.062)" fill="#fff"></path><path id="Path_284" data-name="Path 284" d="M319.964,160.876a.748.748,0,1,1-.748.748A.748.748,0,0,1,319.964,160.876Z" transform="translate(-92.296 3890.107)" fill="#fff"></path><ellipse id="Ellipse_633" data-name="Ellipse 633" cx="0.748" cy="0.748" rx="0.748" ry="0.748" transform="translate(227.934 4048.891)" fill="#fff"></ellipse><ellipse id="Ellipse_634" data-name="Ellipse 634" cx="0.748" cy="0.748" rx="0.748" ry="0.748" transform="translate(228.962 4046.78)" fill="#fff"></ellipse><ellipse id="Ellipse_635" data-name="Ellipse 635" cx="0.748" cy="0.748" rx="0.748" ry="0.748" transform="translate(229.972 4044.688)" fill="#fff"></ellipse><ellipse id="Ellipse_636" data-name="Ellipse 636" cx="0.748" cy="0.748" rx="0.748" ry="0.748" transform="translate(229.006 4050.983)" fill="#fff"></ellipse><ellipse id="Ellipse_637" data-name="Ellipse 637" cx="0.748" cy="0.748" rx="0.748" ry="0.748" transform="translate(230.001 4048.891)" fill="#fff"></ellipse><ellipse id="Ellipse_638" data-name="Ellipse 638" cx="0.748" cy="0.748" rx="0.748" ry="0.748" transform="translate(230.782 4046.78)" fill="#fff"></ellipse><ellipse id="Ellipse_639" data-name="Ellipse 639" cx="0.748" cy="0.748" rx="0.748" ry="0.748" transform="translate(232.057 4044.688)" fill="#fff"></ellipse><ellipse id="Ellipse_640" data-name="Ellipse 640" cx="0.748" cy="0.748" rx="0.748" ry="0.748" transform="translate(230.816 4050.983)" fill="#fff"></ellipse><path id="Path_285" data-name="Path 285" d="M337.435,153.813a.748.748,0,1,1-.748.748A.748.748,0,0,1,337.435,153.813Z" transform="translate(-104.591 3895.078)" fill="#fff"></path><ellipse id="Ellipse_641" data-name="Ellipse 641" cx="0.748" cy="0.748" rx="0.748" ry="0.748" transform="translate(232.603 4046.78)" fill="#fff"></ellipse><ellipse id="Ellipse_642" data-name="Ellipse 642" cx="0.748" cy="0.748" rx="0.748" ry="0.748" transform="translate(234.152 4044.688)" fill="#fff"></ellipse><ellipse id="Ellipse_643" data-name="Ellipse 643" cx="0.748" cy="0.748" rx="0.748" ry="0.748" transform="translate(232.625 4050.983)" fill="#fff"></ellipse><path id="Path_286" data-name="Path 286" d="M345.29,146.688a.748.748,0,1,1-.748.748A.748.748,0,0,1,345.29,146.688Z" transform="translate(-110.119 3900.092)" fill="#fff"></path><ellipse id="Ellipse_644" data-name="Ellipse 644" cx="0.748" cy="0.748" rx="0.748" ry="0.748" transform="translate(236.243 4044.688)" fill="#fff"></ellipse><path id="Path_287" data-name="Path 287" d="M325.312,90.771a.748.748,0,1,1,.748.748A.749.749,0,0,1,325.312,90.771Z" transform="translate(-96.586 3939.97)" fill="#fff"></path><path id="Path_288" data-name="Path 288" d="M318.25,90.771a.748.748,0,1,1,.748.748A.748.748,0,0,1,318.25,90.771Z" transform="translate(-91.616 3939.97)" fill="#fff"></path><path id="Path_289" data-name="Path 289" d="M311.125,90.771a.748.748,0,1,1,.748.748A.748.748,0,0,1,311.125,90.771Z" transform="translate(-86.602 3939.97)" fill="#fff"></path><ellipse id="Ellipse_645" data-name="Ellipse 645" cx="0.748" cy="0.748" rx="0.748" ry="0.748" transform="translate(236.243 4044.688)" fill="#fff"></ellipse><ellipse id="Ellipse_646" data-name="Ellipse 646" cx="0.748" cy="0.748" rx="0.748" ry="0.748" transform="translate(236.243 4046.78)" fill="#fff"></ellipse><ellipse id="Ellipse_647" data-name="Ellipse 647" cx="0.748" cy="0.748" rx="0.748" ry="0.748" transform="translate(236.243 4048.891)" fill="#fff"></ellipse><ellipse id="Ellipse_648" data-name="Ellipse 648" cx="0.748" cy="0.748" rx="0.748" ry="0.748" transform="translate(236.243 4050.983)" fill="#fff"></ellipse><ellipse id="Ellipse_649" data-name="Ellipse 649" cx="0.748" cy="0.748" rx="0.748" ry="0.748" transform="translate(234.154 4048.891)" fill="#fff"></ellipse><path id="Path_290" data-name="Path 290" d="M345.352,162.35a.748.748,0,1,1,.748-.748A.748.748,0,0,1,345.352,162.35Z" transform="translate(-110.163 3890.123)" fill="#fff"></path><ellipse id="Ellipse_650" data-name="Ellipse 650" cx="0.748" cy="0.748" rx="0.748" ry="0.748" transform="translate(234.908 4021.588)" fill="#fff"></ellipse><ellipse id="Ellipse_651" data-name="Ellipse 651" cx="0.748" cy="0.748" rx="0.748" ry="0.748" transform="translate(233.895 4023.681)" fill="#fff"></ellipse><ellipse id="Ellipse_652" data-name="Ellipse 652" cx="0.748" cy="0.748" rx="0.748" ry="0.748" transform="translate(232.867 4025.792)" fill="#fff"></ellipse><ellipse id="Ellipse_653" data-name="Ellipse 653" cx="0.748" cy="0.748" rx="0.748" ry="0.748" transform="translate(231.857 4027.884)" fill="#fff"></ellipse><ellipse id="Ellipse_654" data-name="Ellipse 654" cx="0.748" cy="0.748" rx="0.748" ry="0.748" transform="translate(228.73 4029.993)" fill="#fff"></ellipse><ellipse id="Ellipse_655" data-name="Ellipse 655" cx="0.748" cy="0.748" rx="0.748" ry="0.748" transform="translate(226.638 4029.993)" fill="#fff"></ellipse><ellipse id="Ellipse_656" data-name="Ellipse 656" cx="0.748" cy="0.748" rx="0.748" ry="0.748" transform="translate(224.527 4029.993)" fill="#fff"></ellipse><ellipse id="Ellipse_657" data-name="Ellipse 657" cx="0.748" cy="0.748" rx="0.748" ry="0.748" transform="translate(232.804 4021.599)" fill="#fff"></ellipse><ellipse id="Ellipse_658" data-name="Ellipse 658" cx="0.748" cy="0.748" rx="0.748" ry="0.748" transform="translate(231.695 4025.079) rotate(-82.16)" fill="#fff"></ellipse><ellipse id="Ellipse_659" data-name="Ellipse 659" cx="0.748" cy="0.748" rx="0.748" ry="0.748" transform="translate(230.763 4025.802)" fill="#fff"></ellipse><ellipse id="Ellipse_660" data-name="Ellipse 660" cx="0.748" cy="0.748" rx="0.748" ry="0.748" transform="translate(229.753 4027.895)" fill="#fff"></ellipse><ellipse id="Ellipse_661" data-name="Ellipse 661" cx="0.748" cy="0.748" rx="0.748" ry="0.748" transform="translate(230.712 4021.599)" fill="#fff"></ellipse><ellipse id="Ellipse_662" data-name="Ellipse 662" cx="0.748" cy="0.748" rx="0.748" ry="0.748" transform="translate(229.698 4023.691)" fill="#fff"></ellipse><ellipse id="Ellipse_663" data-name="Ellipse 663" cx="0.748" cy="0.748" rx="0.748" ry="0.748" transform="translate(228.67 4025.802)" fill="#fff"></ellipse><ellipse id="Ellipse_664" data-name="Ellipse 664" cx="0.748" cy="0.748" rx="0.748" ry="0.748" transform="translate(227.661 4027.895)" fill="#fff"></ellipse><ellipse id="Ellipse_665" data-name="Ellipse 665" cx="0.748" cy="0.748" rx="0.748" ry="0.748" transform="translate(228.601 4021.599)" fill="#fff"></ellipse><ellipse id="Ellipse_666" data-name="Ellipse 666" cx="0.748" cy="0.748" rx="0.748" ry="0.748" transform="translate(227.587 4023.691)" fill="#fff"></ellipse><ellipse id="Ellipse_667" data-name="Ellipse 667" cx="0.748" cy="0.748" rx="0.748" ry="0.748" transform="translate(226.56 4025.802)" fill="#fff"></ellipse><ellipse id="Ellipse_668" data-name="Ellipse 668" cx="0.748" cy="0.748" rx="0.748" ry="0.748" transform="translate(225.55 4027.895)" fill="#fff"></ellipse><ellipse id="Ellipse_669" data-name="Ellipse 669" cx="0.748" cy="0.748" rx="0.748" ry="0.748" transform="translate(226.509 4021.594)" fill="#fff"></ellipse><circle id="Ellipse_670" data-name="Ellipse 670" cx="0.748" cy="0.748" r="0.748" transform="translate(225.404 4025.08) rotate(-82.54)" fill="#fff"></circle><ellipse id="Ellipse_671" data-name="Ellipse 671" cx="0.748" cy="0.748" rx="0.748" ry="0.748" transform="translate(224.467 4025.797)" fill="#fff"></ellipse><ellipse id="Ellipse_672" data-name="Ellipse 672" cx="0.748" cy="0.748" rx="0.748" ry="0.748" transform="translate(223.458 4027.89)" fill="#fff"></ellipse><ellipse id="Ellipse_673" data-name="Ellipse 673" cx="0.748" cy="0.748" rx="0.748" ry="0.748" transform="translate(224.423 4021.594)" fill="#fff"></ellipse><ellipse id="Ellipse_674" data-name="Ellipse 674" cx="0.748" cy="0.748" rx="0.748" ry="0.748" transform="translate(223.32 4025.082) rotate(-82.67)" fill="#fff"></ellipse><ellipse id="Ellipse_675" data-name="Ellipse 675" cx="0.748" cy="0.748" rx="0.748" ry="0.748" transform="translate(222.382 4025.797)" fill="#fff"></ellipse><ellipse id="Ellipse_676" data-name="Ellipse 676" cx="0.748" cy="0.748" rx="0.748" ry="0.748" transform="translate(221.373 4027.89)" fill="#fff"></ellipse><path id="Path_291" data-name="Path 291" d="M304.523,63.169a.748.748,0,1,1,.748-.748A.748.748,0,0,1,304.523,63.169Z" transform="translate(-81.429 3959.921)" fill="#fff"></path><ellipse id="Ellipse_677" data-name="Ellipse 677" cx="0.748" cy="0.748" rx="0.748" ry="0.748" transform="translate(221.332 4023.687)" fill="#fff"></ellipse><ellipse id="Ellipse_678" data-name="Ellipse 678" cx="0.748" cy="0.748" rx="0.748" ry="0.748" transform="translate(220.305 4025.797)" fill="#fff"></ellipse><ellipse id="Ellipse_679" data-name="Ellipse 679" cx="0.748" cy="0.748" rx="0.748" ry="0.748" transform="translate(219.295 4027.89)" fill="#fff"></ellipse><ellipse id="Ellipse_680" data-name="Ellipse 680" cx="0.748" cy="0.748" rx="0.748" ry="0.748" transform="translate(220.253 4021.594)" fill="#fff"></ellipse><ellipse id="Ellipse_681" data-name="Ellipse 681" cx="0.748" cy="0.748" rx="0.748" ry="0.748" transform="translate(219.239 4023.687)" fill="#fff"></ellipse><ellipse id="Ellipse_682" data-name="Ellipse 682" cx="0.748" cy="0.748" rx="0.748" ry="0.748" transform="translate(218.211 4025.797)" fill="#fff"></ellipse><ellipse id="Ellipse_683" data-name="Ellipse 683" cx="0.748" cy="0.748" rx="0.748" ry="0.748" transform="translate(217.202 4027.89)" fill="#fff"></ellipse><ellipse id="Ellipse_684" data-name="Ellipse 684" cx="0.748" cy="0.748" rx="0.748" ry="0.748" transform="translate(218.167 4021.594)" fill="#fff"></ellipse><ellipse id="Ellipse_685" data-name="Ellipse 685" cx="0.748" cy="0.748" rx="0.748" ry="0.748" transform="translate(217.172 4023.687)" fill="#fff"></ellipse><ellipse id="Ellipse_686" data-name="Ellipse 686" cx="0.748" cy="0.748" rx="0.748" ry="0.748" transform="translate(216.392 4025.797)" fill="#fff"></ellipse><ellipse id="Ellipse_687" data-name="Ellipse 687" cx="0.748" cy="0.748" rx="0.748" ry="0.748" transform="translate(215.116 4027.89)" fill="#fff"></ellipse><ellipse id="Ellipse_688" data-name="Ellipse 688" cx="0.748" cy="0.748" rx="0.748" ry="0.748" transform="translate(216.357 4021.594)" fill="#fff"></ellipse><ellipse id="Ellipse_689" data-name="Ellipse 689" cx="0.748" cy="0.748" rx="0.748" ry="0.748" transform="translate(214.994 4025.089) rotate(-83.209)" fill="#fff"></ellipse><ellipse id="Ellipse_690" data-name="Ellipse 690" cx="0.748" cy="0.748" rx="0.748" ry="0.748" transform="translate(214.57 4025.797)" fill="#fff"></ellipse><path id="Path_292" data-name="Path 292" d="M273.047,84.419a.748.748,0,1,1,.748-.748A.748.748,0,0,1,273.047,84.419Z" transform="translate(-59.278 3944.967)" fill="#fff"></path><ellipse id="Ellipse_691" data-name="Ellipse 691" cx="0.748" cy="0.748" rx="0.748" ry="0.748" transform="translate(214.548 4021.594)" fill="#fff"></ellipse><ellipse id="Ellipse_692" data-name="Ellipse 692" cx="0.748" cy="0.748" rx="0.748" ry="0.748" transform="translate(212.75 4025.797)" fill="#fff"></ellipse><ellipse id="Ellipse_693" data-name="Ellipse 693" cx="0.748" cy="0.748" rx="0.748" ry="0.748" transform="translate(210.93 4027.89)" fill="#fff"></ellipse><ellipse id="Ellipse_694" data-name="Ellipse 694" cx="0.748" cy="0.748" rx="0.748" ry="0.748" transform="translate(210.93 4027.89)" fill="#fff"></ellipse><ellipse id="Ellipse_695" data-name="Ellipse 695" cx="0.748" cy="0.748" rx="0.748" ry="0.748" transform="translate(210.93 4025.797)" fill="#fff"></ellipse><ellipse id="Ellipse_696" data-name="Ellipse 696" cx="0.748" cy="0.748" rx="0.748" ry="0.748" transform="translate(210.93 4023.687)" fill="#fff"></ellipse><ellipse id="Ellipse_697" data-name="Ellipse 697" cx="0.748" cy="0.748" rx="0.748" ry="0.748" transform="translate(210.93 4021.594)" fill="#fff"></ellipse><ellipse id="Ellipse_698" data-name="Ellipse 698" cx="0.748" cy="0.748" rx="0.748" ry="0.748" transform="translate(213.019 4023.687)" fill="#fff"></ellipse><ellipse id="Ellipse_699" data-name="Ellipse 699" cx="0.748" cy="0.748" rx="0.748" ry="0.748" transform="translate(212.603 4021.757) rotate(-10.955)" fill="#fff"></ellipse></g></svg> 