<?xml version="1.0" encoding="UTF-8"?> <svg xmlns="http://www.w3.org/2000/svg" width="176.089" height="50.141" viewBox="0 0 176.089 50.141"><g id="Group_250" data-name="Group 250" transform="translate(-872 -37)"><rect id="_9._LOGO_Typography_background" data-name="9. LOGO / Typography background" width="127" height="22.606" transform="translate(872 48)" fill="rgba(0,0,0,0)"></rect><circle id="Ellipse_1" data-name="Ellipse 1" cx="1.209" cy="1.209" r="1.209" transform="translate(872 37.199)" fill="#002141"></circle><circle id="Ellipse_2" data-name="Ellipse 2" cx="1.209" cy="1.209" r="1.209" transform="translate(875.38 37.199)" fill="#002141"></circle><ellipse id="Ellipse_3" data-name="Ellipse 3" cx="1.209" cy="1.209" rx="1.209" ry="1.209" transform="translate(878.773 37.216) rotate(-0.774)" fill="#002141"></ellipse><ellipse id="Ellipse_4" data-name="Ellipse 4" cx="1.209" cy="1.209" rx="1.209" ry="1.209" transform="translate(882.154 37.216) rotate(-0.774)" fill="#002141"></ellipse><ellipse id="Ellipse_5" data-name="Ellipse 5" cx="1.209" cy="1.209" rx="1.209" ry="1.209" transform="translate(909.266 37.216) rotate(-0.774)" fill="#002141"></ellipse><ellipse id="Ellipse_6" data-name="Ellipse 6" cx="1.209" cy="1.209" rx="1.209" ry="1.209" transform="translate(912.646 37.216) rotate(-0.774)" fill="#002141"></ellipse><ellipse id="Ellipse_7" data-name="Ellipse 7" cx="1.209" cy="1.209" rx="1.209" ry="1.209" transform="translate(916.056 37.216) rotate(-0.774)" fill="#002141"></ellipse><ellipse id="Ellipse_8" data-name="Ellipse 8" cx="1.209" cy="1.209" rx="1.209" ry="1.209" transform="matrix(1, -0.015, 0.015, 1, 919.435, 37.217)" fill="#002141"></ellipse><circle id="Ellipse_9" data-name="Ellipse 9" cx="1.209" cy="1.209" r="1.209" transform="translate(872 40.591)" fill="#002141"></circle><circle id="Ellipse_10" data-name="Ellipse 10" cx="1.209" cy="1.209" r="1.209" transform="translate(875.38 40.591)" fill="#002141"></circle><circle id="Ellipse_11" data-name="Ellipse 11" cx="1.209" cy="1.209" r="1.209" transform="translate(878.79 40.591)" fill="#002141"></circle><circle id="Ellipse_12" data-name="Ellipse 12" cx="1.209" cy="1.209" r="1.209" transform="translate(882.17 40.591)" fill="#002141"></circle><circle id="Ellipse_13" data-name="Ellipse 13" cx="1.209" cy="1.209" r="1.209" transform="translate(885.553 40.591)" fill="#002141"></circle><circle id="Ellipse_14" data-name="Ellipse 14" cx="1.209" cy="1.209" r="1.209" transform="translate(905.904 40.591)" fill="#002141"></circle><circle id="Ellipse_15" data-name="Ellipse 15" cx="1.209" cy="1.209" r="1.209" transform="translate(909.285 40.591)" fill="#002141"></circle><circle id="Ellipse_16" data-name="Ellipse 16" cx="1.209" cy="1.209" r="1.209" transform="translate(912.695 40.591)" fill="#002141"></circle><circle id="Ellipse_17" data-name="Ellipse 17" cx="1.209" cy="1.209" r="1.209" transform="translate(916.074 40.591)" fill="#002141"></circle><circle id="Ellipse_18" data-name="Ellipse 18" cx="1.209" cy="1.209" r="1.209" transform="translate(919.457 40.591)" fill="#002141"></circle><circle id="Ellipse_19" data-name="Ellipse 19" cx="1.209" cy="1.209" r="1.209" transform="translate(872 43.977)" fill="#002141"></circle><circle id="Ellipse_20" data-name="Ellipse 20" cx="1.209" cy="1.209" r="1.209" transform="translate(875.38 43.977)" fill="#002141"></circle><circle id="Ellipse_21" data-name="Ellipse 21" cx="1.209" cy="1.209" r="1.209" transform="translate(878.79 43.977)" fill="#002141"></circle><circle id="Ellipse_22" data-name="Ellipse 22" cx="1.209" cy="1.209" r="1.209" transform="translate(882.17 43.977)" fill="#002141"></circle><circle id="Ellipse_23" data-name="Ellipse 23" cx="1.209" cy="1.209" r="1.209" transform="translate(909.282 43.977)" fill="#002141"></circle><circle id="Ellipse_24" data-name="Ellipse 24" cx="1.209" cy="1.209" r="1.209" transform="translate(912.662 43.977)" fill="#002141"></circle><circle id="Ellipse_25" data-name="Ellipse 25" cx="1.209" cy="1.209" r="1.209" transform="translate(916.072 43.977)" fill="#002141"></circle><circle id="Ellipse_26" data-name="Ellipse 26" cx="1.209" cy="1.209" r="1.209" transform="translate(919.452 43.977)" fill="#002141"></circle><circle id="Ellipse_27" data-name="Ellipse 27" cx="1.209" cy="1.209" r="1.209" transform="translate(872 47.369)" fill="#002141"></circle><circle id="Ellipse_28" data-name="Ellipse 28" cx="1.209" cy="1.209" r="1.209" transform="translate(875.38 47.369)" fill="#002141"></circle><circle id="Ellipse_29" data-name="Ellipse 29" cx="1.209" cy="1.209" r="1.209" transform="translate(878.79 47.369)" fill="#002141"></circle><circle id="Ellipse_30" data-name="Ellipse 30" cx="1.209" cy="1.209" r="1.209" transform="translate(882.17 47.369)" fill="#002141"></circle><circle id="Ellipse_31" data-name="Ellipse 31" cx="1.209" cy="1.209" r="1.209" transform="translate(885.553 47.369)" fill="#002141"></circle><circle id="Ellipse_32" data-name="Ellipse 32" cx="1.209" cy="1.209" r="1.209" transform="translate(888.935 47.369)" fill="#002141"></circle><circle id="Ellipse_33" data-name="Ellipse 33" cx="1.209" cy="1.209" r="1.209" transform="translate(892.316 47.369)" fill="#002141"></circle><circle id="Ellipse_34" data-name="Ellipse 34" cx="1.209" cy="1.209" r="1.209" transform="translate(899.141 47.369)" fill="#002141"></circle><circle id="Ellipse_35" data-name="Ellipse 35" cx="1.209" cy="1.209" r="1.209" transform="translate(902.522 47.369)" fill="#002141"></circle><circle id="Ellipse_36" data-name="Ellipse 36" cx="1.209" cy="1.209" r="1.209" transform="translate(905.904 47.369)" fill="#002141"></circle><circle id="Ellipse_37" data-name="Ellipse 37" cx="1.209" cy="1.209" r="1.209" transform="translate(909.285 47.369)" fill="#002141"></circle><circle id="Ellipse_38" data-name="Ellipse 38" cx="1.209" cy="1.209" r="1.209" transform="translate(912.695 47.369)" fill="#002141"></circle><circle id="Ellipse_39" data-name="Ellipse 39" cx="1.209" cy="1.209" r="1.209" transform="translate(916.074 47.369)" fill="#002141"></circle><circle id="Ellipse_40" data-name="Ellipse 40" cx="1.209" cy="1.209" r="1.209" transform="translate(919.457 47.369)" fill="#002141"></circle><path id="Path_1" data-name="Path 1" d="M181.022,77.05a1.209,1.209,0,1,1-1.209-1.208A1.209,1.209,0,0,1,181.022,77.05Z" transform="translate(764.904 -31.863)" fill="#002141"></path><path id="Path_2" data-name="Path 2" d="M188.089,77.05a1.209,1.209,0,1,1-1.209-1.208A1.209,1.209,0,0,1,188.089,77.05Z" transform="translate(761.219 -31.863)" fill="#002141"></path><path id="Path_3" data-name="Path 3" d="M195.156,77.05a1.209,1.209,0,1,1-1.209-1.208A1.209,1.209,0,0,1,195.156,77.05Z" transform="translate(757.534 -31.863)" fill="#002141"></path><path id="Path_4" data-name="Path 4" d="M202.366,77.05a1.209,1.209,0,1,1-1.208-1.208A1.209,1.209,0,0,1,202.366,77.05Z" transform="translate(753.775 -31.863)" fill="#002141"></path><path id="Path_5" data-name="Path 5" d="M202.366,70.05a1.209,1.209,0,1,1-1.208-1.208A1.209,1.209,0,0,1,202.366,70.05Z" transform="translate(753.775 -28.214)" fill="#002141"></path><path id="Path_6" data-name="Path 6" d="M209.669,77.05a1.209,1.209,0,1,1-1.208-1.208A1.209,1.209,0,0,1,209.669,77.05Z" transform="translate(749.967 -31.863)" fill="#002141"></path><path id="Path_7" data-name="Path 7" d="M216.732,77.05a1.209,1.209,0,1,1-1.209-1.208A1.209,1.209,0,0,1,216.732,77.05Z" transform="translate(746.284 -31.863)" fill="#002141"></path><path id="Path_8" data-name="Path 8" d="M223.8,77.05a1.209,1.209,0,1,1-1.209-1.208A1.209,1.209,0,0,1,223.8,77.05Z" transform="translate(742.6 -31.863)" fill="#002141"></path><path id="Path_9" data-name="Path 9" d="M176.17,91.217a1.209,1.209,0,1,1-1.209-1.209A1.209,1.209,0,0,1,176.17,91.217Z" transform="translate(767.434 -39.25)" fill="#002141"></path><path id="Path_10" data-name="Path 10" d="M183.237,91.217a1.209,1.209,0,1,1-1.209-1.209A1.209,1.209,0,0,1,183.237,91.217Z" transform="translate(763.749 -39.25)" fill="#002141"></path><path id="Path_11" data-name="Path 11" d="M190.3,91.217a1.208,1.208,0,1,1-1.208-1.209A1.208,1.208,0,0,1,190.3,91.217Z" transform="translate(760.064 -39.25)" fill="#002141"></path><path id="Path_12" data-name="Path 12" d="M197.366,91.217a1.209,1.209,0,1,1-1.208-1.209A1.208,1.208,0,0,1,197.366,91.217Z" transform="translate(756.382 -39.25)" fill="#002141"></path><path id="Path_13" data-name="Path 13" d="M214.491,91.217a1.209,1.209,0,1,1-1.208-1.209A1.208,1.208,0,0,1,214.491,91.217Z" transform="translate(747.453 -39.25)" fill="#002141"></path><path id="Path_14" data-name="Path 14" d="M221.554,91.217a1.208,1.208,0,1,1-1.208-1.209A1.208,1.208,0,0,1,221.554,91.217Z" transform="translate(743.77 -39.25)" fill="#002141"></path><path id="Path_15" data-name="Path 15" d="M228.621,91.217a1.208,1.208,0,1,1-1.208-1.209A1.208,1.208,0,0,1,228.621,91.217Z" transform="translate(740.085 -39.25)" fill="#002141"></path><path id="Path_16" data-name="Path 16" d="M178.7,84.134a1.209,1.209,0,1,1-1.208-1.209A1.208,1.208,0,0,1,178.7,84.134Z" transform="translate(766.117 -35.557)" fill="#002141"></path><path id="Path_17" data-name="Path 17" d="M185.762,84.134a1.209,1.209,0,1,1-1.208-1.209A1.208,1.208,0,0,1,185.762,84.134Z" transform="translate(762.433 -35.557)" fill="#002141"></path><path id="Path_18" data-name="Path 18" d="M193.829,84.134a1.209,1.209,0,1,1-1.209-1.209A1.208,1.208,0,0,1,193.829,84.134Z" transform="translate(758.227 -35.557)" fill="#002141"></path><path id="Path_19" data-name="Path 19" d="M202.366,84.134a1.209,1.209,0,1,1-1.208-1.209A1.208,1.208,0,0,1,202.366,84.134Z" transform="translate(753.775 -35.557)" fill="#002141"></path><circle id="Ellipse_41" data-name="Ellipse 41" cx="1.209" cy="1.209" r="1.209" transform="translate(957.948 47.369)" fill="#002141"></circle><circle id="Ellipse_42" data-name="Ellipse 42" cx="1.209" cy="1.209" r="1.209" transform="translate(961.807 47.369)" fill="#002141"></circle><circle id="Ellipse_43" data-name="Ellipse 43" cx="1.209" cy="1.209" r="1.209" transform="translate(965.189 47.369)" fill="#002141"></circle><circle id="Ellipse_44" data-name="Ellipse 44" cx="1.209" cy="1.209" r="1.209" transform="translate(885.553 43.977)" fill="#002141"></circle><circle id="Ellipse_45" data-name="Ellipse 45" cx="1.209" cy="1.209" r="1.209" transform="translate(888.935 43.977)" fill="#002141"></circle><circle id="Ellipse_46" data-name="Ellipse 46" cx="1.209" cy="1.209" r="1.209" transform="translate(902.522 43.977)" fill="#002141"></circle><circle id="Ellipse_47" data-name="Ellipse 47" cx="1.209" cy="1.209" r="1.209" transform="translate(905.904 43.977)" fill="#002141"></circle><circle id="Ellipse_48" data-name="Ellipse 48" cx="1.209" cy="1.209" r="1.209" transform="translate(872 50.783)" fill="#002141"></circle><circle id="Ellipse_49" data-name="Ellipse 49" cx="1.209" cy="1.209" r="1.209" transform="translate(875.38 50.783)" fill="#002141"></circle><circle id="Ellipse_50" data-name="Ellipse 50" cx="1.209" cy="1.209" r="1.209" transform="translate(878.79 50.783)" fill="#002141"></circle><circle id="Ellipse_51" data-name="Ellipse 51" cx="1.209" cy="1.209" r="1.209" transform="translate(882.17 50.783)" fill="#002141"></circle><circle id="Ellipse_52" data-name="Ellipse 52" cx="1.209" cy="1.209" r="1.209" transform="translate(885.553 50.783)" fill="#002141"></circle><circle id="Ellipse_53" data-name="Ellipse 53" cx="1.209" cy="1.209" r="1.209" transform="translate(888.935 50.783)" fill="#002141"></circle><circle id="Ellipse_54" data-name="Ellipse 54" cx="1.209" cy="1.209" r="1.209" transform="translate(892.316 50.783)" fill="#002141"></circle><path id="Path_20" data-name="Path 20" d="M81.2,91.268a1.208,1.208,0,1,1-1.208-1.208A1.208,1.208,0,0,1,81.2,91.268Z" transform="translate(816.952 -39.277)" fill="#002141"></path><circle id="Ellipse_55" data-name="Ellipse 55" cx="1.209" cy="1.209" r="1.209" transform="translate(899.141 50.783)" fill="#002141"></circle><circle id="Ellipse_56" data-name="Ellipse 56" cx="1.209" cy="1.209" r="1.209" transform="translate(902.522 50.783)" fill="#002141"></circle><circle id="Ellipse_57" data-name="Ellipse 57" cx="1.209" cy="1.209" r="1.209" transform="translate(905.904 50.783)" fill="#002141"></circle><circle id="Ellipse_58" data-name="Ellipse 58" cx="1.209" cy="1.209" r="1.209" transform="translate(909.285 50.783)" fill="#002141"></circle><circle id="Ellipse_59" data-name="Ellipse 59" cx="1.209" cy="1.209" r="1.209" transform="translate(912.695 50.783)" fill="#002141"></circle><circle id="Ellipse_60" data-name="Ellipse 60" cx="1.209" cy="1.209" r="1.209" transform="translate(916.074 50.783)" fill="#002141"></circle><circle id="Ellipse_61" data-name="Ellipse 61" cx="1.209" cy="1.209" r="1.209" transform="translate(919.457 50.783)" fill="#002141"></circle><circle id="Ellipse_62" data-name="Ellipse 62" cx="1.209" cy="1.209" r="1.209" transform="translate(872 54.172)" fill="#002141"></circle><circle id="Ellipse_63" data-name="Ellipse 63" cx="1.209" cy="1.209" r="1.209" transform="translate(875.38 54.172)" fill="#002141"></circle><circle id="Ellipse_64" data-name="Ellipse 64" cx="1.209" cy="1.209" r="1.209" transform="translate(878.79 54.172)" fill="#002141"></circle><circle id="Ellipse_65" data-name="Ellipse 65" cx="1.209" cy="1.209" r="1.209" transform="translate(882.17 54.172)" fill="#002141"></circle><circle id="Ellipse_66" data-name="Ellipse 66" cx="1.209" cy="1.209" r="1.209" transform="translate(885.553 54.172)" fill="#002141"></circle><circle id="Ellipse_67" data-name="Ellipse 67" cx="1.209" cy="1.209" r="1.209" transform="translate(888.935 54.172)" fill="#002141"></circle><circle id="Ellipse_68" data-name="Ellipse 68" cx="1.209" cy="1.209" r="1.209" transform="translate(892.316 54.172)" fill="#002141"></circle><path id="Path_21" data-name="Path 21" d="M81.2,98.349a1.208,1.208,0,1,1-1.208-1.208A1.208,1.208,0,0,1,81.2,98.349Z" transform="translate(816.952 -42.969)" fill="#002141"></path><circle id="Ellipse_69" data-name="Ellipse 69" cx="1.209" cy="1.209" r="1.209" transform="translate(899.141 54.172)" fill="#002141"></circle><circle id="Ellipse_70" data-name="Ellipse 70" cx="1.209" cy="1.209" r="1.209" transform="translate(902.522 54.172)" fill="#002141"></circle><circle id="Ellipse_71" data-name="Ellipse 71" cx="1.209" cy="1.209" r="1.209" transform="translate(905.904 54.172)" fill="#002141"></circle><circle id="Ellipse_72" data-name="Ellipse 72" cx="1.209" cy="1.209" r="1.209" transform="translate(909.285 54.172)" fill="#002141"></circle><circle id="Ellipse_73" data-name="Ellipse 73" cx="1.209" cy="1.209" r="1.209" transform="translate(912.695 54.172)" fill="#002141"></circle><circle id="Ellipse_74" data-name="Ellipse 74" cx="1.209" cy="1.209" r="1.209" transform="translate(916.074 54.172)" fill="#002141"></circle><circle id="Ellipse_75" data-name="Ellipse 75" cx="1.209" cy="1.209" r="1.209" transform="translate(919.457 54.172)" fill="#002141"></circle><circle id="Ellipse_76" data-name="Ellipse 76" cx="1.209" cy="1.209" r="1.209" transform="translate(945.759 37.196)" fill="#002141"></circle><ellipse id="Ellipse_77" data-name="Ellipse 77" cx="1.209" cy="1.209" rx="1.209" ry="1.209" transform="translate(948.834 37.223) rotate(-1.511)" fill="#002141"></ellipse><path id="Path_22" data-name="Path 22" d="M198.875,62.879a1.209,1.209,0,1,1-1.209-1.209A1.209,1.209,0,0,1,198.875,62.879Z" transform="translate(755.596 -24.474)" fill="#002141"></path><ellipse id="Ellipse_78" data-name="Ellipse 78" cx="1.209" cy="1.209" rx="1.209" ry="1.209" transform="translate(955.395 37.256) rotate(-2.787)" fill="#002141"></ellipse><path id="Path_23" data-name="Path 23" d="M212.617,62.879a1.208,1.208,0,1,1-1.208-1.209A1.208,1.208,0,0,1,212.617,62.879Z" transform="translate(748.43 -24.474)" fill="#002141"></path><ellipse id="Ellipse_79" data-name="Ellipse 79" cx="1.209" cy="1.209" rx="1.209" ry="1.209" transform="translate(961.679 37.256) rotate(-2.787)" fill="#002141"></ellipse><circle id="Ellipse_80" data-name="Ellipse 80" cx="1.209" cy="1.209" r="1.209" transform="translate(944.66 40.591)" fill="#002141"></circle><circle id="Ellipse_81" data-name="Ellipse 81" cx="1.209" cy="1.209" r="1.209" transform="translate(947.563 40.591)" fill="#002141"></circle><circle id="Ellipse_82" data-name="Ellipse 82" cx="1.209" cy="1.209" r="1.209" transform="translate(950.465 40.591)" fill="#002141"></circle><circle id="Ellipse_83" data-name="Ellipse 83" cx="1.209" cy="1.209" r="1.209" transform="translate(957.03 40.591)" fill="#002141"></circle><circle id="Ellipse_84" data-name="Ellipse 84" cx="1.209" cy="1.209" r="1.209" transform="translate(959.932 40.591)" fill="#002141"></circle><path id="Path_24" data-name="Path 24" d="M221.4,69.972a1.209,1.209,0,1,1-1.209-1.209A1.209,1.209,0,0,1,221.4,69.972Z" transform="translate(743.848 -28.172)" fill="#002141"></path><circle id="Ellipse_85" data-name="Ellipse 85" cx="1.209" cy="1.209" r="1.209" transform="translate(872 57.561)" fill="#002141"></circle><circle id="Ellipse_86" data-name="Ellipse 86" cx="1.209" cy="1.209" r="1.209" transform="translate(875.38 57.561)" fill="#002141"></circle><circle id="Ellipse_87" data-name="Ellipse 87" cx="1.209" cy="1.209" r="1.209" transform="translate(878.79 57.561)" fill="#002141"></circle><circle id="Ellipse_88" data-name="Ellipse 88" cx="1.209" cy="1.209" r="1.209" transform="translate(882.17 57.561)" fill="#002141"></circle><circle id="Ellipse_89" data-name="Ellipse 89" cx="1.209" cy="1.209" r="1.209" transform="translate(888.935 57.561)" fill="#002141"></circle><circle id="Ellipse_90" data-name="Ellipse 90" cx="1.209" cy="1.209" r="1.209" transform="translate(892.316 57.561)" fill="#002141"></circle><path id="Path_25" data-name="Path 25" d="M81.2,105.431a1.208,1.208,0,1,1-1.208-1.209A1.208,1.208,0,0,1,81.2,105.431Z" transform="translate(816.952 -46.661)" fill="#002141"></path><circle id="Ellipse_91" data-name="Ellipse 91" cx="1.209" cy="1.209" r="1.209" transform="translate(899.141 57.561)" fill="#002141"></circle><circle id="Ellipse_92" data-name="Ellipse 92" cx="1.209" cy="1.209" r="1.209" transform="translate(902.522 57.561)" fill="#002141"></circle><circle id="Ellipse_93" data-name="Ellipse 93" cx="1.209" cy="1.209" r="1.209" transform="translate(909.285 57.561)" fill="#002141"></circle><circle id="Ellipse_94" data-name="Ellipse 94" cx="1.209" cy="1.209" r="1.209" transform="translate(912.695 57.561)" fill="#002141"></circle><circle id="Ellipse_95" data-name="Ellipse 95" cx="1.209" cy="1.209" r="1.209" transform="translate(916.074 57.561)" fill="#002141"></circle><circle id="Ellipse_96" data-name="Ellipse 96" cx="1.209" cy="1.209" r="1.209" transform="translate(919.457 57.561)" fill="#002141"></circle><path id="Path_26" data-name="Path 26" d="M31.606,112.45a1.208,1.208,0,1,1-1.208-1.209A1.208,1.208,0,0,1,31.606,112.45Z" transform="translate(842.812 -50.321)" fill="#002141"></path><path id="Path_27" data-name="Path 27" d="M38.668,112.45a1.209,1.209,0,1,1-1.209-1.209A1.209,1.209,0,0,1,38.668,112.45Z" transform="translate(839.129 -50.321)" fill="#002141"></path><path id="Path_28" data-name="Path 28" d="M45.793,112.45a1.209,1.209,0,1,1-1.209-1.209A1.209,1.209,0,0,1,45.793,112.45Z" transform="translate(835.414 -50.321)" fill="#002141"></path><path id="Path_29" data-name="Path 29" d="M52.856,112.45a1.208,1.208,0,1,1-1.208-1.209A1.208,1.208,0,0,1,52.856,112.45Z" transform="translate(831.731 -50.321)" fill="#002141"></path><path id="Path_30" data-name="Path 30" d="M74.056,112.45a1.209,1.209,0,1,1-1.208-1.209A1.208,1.208,0,0,1,74.056,112.45Z" transform="translate(820.678 -50.321)" fill="#002141"></path><path id="Path_31" data-name="Path 31" d="M81.2,112.45a1.208,1.208,0,1,1-1.208-1.209A1.208,1.208,0,0,1,81.2,112.45Z" transform="translate(816.952 -50.321)" fill="#002141"></path><path id="Path_32" data-name="Path 32" d="M88.315,112.45a1.209,1.209,0,1,1-1.209-1.209A1.209,1.209,0,0,1,88.315,112.45Z" transform="translate(813.242 -50.321)" fill="#002141"></path><path id="Path_33" data-name="Path 33" d="M109.511,112.45a1.209,1.209,0,1,1-1.208-1.209A1.208,1.208,0,0,1,109.511,112.45Z" transform="translate(802.19 -50.321)" fill="#002141"></path><path id="Path_34" data-name="Path 34" d="M116.636,112.45a1.209,1.209,0,1,1-1.208-1.209A1.208,1.208,0,0,1,116.636,112.45Z" transform="translate(798.476 -50.321)" fill="#002141"></path><path id="Path_35" data-name="Path 35" d="M123.7,112.45a1.209,1.209,0,1,1-1.209-1.209A1.209,1.209,0,0,1,123.7,112.45Z" transform="translate(794.793 -50.321)" fill="#002141"></path><path id="Path_36" data-name="Path 36" d="M130.766,112.45a1.208,1.208,0,1,1-1.208-1.209A1.208,1.208,0,0,1,130.766,112.45Z" transform="translate(791.107 -50.321)" fill="#002141"></path><circle id="Ellipse_97" data-name="Ellipse 97" cx="1.209" cy="1.209" r="1.209" transform="translate(872 64.339)" fill="#002141"></circle><circle id="Ellipse_98" data-name="Ellipse 98" cx="1.209" cy="1.209" r="1.209" transform="translate(875.38 64.339)" fill="#002141"></circle><circle id="Ellipse_99" data-name="Ellipse 99" cx="1.209" cy="1.209" r="1.209" transform="translate(878.79 64.339)" fill="#002141"></circle><circle id="Ellipse_100" data-name="Ellipse 100" cx="1.209" cy="1.209" r="1.209" transform="translate(882.17 64.339)" fill="#002141"></circle><path id="Path_37" data-name="Path 37" d="M31.606,126.646a1.208,1.208,0,1,1-1.208-1.208A1.208,1.208,0,0,1,31.606,126.646Z" transform="translate(842.812 -57.723)" fill="#002141"></path><path id="Path_38" data-name="Path 38" d="M38.668,126.646a1.209,1.209,0,1,1-1.209-1.208A1.209,1.209,0,0,1,38.668,126.646Z" transform="translate(839.129 -57.723)" fill="#002141"></path><path id="Path_39" data-name="Path 39" d="M45.793,126.646a1.209,1.209,0,1,1-1.209-1.208A1.209,1.209,0,0,1,45.793,126.646Z" transform="translate(835.414 -57.723)" fill="#002141"></path><path id="Path_40" data-name="Path 40" d="M52.856,126.646a1.208,1.208,0,1,1-1.208-1.208A1.208,1.208,0,0,1,52.856,126.646Z" transform="translate(831.731 -57.723)" fill="#002141"></path><circle id="Ellipse_101" data-name="Ellipse 101" cx="1.209" cy="1.209" r="1.209" transform="translate(872 71.129)" fill="#002141"></circle><circle id="Ellipse_102" data-name="Ellipse 102" cx="1.209" cy="1.209" r="1.209" transform="translate(875.38 71.129)" fill="#002141"></circle><circle id="Ellipse_103" data-name="Ellipse 103" cx="1.209" cy="1.209" r="1.209" transform="translate(878.79 71.129)" fill="#002141"></circle><circle id="Ellipse_104" data-name="Ellipse 104" cx="1.209" cy="1.209" r="1.209" transform="translate(882.17 71.129)" fill="#002141"></circle><circle id="Ellipse_105" data-name="Ellipse 105" cx="1.209" cy="1.209" r="1.209" transform="translate(872 74.518)" fill="#002141"></circle><circle id="Ellipse_106" data-name="Ellipse 106" cx="1.209" cy="1.209" r="1.209" transform="translate(875.38 74.518)" fill="#002141"></circle><circle id="Ellipse_107" data-name="Ellipse 107" cx="1.209" cy="1.209" r="1.209" transform="translate(878.79 74.518)" fill="#002141"></circle><circle id="Ellipse_108" data-name="Ellipse 108" cx="1.209" cy="1.209" r="1.209" transform="translate(882.17 74.518)" fill="#002141"></circle><circle id="Ellipse_109" data-name="Ellipse 109" cx="1.209" cy="1.209" r="1.209" transform="translate(872 77.907)" fill="#002141"></circle><circle id="Ellipse_110" data-name="Ellipse 110" cx="1.209" cy="1.209" r="1.209" transform="translate(875.38 77.907)" fill="#002141"></circle><circle id="Ellipse_111" data-name="Ellipse 111" cx="1.209" cy="1.209" r="1.209" transform="translate(878.79 77.907)" fill="#002141"></circle><circle id="Ellipse_112" data-name="Ellipse 112" cx="1.209" cy="1.209" r="1.209" transform="translate(882.17 77.907)" fill="#002141"></circle><path id="Path_41" data-name="Path 41" d="M31.606,154.962a1.208,1.208,0,1,1-1.208-1.208A1.209,1.209,0,0,1,31.606,154.962Z" transform="translate(842.812 -72.488)" fill="#002141"></path><path id="Path_42" data-name="Path 42" d="M38.668,154.962a1.209,1.209,0,1,1-1.209-1.208A1.209,1.209,0,0,1,38.668,154.962Z" transform="translate(839.129 -72.488)" fill="#002141"></path><path id="Path_43" data-name="Path 43" d="M45.793,154.962a1.209,1.209,0,1,1-1.209-1.208A1.209,1.209,0,0,1,45.793,154.962Z" transform="translate(835.414 -72.488)" fill="#002141"></path><path id="Path_44" data-name="Path 44" d="M52.856,154.962a1.208,1.208,0,1,1-1.208-1.208A1.209,1.209,0,0,1,52.856,154.962Z" transform="translate(831.731 -72.488)" fill="#002141"></path><circle id="Ellipse_113" data-name="Ellipse 113" cx="1.209" cy="1.209" r="1.209" transform="translate(872 84.685)" fill="#002141"></circle><circle id="Ellipse_114" data-name="Ellipse 114" cx="1.209" cy="1.209" r="1.209" transform="translate(875.38 84.685)" fill="#002141"></circle><circle id="Ellipse_115" data-name="Ellipse 115" cx="1.209" cy="1.209" r="1.209" transform="translate(878.79 84.685)" fill="#002141"></circle><circle id="Ellipse_116" data-name="Ellipse 116" cx="1.209" cy="1.209" r="1.209" transform="translate(882.17 84.685)" fill="#002141"></circle><ellipse id="Ellipse_117" data-name="Ellipse 117" cx="1.209" cy="1.209" rx="1.209" ry="1.209" transform="matrix(1, -0.014, 0.014, 1, 1035.469, 37.216)" fill="#002141"></ellipse><ellipse id="Ellipse_118" data-name="Ellipse 118" cx="1.209" cy="1.209" rx="1.209" ry="1.209" transform="matrix(1, -0.014, 0.014, 1, 1038.849, 37.216)" fill="#002141"></ellipse><ellipse id="Ellipse_119" data-name="Ellipse 119" cx="1.209" cy="1.209" rx="1.209" ry="1.209" transform="matrix(1, -0.014, 0.014, 1, 1042.259, 37.216)" fill="#002141"></ellipse><ellipse id="Ellipse_120" data-name="Ellipse 120" cx="1.209" cy="1.209" rx="1.209" ry="1.209" transform="matrix(1, -0.014, 0.014, 1, 1045.639, 37.216)" fill="#002141"></ellipse><circle id="Ellipse_121" data-name="Ellipse 121" cx="1.209" cy="1.209" r="1.209" transform="translate(1035.484 40.591)" fill="#002141"></circle><circle id="Ellipse_122" data-name="Ellipse 122" cx="1.209" cy="1.209" r="1.209" transform="translate(1038.865 40.591)" fill="#002141"></circle><circle id="Ellipse_123" data-name="Ellipse 123" cx="1.209" cy="1.209" r="1.209" transform="translate(1042.275 40.591)" fill="#002141"></circle><circle id="Ellipse_124" data-name="Ellipse 124" cx="1.209" cy="1.209" r="1.209" transform="translate(1045.654 40.591)" fill="#002141"></circle><circle id="Ellipse_125" data-name="Ellipse 125" cx="1.209" cy="1.209" r="1.209" transform="translate(1035.484 43.977)" fill="#002141"></circle><circle id="Ellipse_126" data-name="Ellipse 126" cx="1.209" cy="1.209" r="1.209" transform="translate(1038.865 43.977)" fill="#002141"></circle><circle id="Ellipse_127" data-name="Ellipse 127" cx="1.209" cy="1.209" r="1.209" transform="translate(1042.275 43.977)" fill="#002141"></circle><circle id="Ellipse_128" data-name="Ellipse 128" cx="1.209" cy="1.209" r="1.209" transform="translate(1045.654 43.977)" fill="#002141"></circle><circle id="Ellipse_129" data-name="Ellipse 129" cx="1.209" cy="1.209" r="1.209" transform="translate(1035.484 47.368)" fill="#002141"></circle><circle id="Ellipse_130" data-name="Ellipse 130" cx="1.209" cy="1.209" r="1.209" transform="translate(1038.865 47.368)" fill="#002141"></circle><circle id="Ellipse_131" data-name="Ellipse 131" cx="1.209" cy="1.209" r="1.209" transform="translate(1042.275 47.368)" fill="#002141"></circle><circle id="Ellipse_132" data-name="Ellipse 132" cx="1.209" cy="1.209" r="1.209" transform="translate(1045.654 47.368)" fill="#002141"></circle><circle id="Ellipse_133" data-name="Ellipse 133" cx="1.209" cy="1.209" r="1.209" transform="translate(1035.484 50.783)" fill="#002141"></circle><circle id="Ellipse_134" data-name="Ellipse 134" cx="1.209" cy="1.209" r="1.209" transform="translate(1038.865 50.783)" fill="#002141"></circle><circle id="Ellipse_135" data-name="Ellipse 135" cx="1.209" cy="1.209" r="1.209" transform="translate(1042.275 50.783)" fill="#002141"></circle><circle id="Ellipse_136" data-name="Ellipse 136" cx="1.209" cy="1.209" r="1.209" transform="translate(1045.654 50.783)" fill="#002141"></circle><circle id="Ellipse_137" data-name="Ellipse 137" cx="1.209" cy="1.209" r="1.209" transform="translate(1035.484 54.172)" fill="#002141"></circle><circle id="Ellipse_138" data-name="Ellipse 138" cx="1.209" cy="1.209" r="1.209" transform="translate(1038.865 54.172)" fill="#002141"></circle><circle id="Ellipse_139" data-name="Ellipse 139" cx="1.209" cy="1.209" r="1.209" transform="translate(1042.275 54.172)" fill="#002141"></circle><circle id="Ellipse_140" data-name="Ellipse 140" cx="1.209" cy="1.209" r="1.209" transform="translate(1045.654 54.172)" fill="#002141"></circle><circle id="Ellipse_141" data-name="Ellipse 141" cx="1.209" cy="1.209" r="1.209" transform="translate(1035.484 57.561)" fill="#002141"></circle><circle id="Ellipse_142" data-name="Ellipse 142" cx="1.209" cy="1.209" r="1.209" transform="translate(1038.865 57.561)" fill="#002141"></circle><circle id="Ellipse_143" data-name="Ellipse 143" cx="1.209" cy="1.209" r="1.209" transform="translate(1042.275 57.561)" fill="#002141"></circle><circle id="Ellipse_144" data-name="Ellipse 144" cx="1.209" cy="1.209" r="1.209" transform="translate(1045.654 57.561)" fill="#002141"></circle><path id="Path_45" data-name="Path 45" d="M373.2,112.45A1.208,1.208,0,1,1,372,111.241,1.208,1.208,0,0,1,373.2,112.45Z" transform="translate(664.697 -50.321)" fill="#002141"></path><path id="Path_46" data-name="Path 46" d="M380.267,112.45a1.209,1.209,0,1,1-1.209-1.209A1.209,1.209,0,0,1,380.267,112.45Z" transform="translate(661.015 -50.321)" fill="#002141"></path><path id="Path_47" data-name="Path 47" d="M387.392,112.45a1.209,1.209,0,1,1-1.209-1.209A1.209,1.209,0,0,1,387.392,112.45Z" transform="translate(657.3 -50.321)" fill="#002141"></path><path id="Path_48" data-name="Path 48" d="M394.455,112.45a1.208,1.208,0,1,1-1.208-1.209A1.208,1.208,0,0,1,394.455,112.45Z" transform="translate(653.617 -50.321)" fill="#002141"></path><circle id="Ellipse_145" data-name="Ellipse 145" cx="1.209" cy="1.209" r="1.209" transform="translate(1035.484 64.339)" fill="#002141"></circle><circle id="Ellipse_146" data-name="Ellipse 146" cx="1.209" cy="1.209" r="1.209" transform="translate(1038.865 64.339)" fill="#002141"></circle><circle id="Ellipse_147" data-name="Ellipse 147" cx="1.209" cy="1.209" r="1.209" transform="translate(1042.275 64.339)" fill="#002141"></circle><circle id="Ellipse_148" data-name="Ellipse 148" cx="1.209" cy="1.209" r="1.209" transform="translate(1045.654 64.339)" fill="#002141"></circle><path id="Path_49" data-name="Path 49" d="M373.2,126.646A1.208,1.208,0,1,1,372,125.438,1.208,1.208,0,0,1,373.2,126.646Z" transform="translate(664.697 -57.723)" fill="#002141"></path><path id="Path_50" data-name="Path 50" d="M380.267,126.646a1.209,1.209,0,1,1-1.209-1.208A1.208,1.208,0,0,1,380.267,126.646Z" transform="translate(661.015 -57.723)" fill="#002141"></path><path id="Path_51" data-name="Path 51" d="M387.392,126.646a1.209,1.209,0,1,1-1.209-1.208A1.208,1.208,0,0,1,387.392,126.646Z" transform="translate(657.3 -57.723)" fill="#002141"></path><path id="Path_52" data-name="Path 52" d="M394.455,126.646a1.208,1.208,0,1,1-1.208-1.208A1.208,1.208,0,0,1,394.455,126.646Z" transform="translate(653.617 -57.723)" fill="#002141"></path><circle id="Ellipse_149" data-name="Ellipse 149" cx="1.209" cy="1.209" r="1.209" transform="translate(1035.484 71.129)" fill="#002141"></circle><circle id="Ellipse_150" data-name="Ellipse 150" cx="1.209" cy="1.209" r="1.209" transform="translate(1038.865 71.129)" fill="#002141"></circle><circle id="Ellipse_151" data-name="Ellipse 151" cx="1.209" cy="1.209" r="1.209" transform="translate(1042.275 71.129)" fill="#002141"></circle><circle id="Ellipse_152" data-name="Ellipse 152" cx="1.209" cy="1.209" r="1.209" transform="translate(1045.654 71.129)" fill="#002141"></circle><circle id="Ellipse_153" data-name="Ellipse 153" cx="1.209" cy="1.209" r="1.209" transform="translate(1035.484 74.518)" fill="#002141"></circle><circle id="Ellipse_154" data-name="Ellipse 154" cx="1.209" cy="1.209" r="1.209" transform="translate(1038.865 74.518)" fill="#002141"></circle><circle id="Ellipse_155" data-name="Ellipse 155" cx="1.209" cy="1.209" r="1.209" transform="translate(1042.275 74.518)" fill="#002141"></circle><circle id="Ellipse_156" data-name="Ellipse 156" cx="1.209" cy="1.209" r="1.209" transform="translate(1045.654 74.518)" fill="#002141"></circle><circle id="Ellipse_157" data-name="Ellipse 157" cx="1.209" cy="1.209" r="1.209" transform="translate(1035.484 77.907)" fill="#002141"></circle><circle id="Ellipse_158" data-name="Ellipse 158" cx="1.209" cy="1.209" r="1.209" transform="translate(1038.865 77.907)" fill="#002141"></circle><circle id="Ellipse_159" data-name="Ellipse 159" cx="1.209" cy="1.209" r="1.209" transform="translate(1042.275 77.907)" fill="#002141"></circle><circle id="Ellipse_160" data-name="Ellipse 160" cx="1.209" cy="1.209" r="1.209" transform="translate(1045.654 77.907)" fill="#002141"></circle><path id="Path_53" data-name="Path 53" d="M373.2,154.962A1.208,1.208,0,1,1,372,153.754,1.209,1.209,0,0,1,373.2,154.962Z" transform="translate(664.697 -72.488)" fill="#002141"></path><path id="Path_54" data-name="Path 54" d="M380.267,154.962a1.209,1.209,0,1,1-1.209-1.208A1.209,1.209,0,0,1,380.267,154.962Z" transform="translate(661.015 -72.488)" fill="#002141"></path><path id="Path_55" data-name="Path 55" d="M387.392,154.962a1.209,1.209,0,1,1-1.209-1.208A1.209,1.209,0,0,1,387.392,154.962Z" transform="translate(657.3 -72.488)" fill="#002141"></path><path id="Path_56" data-name="Path 56" d="M394.455,154.962a1.208,1.208,0,1,1-1.208-1.208A1.209,1.209,0,0,1,394.455,154.962Z" transform="translate(653.617 -72.488)" fill="#002141"></path><circle id="Ellipse_161" data-name="Ellipse 161" cx="1.209" cy="1.209" r="1.209" transform="translate(1035.484 84.685)" fill="#002141"></circle><circle id="Ellipse_162" data-name="Ellipse 162" cx="1.209" cy="1.209" r="1.209" transform="translate(1038.865 84.685)" fill="#002141"></circle><circle id="Ellipse_163" data-name="Ellipse 163" cx="1.209" cy="1.209" r="1.209" transform="translate(1042.275 84.685)" fill="#002141"></circle><circle id="Ellipse_164" data-name="Ellipse 164" cx="1.209" cy="1.209" r="1.209" transform="translate(1045.654 84.685)" fill="#002141"></circle><path id="Path_57" data-name="Path 57" d="M109.511,126.646a1.209,1.209,0,1,1-1.208-1.208A1.208,1.208,0,0,1,109.511,126.646Z" transform="translate(802.19 -57.723)" fill="#002141"></path><path id="Path_58" data-name="Path 58" d="M116.574,126.646a1.209,1.209,0,1,1-1.209-1.208A1.209,1.209,0,0,1,116.574,126.646Z" transform="translate(798.508 -57.723)" fill="#002141"></path><path id="Path_59" data-name="Path 59" d="M123.7,126.646a1.209,1.209,0,1,1-1.209-1.208A1.209,1.209,0,0,1,123.7,126.646Z" transform="translate(794.793 -57.723)" fill="#002141"></path><path id="Path_60" data-name="Path 60" d="M130.761,126.646a1.209,1.209,0,1,1-1.208-1.208A1.208,1.208,0,0,1,130.761,126.646Z" transform="translate(791.11 -57.723)" fill="#002141"></path><circle id="Ellipse_165" data-name="Ellipse 165" cx="1.209" cy="1.209" r="1.209" transform="translate(909.285 71.129)" fill="#002141"></circle><circle id="Ellipse_166" data-name="Ellipse 166" cx="1.209" cy="1.209" r="1.209" transform="translate(912.665 71.129)" fill="#002141"></circle><circle id="Ellipse_167" data-name="Ellipse 167" cx="1.209" cy="1.209" r="1.209" transform="translate(916.074 71.129)" fill="#002141"></circle><circle id="Ellipse_168" data-name="Ellipse 168" cx="1.209" cy="1.209" r="1.209" transform="translate(919.455 71.129)" fill="#002141"></circle><circle id="Ellipse_169" data-name="Ellipse 169" cx="1.209" cy="1.209" r="1.209" transform="translate(909.285 74.518)" fill="#002141"></circle><circle id="Ellipse_170" data-name="Ellipse 170" cx="1.209" cy="1.209" r="1.209" transform="translate(912.665 74.518)" fill="#002141"></circle><circle id="Ellipse_171" data-name="Ellipse 171" cx="1.209" cy="1.209" r="1.209" transform="translate(916.074 74.518)" fill="#002141"></circle><circle id="Ellipse_172" data-name="Ellipse 172" cx="1.209" cy="1.209" r="1.209" transform="translate(919.455 74.518)" fill="#002141"></circle><circle id="Ellipse_173" data-name="Ellipse 173" cx="1.209" cy="1.209" r="1.209" transform="translate(909.285 77.907)" fill="#002141"></circle><circle id="Ellipse_174" data-name="Ellipse 174" cx="1.209" cy="1.209" r="1.209" transform="translate(912.665 77.907)" fill="#002141"></circle><circle id="Ellipse_175" data-name="Ellipse 175" cx="1.209" cy="1.209" r="1.209" transform="translate(916.074 77.907)" fill="#002141"></circle><circle id="Ellipse_176" data-name="Ellipse 176" cx="1.209" cy="1.209" r="1.209" transform="translate(919.455 77.907)" fill="#002141"></circle><path id="Path_61" data-name="Path 61" d="M109.511,154.962a1.209,1.209,0,1,1-1.208-1.208A1.209,1.209,0,0,1,109.511,154.962Z" transform="translate(802.19 -72.488)" fill="#002141"></path><path id="Path_62" data-name="Path 62" d="M116.574,154.962a1.209,1.209,0,1,1-1.209-1.208A1.209,1.209,0,0,1,116.574,154.962Z" transform="translate(798.508 -72.488)" fill="#002141"></path><path id="Path_63" data-name="Path 63" d="M123.7,154.962a1.209,1.209,0,1,1-1.209-1.208A1.209,1.209,0,0,1,123.7,154.962Z" transform="translate(794.793 -72.488)" fill="#002141"></path><path id="Path_64" data-name="Path 64" d="M130.761,154.962a1.209,1.209,0,1,1-1.208-1.208A1.209,1.209,0,0,1,130.761,154.962Z" transform="translate(791.11 -72.488)" fill="#002141"></path><circle id="Ellipse_177" data-name="Ellipse 177" cx="1.209" cy="1.209" r="1.209" transform="translate(909.285 84.685)" fill="#002141"></circle><circle id="Ellipse_178" data-name="Ellipse 178" cx="1.209" cy="1.209" r="1.209" transform="translate(912.665 84.685)" fill="#002141"></circle><circle id="Ellipse_179" data-name="Ellipse 179" cx="1.209" cy="1.209" r="1.209" transform="translate(916.074 84.685)" fill="#002141"></circle><circle id="Ellipse_180" data-name="Ellipse 180" cx="1.209" cy="1.209" r="1.209" transform="translate(919.455 84.685)" fill="#002141"></circle><path id="Path_65" data-name="Path 65" d="M81.2,119.592a1.208,1.208,0,1,1-1.208-1.208A1.209,1.209,0,0,1,81.2,119.592Z" transform="translate(816.952 -54.045)" fill="#002141"></path><circle id="Ellipse_181" data-name="Ellipse 181" cx="1.209" cy="1.209" r="1.209" transform="translate(909.285 64.339)" fill="#002141"></circle><circle id="Ellipse_182" data-name="Ellipse 182" cx="1.209" cy="1.209" r="1.209" transform="translate(912.695 64.339)" fill="#002141"></circle><circle id="Ellipse_183" data-name="Ellipse 183" cx="1.209" cy="1.209" r="1.209" transform="translate(916.074 64.339)" fill="#002141"></circle><circle id="Ellipse_184" data-name="Ellipse 184" cx="1.209" cy="1.209" r="1.209" transform="translate(919.457 64.339)" fill="#002141"></circle><path id="Path_66" data-name="Path 66" d="M207.431,91.217a1.208,1.208,0,1,1-1.208-1.209A1.208,1.208,0,0,1,207.431,91.217Z" transform="translate(751.134 -39.25)" fill="#002141"></path><circle id="Ellipse_185" data-name="Ellipse 185" cx="1.209" cy="1.209" r="1.209" transform="translate(940.068 54.172)" fill="#002141"></circle><circle id="Ellipse_186" data-name="Ellipse 186" cx="1.209" cy="1.209" r="1.209" transform="translate(943.451 54.172)" fill="#002141"></circle><circle id="Ellipse_187" data-name="Ellipse 187" cx="1.209" cy="1.209" r="1.209" transform="translate(946.833 54.172)" fill="#002141"></circle><circle id="Ellipse_188" data-name="Ellipse 188" cx="1.209" cy="1.209" r="1.209" transform="translate(950.213 54.172)" fill="#002141"></circle><path id="Path_67" data-name="Path 67" d="M217.017,98.349a1.208,1.208,0,1,1-1.208-1.208A1.208,1.208,0,0,1,217.017,98.349Z" transform="translate(746.136 -42.969)" fill="#002141"></path><path id="Path_68" data-name="Path 68" d="M224.079,98.349a1.209,1.209,0,1,1-1.209-1.208A1.208,1.208,0,0,1,224.079,98.349Z" transform="translate(742.453 -42.969)" fill="#002141"></path><path id="Path_69" data-name="Path 69" d="M231.146,98.349a1.209,1.209,0,1,1-1.209-1.208A1.209,1.209,0,0,1,231.146,98.349Z" transform="translate(738.769 -42.969)" fill="#002141"></path><circle id="Ellipse_189" data-name="Ellipse 189" cx="1.209" cy="1.209" r="1.209" transform="translate(957.356 54.172)" fill="#002141"></circle><circle id="Ellipse_190" data-name="Ellipse 190" cx="1.209" cy="1.209" r="1.209" transform="translate(938.86 57.561)" fill="#002141"></circle><circle id="Ellipse_191" data-name="Ellipse 191" cx="1.209" cy="1.209" r="1.209" transform="translate(942.242 57.561)" fill="#002141"></circle><circle id="Ellipse_192" data-name="Ellipse 192" cx="1.209" cy="1.209" r="1.209" transform="translate(945.625 57.561)" fill="#002141"></circle><circle id="Ellipse_193" data-name="Ellipse 193" cx="1.209" cy="1.209" r="1.209" transform="translate(949.004 57.561)" fill="#002141"></circle><circle id="Ellipse_194" data-name="Ellipse 194" cx="1.209" cy="1.209" r="1.209" transform="translate(961.835 57.561)" fill="#002141"></circle><circle id="Ellipse_195" data-name="Ellipse 195" cx="1.209" cy="1.209" r="1.209" transform="translate(965.215 57.561)" fill="#002141"></circle><circle id="Ellipse_196" data-name="Ellipse 196" cx="1.209" cy="1.209" r="1.209" transform="translate(968.597 57.561)" fill="#002141"></circle><circle id="Ellipse_197" data-name="Ellipse 197" cx="1.209" cy="1.209" r="1.209" transform="translate(958.455 57.561)" fill="#002141"></circle><path id="Path_70" data-name="Path 70" d="M168.962,112.563a1.209,1.209,0,1,1-1.208-1.209A1.208,1.208,0,0,1,168.962,112.563Z" transform="translate(771.192 -50.38)" fill="#002141"></path><path id="Path_71" data-name="Path 71" d="M176.029,112.563a1.209,1.209,0,1,1-1.208-1.209A1.208,1.208,0,0,1,176.029,112.563Z" transform="translate(767.508 -50.38)" fill="#002141"></path><circle id="Ellipse_198" data-name="Ellipse 198" cx="1.209" cy="1.209" r="1.209" transform="translate(944.502 60.974)" fill="#002141"></circle><circle id="Ellipse_199" data-name="Ellipse 199" cx="1.209" cy="1.209" r="1.209" transform="translate(947.882 60.974)" fill="#002141"></circle><circle id="Ellipse_200" data-name="Ellipse 200" cx="1.209" cy="1.209" r="1.209" transform="translate(962.977 60.974)" fill="#002141"></circle><circle id="Ellipse_201" data-name="Ellipse 201" cx="1.209" cy="1.209" r="1.209" transform="translate(966.356 60.974)" fill="#002141"></circle><circle id="Ellipse_202" data-name="Ellipse 202" cx="1.209" cy="1.209" r="1.209" transform="translate(969.738 60.974)" fill="#002141"></circle><circle id="Ellipse_203" data-name="Ellipse 203" cx="1.209" cy="1.209" r="1.209" transform="translate(959.598 60.974)" fill="#002141"></circle><circle id="Ellipse_204" data-name="Ellipse 204" cx="1.209" cy="1.209" r="1.209" transform="translate(936.656 64.339)" fill="#002141"></circle><circle id="Ellipse_205" data-name="Ellipse 205" cx="1.209" cy="1.209" r="1.209" transform="translate(940.039 64.339)" fill="#002141"></circle><circle id="Ellipse_206" data-name="Ellipse 206" cx="1.209" cy="1.209" r="1.209" transform="translate(943.421 64.339)" fill="#002141"></circle><circle id="Ellipse_207" data-name="Ellipse 207" cx="1.209" cy="1.209" r="1.209" transform="translate(946.84 64.339)" fill="#002141"></circle><circle id="Ellipse_208" data-name="Ellipse 208" cx="1.209" cy="1.209" r="1.209" transform="translate(950.245 64.339)" fill="#002141"></circle><path id="Path_72" data-name="Path 72" d="M202.4,119.592a1.209,1.209,0,1,1-1.208-1.208A1.209,1.209,0,0,1,202.4,119.592Z" transform="translate(753.755 -54.045)" fill="#002141"></path><path id="Path_73" data-name="Path 73" d="M209.92,119.592a1.209,1.209,0,1,1-1.208-1.208A1.209,1.209,0,0,1,209.92,119.592Z" transform="translate(749.836 -54.045)" fill="#002141"></path><path id="Path_74" data-name="Path 74" d="M216.983,119.592a1.209,1.209,0,1,1-1.209-1.208A1.209,1.209,0,0,1,216.983,119.592Z" transform="translate(746.153 -54.045)" fill="#002141"></path><path id="Path_75" data-name="Path 75" d="M224.108,119.592a1.209,1.209,0,1,1-1.209-1.208A1.209,1.209,0,0,1,224.108,119.592Z" transform="translate(742.438 -54.045)" fill="#002141"></path><path id="Path_76" data-name="Path 76" d="M231.17,119.592a1.209,1.209,0,1,1-1.208-1.208A1.209,1.209,0,0,1,231.17,119.592Z" transform="translate(738.756 -54.045)" fill="#002141"></path><path id="Path_77" data-name="Path 77" d="M238.237,119.592a1.209,1.209,0,1,1-1.208-1.208A1.209,1.209,0,0,1,238.237,119.592Z" transform="translate(735.071 -54.045)" fill="#002141"></path><path id="Path_78" data-name="Path 78" d="M164.179,126.641a1.209,1.209,0,1,1-1.208-1.208A1.208,1.208,0,0,1,164.179,126.641Z" transform="translate(773.686 -57.721)" fill="#002141"></path><circle id="Ellipse_209" data-name="Ellipse 209" cx="1.209" cy="1.209" r="1.209" transform="translate(938.83 67.712)" fill="#002141"></circle><circle id="Ellipse_210" data-name="Ellipse 210" cx="1.209" cy="1.209" r="1.209" transform="translate(942.213 67.712)" fill="#002141"></circle><circle id="Ellipse_211" data-name="Ellipse 211" cx="1.209" cy="1.209" r="1.209" transform="translate(945.631 67.712)" fill="#002141"></circle><circle id="Ellipse_212" data-name="Ellipse 212" cx="1.209" cy="1.209" r="1.209" transform="translate(949.036 67.712)" fill="#002141"></circle><path id="Path_79" data-name="Path 79" d="M205.712,126.641a1.209,1.209,0,1,1-1.208-1.208A1.208,1.208,0,0,1,205.712,126.641Z" transform="translate(752.03 -57.721)" fill="#002141"></path><path id="Path_80" data-name="Path 80" d="M199.083,126.641a1.209,1.209,0,1,1-1.209-1.208A1.208,1.208,0,0,1,199.083,126.641Z" transform="translate(755.486 -57.721)" fill="#002141"></path><path id="Path_81" data-name="Path 81" d="M212.446,126.641a1.209,1.209,0,1,1-1.209-1.208A1.208,1.208,0,0,1,212.446,126.641Z" transform="translate(748.52 -57.721)" fill="#002141"></path><circle id="Ellipse_213" data-name="Ellipse 213" cx="1.209" cy="1.209" r="1.209" transform="translate(961.818 67.712)" fill="#002141"></circle><circle id="Ellipse_214" data-name="Ellipse 214" cx="1.209" cy="1.209" r="1.209" transform="translate(965.229 67.712)" fill="#002141"></circle><circle id="Ellipse_215" data-name="Ellipse 215" cx="1.209" cy="1.209" r="1.209" transform="translate(968.608 67.712)" fill="#002141"></circle><circle id="Ellipse_216" data-name="Ellipse 216" cx="1.209" cy="1.209" r="1.209" transform="translate(971.99 67.712)" fill="#002141"></circle><circle id="Ellipse_217" data-name="Ellipse 217" cx="1.209" cy="1.209" r="1.209" transform="translate(934.333 71.114)" fill="#002141"></circle><circle id="Ellipse_218" data-name="Ellipse 218" cx="1.209" cy="1.209" r="1.209" transform="translate(937.715 71.114)" fill="#002141"></circle><circle id="Ellipse_219" data-name="Ellipse 219" cx="1.209" cy="1.209" r="1.209" transform="translate(941.097 71.114)" fill="#002141"></circle><circle id="Ellipse_220" data-name="Ellipse 220" cx="1.209" cy="1.209" r="1.209" transform="translate(944.479 71.114)" fill="#002141"></circle><circle id="Ellipse_221" data-name="Ellipse 221" cx="1.209" cy="1.209" r="1.209" transform="translate(947.828 71.114)" fill="#002141"></circle><circle id="Ellipse_222" data-name="Ellipse 222" cx="1.209" cy="1.209" r="1.209" transform="translate(950.801 71.137)" fill="#002141"></circle><circle id="Ellipse_223" data-name="Ellipse 223" cx="1.209" cy="1.209" r="1.209" transform="translate(956.679 71.114)" fill="#002141"></circle><circle id="Ellipse_224" data-name="Ellipse 224" cx="1.209" cy="1.209" r="1.209" transform="translate(959.869 71.114)" fill="#002141"></circle><path id="Path_82" data-name="Path 82" d="M221.771,133.748a1.209,1.209,0,1,1-1.209-1.208A1.209,1.209,0,0,1,221.771,133.748Z" transform="translate(743.656 -61.426)" fill="#002141"></path><path id="Path_83" data-name="Path 83" d="M228.9,133.748a1.209,1.209,0,1,1-1.209-1.208A1.209,1.209,0,0,1,228.9,133.748Z" transform="translate(739.941 -61.426)" fill="#002141"></path><path id="Path_84" data-name="Path 84" d="M235.959,133.748a1.208,1.208,0,1,1-1.208-1.208A1.208,1.208,0,0,1,235.959,133.748Z" transform="translate(736.259 -61.426)" fill="#002141"></path><circle id="Ellipse_225" data-name="Ellipse 225" cx="1.209" cy="1.209" r="1.209" transform="translate(973.183 71.114)" fill="#002141"></circle><circle id="Ellipse_226" data-name="Ellipse 226" cx="1.209" cy="1.209" r="1.209" transform="translate(933.227 74.518)" fill="#002141"></circle><circle id="Ellipse_227" data-name="Ellipse 227" cx="1.209" cy="1.209" r="1.209" transform="translate(936.607 74.518)" fill="#002141"></circle><circle id="Ellipse_228" data-name="Ellipse 228" cx="1.209" cy="1.209" r="1.209" transform="translate(939.989 74.518)" fill="#002141"></circle><circle id="Ellipse_229" data-name="Ellipse 229" cx="1.209" cy="1.209" r="1.209" transform="translate(943.371 74.518)" fill="#002141"></circle><circle id="Ellipse_230" data-name="Ellipse 230" cx="1.209" cy="1.209" r="1.209" transform="translate(946.754 74.518)" fill="#002141"></circle><circle id="Ellipse_231" data-name="Ellipse 231" cx="1.209" cy="1.209" r="1.209" transform="translate(950.245 74.518)" fill="#002141"></circle><path id="Path_85" data-name="Path 85" d="M202.4,140.862a1.209,1.209,0,1,1-1.208-1.209A1.208,1.208,0,0,1,202.4,140.862Z" transform="translate(753.755 -65.135)" fill="#002141"></path><path id="Path_86" data-name="Path 86" d="M202.4,133.862a1.209,1.209,0,1,1-1.208-1.209A1.208,1.208,0,0,1,202.4,133.862Z" transform="translate(753.755 -61.485)" fill="#002141"></path><path id="Path_87" data-name="Path 87" d="M209.95,140.862a1.208,1.208,0,1,1-1.208-1.209A1.208,1.208,0,0,1,209.95,140.862Z" transform="translate(749.82 -65.135)" fill="#002141"></path><path id="Path_88" data-name="Path 88" d="M217.017,140.862a1.208,1.208,0,1,1-1.208-1.209A1.208,1.208,0,0,1,217.017,140.862Z" transform="translate(746.136 -65.135)" fill="#002141"></path><path id="Path_89" data-name="Path 89" d="M224.079,140.862a1.209,1.209,0,1,1-1.209-1.209A1.208,1.208,0,0,1,224.079,140.862Z" transform="translate(742.453 -65.135)" fill="#002141"></path><path id="Path_90" data-name="Path 90" d="M231.2,140.862A1.209,1.209,0,1,1,230,139.653,1.208,1.208,0,0,1,231.2,140.862Z" transform="translate(738.738 -65.135)" fill="#002141"></path><path id="Path_91" data-name="Path 91" d="M238.267,140.862a1.208,1.208,0,1,1-1.208-1.209A1.208,1.208,0,0,1,238.267,140.862Z" transform="translate(735.056 -65.135)" fill="#002141"></path><path id="Path_92" data-name="Path 92" d="M245.334,140.862a1.208,1.208,0,1,1-1.208-1.209A1.208,1.208,0,0,1,245.334,140.862Z" transform="translate(731.371 -65.135)" fill="#002141"></path><path id="Path_93" data-name="Path 93" d="M157.046,147.891a1.209,1.209,0,1,1-1.209-1.208A1.208,1.208,0,0,1,157.046,147.891Z" transform="translate(777.405 -68.801)" fill="#002141"></path><circle id="Ellipse_232" data-name="Ellipse 232" cx="1.209" cy="1.209" r="1.209" transform="translate(935.416 77.882)" fill="#002141"></circle><circle id="Ellipse_233" data-name="Ellipse 233" cx="1.209" cy="1.209" r="1.209" transform="translate(938.799 77.882)" fill="#002141"></circle><circle id="Ellipse_234" data-name="Ellipse 234" cx="1.209" cy="1.209" r="1.209" transform="translate(942.217 77.882)" fill="#002141"></circle><circle id="Ellipse_235" data-name="Ellipse 235" cx="1.209" cy="1.209" r="1.209" transform="translate(930.919 81.284)" fill="#002141"></circle><circle id="Ellipse_236" data-name="Ellipse 236" cx="1.209" cy="1.209" r="1.209" transform="translate(934.301 81.284)" fill="#002141"></circle><circle id="Ellipse_237" data-name="Ellipse 237" cx="1.209" cy="1.209" r="1.209" transform="translate(937.684 81.284)" fill="#002141"></circle><circle id="Ellipse_238" data-name="Ellipse 238" cx="1.209" cy="1.209" r="1.209" transform="translate(941.065 81.284)" fill="#002141"></circle><circle id="Ellipse_239" data-name="Ellipse 239" cx="1.209" cy="1.209" r="1.209" transform="translate(929.713 84.688)" fill="#002141"></circle><circle id="Ellipse_240" data-name="Ellipse 240" cx="1.209" cy="1.209" r="1.209" transform="translate(933.092 84.688)" fill="#002141"></circle><circle id="Ellipse_241" data-name="Ellipse 241" cx="1.209" cy="1.209" r="1.209" transform="translate(936.475 84.688)" fill="#002141"></circle><circle id="Ellipse_242" data-name="Ellipse 242" cx="1.209" cy="1.209" r="1.209" transform="translate(939.856 84.688)" fill="#002141"></circle><path id="Path_94" data-name="Path 94" d="M245.4,147.966a1.209,1.209,0,1,0,1.209-1.208A1.209,1.209,0,0,0,245.4,147.966Z" transform="translate(730.075 -68.84)" fill="#002141"></path><path id="Path_95" data-name="Path 95" d="M238.335,147.966a1.209,1.209,0,1,0,1.209-1.208A1.209,1.209,0,0,0,238.335,147.966Z" transform="translate(733.76 -68.84)" fill="#002141"></path><path id="Path_96" data-name="Path 96" d="M231.269,147.966a1.208,1.208,0,1,0,1.208-1.208A1.208,1.208,0,0,0,231.269,147.966Z" transform="translate(737.444 -68.84)" fill="#002141"></path><circle id="Ellipse_243" data-name="Ellipse 243" cx="1.209" cy="1.209" r="1.209" transform="translate(965.324 77.881)" fill="#002141"></circle><circle id="Ellipse_244" data-name="Ellipse 244" cx="1.209" cy="1.209" r="1.209" transform="translate(976.665 81.319)" fill="#002141"></circle><circle id="Ellipse_245" data-name="Ellipse 245" cx="1.209" cy="1.209" r="1.209" transform="translate(973.283 81.319)" fill="#002141"></circle><circle id="Ellipse_246" data-name="Ellipse 246" cx="1.209" cy="1.209" r="1.209" transform="translate(969.9 81.319)" fill="#002141"></circle><circle id="Ellipse_247" data-name="Ellipse 247" cx="1.209" cy="1.209" r="1.209" transform="translate(966.519 81.319)" fill="#002141"></circle><path id="Path_97" data-name="Path 97" d="M250.194,162.187a1.209,1.209,0,1,0,1.209-1.208A1.209,1.209,0,0,0,250.194,162.187Z" transform="translate(727.576 -76.255)" fill="#002141"></path><path id="Path_98" data-name="Path 98" d="M243.132,162.187a1.209,1.209,0,1,0,1.208-1.208A1.208,1.208,0,0,0,243.132,162.187Z" transform="translate(731.259 -76.255)" fill="#002141"></path><path id="Path_99" data-name="Path 99" d="M236.065,162.187a1.209,1.209,0,1,0,1.208-1.208A1.208,1.208,0,0,0,236.065,162.187Z" transform="translate(734.943 -76.255)" fill="#002141"></path><path id="Path_100" data-name="Path 100" d="M229,162.187a1.209,1.209,0,1,0,1.208-1.208A1.208,1.208,0,0,0,229,162.187Z" transform="translate(738.629 -76.255)" fill="#002141"></path><path id="Path_101" data-name="Path 101" d="M313.613,91.2a1.209,1.209,0,1,1-1.209-1.208A1.209,1.209,0,0,1,313.613,91.2Z" transform="translate(695.77 -39.239)" fill="#002141"></path><path id="Path_102" data-name="Path 102" d="M320.675,91.2a1.209,1.209,0,1,1-1.208-1.208A1.209,1.209,0,0,1,320.675,91.2Z" transform="translate(692.087 -39.239)" fill="#002141"></path><path id="Path_103" data-name="Path 103" d="M327.8,91.2a1.209,1.209,0,1,1-1.208-1.208A1.209,1.209,0,0,1,327.8,91.2Z" transform="translate(688.372 -39.239)" fill="#002141"></path><path id="Path_104" data-name="Path 104" d="M334.863,91.2a1.209,1.209,0,1,1-1.209-1.208A1.209,1.209,0,0,1,334.863,91.2Z" transform="translate(684.689 -39.239)" fill="#002141"></path><circle id="Ellipse_248" data-name="Ellipse 248" cx="1.209" cy="1.209" r="1.209" transform="translate(987.128 84.685)" fill="#002141"></circle><circle id="Ellipse_249" data-name="Ellipse 249" cx="1.209" cy="1.209" r="1.209" transform="translate(988.766 81.305)" fill="#002141"></circle><path id="Path_105" data-name="Path 105" d="M277.845,146.709a1.209,1.209,0,1,1-1.208,1.208A1.208,1.208,0,0,1,277.845,146.709Z" transform="translate(713.789 -68.814)" fill="#002141"></path><circle id="Ellipse_250" data-name="Ellipse 250" cx="1.209" cy="1.209" r="1.209" transform="translate(992.057 74.515)" fill="#002141"></circle><path id="Path_106" data-name="Path 106" d="M305.3,90.023a1.209,1.209,0,1,1-1.209,1.209A1.209,1.209,0,0,1,305.3,90.023Z" transform="translate(699.473 -39.258)" fill="#002141"></path><path id="Path_107" data-name="Path 107" d="M306.779,105.387a1.209,1.209,0,1,1-1.209-1.209A1.209,1.209,0,0,1,306.779,105.387Z" transform="translate(699.333 -46.638)" fill="#002141"></path><path id="Path_108" data-name="Path 108" d="M313.841,105.387a1.209,1.209,0,1,1-1.209-1.209A1.209,1.209,0,0,1,313.841,105.387Z" transform="translate(695.65 -46.638)" fill="#002141"></path><path id="Path_109" data-name="Path 109" d="M320.966,105.387a1.209,1.209,0,1,1-1.209-1.209A1.209,1.209,0,0,1,320.966,105.387Z" transform="translate(691.936 -46.638)" fill="#002141"></path><path id="Path_110" data-name="Path 110" d="M328.029,105.387a1.209,1.209,0,1,1-1.209-1.209A1.209,1.209,0,0,1,328.029,105.387Z" transform="translate(688.253 -46.638)" fill="#002141"></path><circle id="Ellipse_251" data-name="Ellipse 251" cx="1.209" cy="1.209" r="1.209" transform="translate(1000.295 57.557)" fill="#002141"></circle><path id="Path_111" data-name="Path 111" d="M303.4,112.473a1.209,1.209,0,1,1-1.209-1.208A1.209,1.209,0,0,1,303.4,112.473Z" transform="translate(701.093 -50.333)" fill="#002141"></path><path id="Path_112" data-name="Path 112" d="M310.466,112.473a1.209,1.209,0,1,1-1.209-1.208A1.209,1.209,0,0,1,310.466,112.473Z" transform="translate(697.41 -50.333)" fill="#002141"></path><path id="Path_113" data-name="Path 113" d="M317.591,112.473a1.209,1.209,0,1,1-1.209-1.208A1.209,1.209,0,0,1,317.591,112.473Z" transform="translate(693.695 -50.333)" fill="#002141"></path><path id="Path_114" data-name="Path 114" d="M324.654,112.473a1.209,1.209,0,1,1-1.209-1.208A1.209,1.209,0,0,1,324.654,112.473Z" transform="translate(690.013 -50.333)" fill="#002141"></path><circle id="Ellipse_252" data-name="Ellipse 252" cx="1.209" cy="1.209" r="1.209" transform="translate(998.68 60.949)" fill="#002141"></circle><path id="Path_115" data-name="Path 115" d="M299.946,119.559a1.209,1.209,0,1,1-1.209-1.208A1.209,1.209,0,0,1,299.946,119.559Z" transform="translate(702.896 -54.028)" fill="#002141"></path><path id="Path_116" data-name="Path 116" d="M307.008,119.559a1.209,1.209,0,1,1-1.208-1.208A1.208,1.208,0,0,1,307.008,119.559Z" transform="translate(699.213 -54.028)" fill="#002141"></path><path id="Path_117" data-name="Path 117" d="M314.133,119.559a1.209,1.209,0,1,1-1.208-1.208A1.208,1.208,0,0,1,314.133,119.559Z" transform="translate(695.498 -54.028)" fill="#002141"></path><path id="Path_118" data-name="Path 118" d="M321.2,119.559a1.209,1.209,0,1,1-1.209-1.208A1.209,1.209,0,0,1,321.2,119.559Z" transform="translate(691.815 -54.028)" fill="#002141"></path><path id="Path_119" data-name="Path 119" d="M291.633,118.388a1.208,1.208,0,1,1-1.208,1.208A1.208,1.208,0,0,1,291.633,118.388Z" transform="translate(706.6 -54.047)" fill="#002141"></path><path id="Path_120" data-name="Path 120" d="M296.45,126.646a1.208,1.208,0,1,1-1.208-1.208A1.208,1.208,0,0,1,296.45,126.646Z" transform="translate(704.718 -57.723)" fill="#002141"></path><path id="Path_121" data-name="Path 121" d="M303.513,126.646a1.208,1.208,0,1,1-1.208-1.208A1.208,1.208,0,0,1,303.513,126.646Z" transform="translate(701.035 -57.723)" fill="#002141"></path><path id="Path_122" data-name="Path 122" d="M310.638,126.646a1.208,1.208,0,1,1-1.208-1.208A1.208,1.208,0,0,1,310.638,126.646Z" transform="translate(697.32 -57.723)" fill="#002141"></path><path id="Path_123" data-name="Path 123" d="M317.7,126.646a1.208,1.208,0,1,1-1.208-1.208A1.208,1.208,0,0,1,317.7,126.646Z" transform="translate(693.638 -57.723)" fill="#002141"></path><circle id="Ellipse_253" data-name="Ellipse 253" cx="1.209" cy="1.209" r="1.209" transform="translate(995.352 67.732)" fill="#002141"></circle><circle id="Ellipse_254" data-name="Ellipse 254" cx="1.209" cy="1.209" r="1.209" transform="translate(997.108 71.106)" fill="#002141"></circle><circle id="Ellipse_255" data-name="Ellipse 255" cx="1.209" cy="1.209" r="1.209" transform="translate(1000.488 71.106)" fill="#002141"></circle><circle id="Ellipse_256" data-name="Ellipse 256" cx="1.209" cy="1.209" r="1.209" transform="translate(1003.898 71.106)" fill="#002141"></circle><circle id="Ellipse_257" data-name="Ellipse 257" cx="1.209" cy="1.209" r="1.209" transform="translate(1007.278 71.106)" fill="#002141"></circle><circle id="Ellipse_258" data-name="Ellipse 258" cx="1.209" cy="1.209" r="1.209" transform="translate(993.709 71.124)" fill="#002141"></circle><path id="Path_124" data-name="Path 124" d="M310.2,98.3a1.208,1.208,0,1,1-1.208-1.208A1.209,1.209,0,0,1,310.2,98.3Z" transform="translate(697.551 -42.943)" fill="#002141"></path><path id="Path_125" data-name="Path 125" d="M317.259,98.3a1.208,1.208,0,1,1-1.208-1.208A1.209,1.209,0,0,1,317.259,98.3Z" transform="translate(693.868 -42.943)" fill="#002141"></path><path id="Path_126" data-name="Path 126" d="M324.384,98.3a1.208,1.208,0,1,1-1.208-1.208A1.209,1.209,0,0,1,324.384,98.3Z" transform="translate(690.153 -42.943)" fill="#002141"></path><path id="Path_127" data-name="Path 127" d="M331.447,98.3a1.208,1.208,0,1,1-1.208-1.208A1.209,1.209,0,0,1,331.447,98.3Z" transform="translate(686.471 -42.943)" fill="#002141"></path><circle id="Ellipse_259" data-name="Ellipse 259" cx="1.209" cy="1.209" r="1.209" transform="translate(1001.93 54.166)" fill="#002141"></circle><circle id="Ellipse_260" data-name="Ellipse 260" cx="1.209" cy="1.209" r="1.209" transform="translate(990.527 84.667)" fill="#002141"></circle><circle id="Ellipse_261" data-name="Ellipse 261" cx="1.209" cy="1.209" r="1.209" transform="translate(992.165 81.287)" fill="#002141"></circle><circle id="Ellipse_262" data-name="Ellipse 262" cx="1.209" cy="1.209" r="1.209" transform="translate(993.825 77.877)" fill="#002141"></circle><circle id="Ellipse_263" data-name="Ellipse 263" cx="1.209" cy="1.209" r="1.209" transform="translate(995.456 74.497)" fill="#002141"></circle><circle id="Ellipse_264" data-name="Ellipse 264" cx="1.209" cy="1.209" r="1.209" transform="translate(997.108 71.106)" fill="#002141"></circle><circle id="Ellipse_265" data-name="Ellipse 265" cx="1.209" cy="1.209" r="1.209" transform="translate(993.907 84.667)" fill="#002141"></circle><circle id="Ellipse_266" data-name="Ellipse 266" cx="1.209" cy="1.209" r="1.209" transform="translate(995.545 81.287)" fill="#002141"></circle><circle id="Ellipse_267" data-name="Ellipse 267" cx="1.209" cy="1.209" r="1.209" transform="translate(997.205 77.877)" fill="#002141"></circle><circle id="Ellipse_268" data-name="Ellipse 268" cx="1.209" cy="1.209" r="1.209" transform="translate(998.836 74.497)" fill="#002141"></circle><circle id="Ellipse_269" data-name="Ellipse 269" cx="1.209" cy="1.209" r="1.209" transform="translate(1000.488 71.106)" fill="#002141"></circle><circle id="Ellipse_270" data-name="Ellipse 270" cx="1.209" cy="1.209" r="1.209" transform="translate(997.317 84.667)" fill="#002141"></circle><circle id="Ellipse_271" data-name="Ellipse 271" cx="1.209" cy="1.209" r="1.209" transform="translate(998.955 81.287)" fill="#002141"></circle><circle id="Ellipse_272" data-name="Ellipse 272" cx="1.209" cy="1.209" r="1.209" transform="translate(1000.615 77.877)" fill="#002141"></circle><circle id="Ellipse_273" data-name="Ellipse 273" cx="1.209" cy="1.209" r="1.209" transform="translate(1002.246 74.497)" fill="#002141"></circle><circle id="Ellipse_274" data-name="Ellipse 274" cx="1.209" cy="1.209" r="1.209" transform="translate(1003.898 71.106)" fill="#002141"></circle><circle id="Ellipse_275" data-name="Ellipse 275" cx="1.209" cy="1.209" r="1.209" transform="translate(1000.697 84.675)" fill="#002141"></circle><circle id="Ellipse_276" data-name="Ellipse 276" cx="1.209" cy="1.209" r="1.209" transform="translate(1002.335 81.295)" fill="#002141"></circle><circle id="Ellipse_277" data-name="Ellipse 277" cx="1.209" cy="1.209" r="1.209" transform="translate(1003.995 77.885)" fill="#002141"></circle><circle id="Ellipse_278" data-name="Ellipse 278" cx="1.209" cy="1.209" r="1.209" transform="translate(1005.626 74.505)" fill="#002141"></circle><circle id="Ellipse_279" data-name="Ellipse 279" cx="1.209" cy="1.209" r="1.209" transform="translate(1004.066 84.675)" fill="#002141"></circle><circle id="Ellipse_280" data-name="Ellipse 280" cx="1.209" cy="1.209" r="1.209" transform="translate(1005.703 81.295)" fill="#002141"></circle><path id="Path_128" data-name="Path 128" d="M313.237,146.688a1.209,1.209,0,1,1-1.208,1.209A1.208,1.208,0,0,1,313.237,146.688Z" transform="translate(695.335 -68.803)" fill="#002141"></path><path id="Path_129" data-name="Path 129" d="M316.645,139.626a1.209,1.209,0,1,1-1.208,1.208A1.209,1.209,0,0,1,316.645,139.626Z" transform="translate(693.558 -65.121)" fill="#002141"></path><circle id="Ellipse_281" data-name="Ellipse 281" cx="1.209" cy="1.209" r="1.209" transform="translate(1007.422 84.675)" fill="#002141"></circle><circle id="Ellipse_282" data-name="Ellipse 282" cx="1.209" cy="1.209" r="1.209" transform="translate(1009.06 81.295)" fill="#002141"></circle><path id="Path_130" data-name="Path 130" d="M320.25,146.688a1.209,1.209,0,1,1-1.208,1.209A1.208,1.208,0,0,1,320.25,146.688Z" transform="translate(691.678 -68.803)" fill="#002141"></path><path id="Path_131" data-name="Path 131" d="M323.658,139.626a1.209,1.209,0,1,1-1.208,1.208A1.208,1.208,0,0,1,323.658,139.626Z" transform="translate(689.901 -65.121)" fill="#002141"></path><path id="Path_132" data-name="Path 132" d="M320.425,160.876a1.209,1.209,0,1,1-1.209,1.208A1.208,1.208,0,0,1,320.425,160.876Z" transform="translate(691.588 -76.201)" fill="#002141"></path><circle id="Ellipse_283" data-name="Ellipse 283" cx="1.209" cy="1.209" r="1.209" transform="translate(1012.441 81.295)" fill="#002141"></circle><circle id="Ellipse_284" data-name="Ellipse 284" cx="1.209" cy="1.209" r="1.209" transform="translate(1014.102 77.885)" fill="#002141"></circle><circle id="Ellipse_285" data-name="Ellipse 285" cx="1.209" cy="1.209" r="1.209" transform="translate(1015.732 74.505)" fill="#002141"></circle><circle id="Ellipse_286" data-name="Ellipse 286" cx="1.209" cy="1.209" r="1.209" transform="translate(1014.174 84.675)" fill="#002141"></circle><circle id="Ellipse_287" data-name="Ellipse 287" cx="1.209" cy="1.209" r="1.209" transform="translate(1015.781 81.295)" fill="#002141"></circle><circle id="Ellipse_288" data-name="Ellipse 288" cx="1.209" cy="1.209" r="1.209" transform="translate(1017.041 77.885)" fill="#002141"></circle><circle id="Ellipse_289" data-name="Ellipse 289" cx="1.209" cy="1.209" r="1.209" transform="translate(1019.103 74.505)" fill="#002141"></circle><circle id="Ellipse_290" data-name="Ellipse 290" cx="1.209" cy="1.209" r="1.209" transform="translate(1017.097 84.675)" fill="#002141"></circle><path id="Path_133" data-name="Path 133" d="M337.9,153.813a1.209,1.209,0,1,1-1.208,1.209A1.208,1.208,0,0,1,337.9,153.813Z" transform="translate(682.478 -72.519)" fill="#002141"></path><circle id="Ellipse_291" data-name="Ellipse 291" cx="1.209" cy="1.209" r="1.209" transform="translate(1019.983 77.885)" fill="#002141"></circle><circle id="Ellipse_292" data-name="Ellipse 292" cx="1.209" cy="1.209" r="1.209" transform="translate(1022.486 74.505)" fill="#002141"></circle><circle id="Ellipse_293" data-name="Ellipse 293" cx="1.209" cy="1.209" r="1.209" transform="translate(1020.019 84.675)" fill="#002141"></circle><path id="Path_134" data-name="Path 134" d="M345.75,146.688a1.209,1.209,0,1,1-1.208,1.209A1.208,1.208,0,0,1,345.75,146.688Z" transform="translate(678.382 -68.803)" fill="#002141"></path><circle id="Ellipse_294" data-name="Ellipse 294" cx="1.209" cy="1.209" r="1.209" transform="translate(1025.864 74.505)" fill="#002141"></circle><path id="Path_135" data-name="Path 135" d="M325.312,91.232a1.209,1.209,0,1,1,1.208,1.208A1.209,1.209,0,0,1,325.312,91.232Z" transform="translate(688.409 -39.258)" fill="#002141"></path><path id="Path_136" data-name="Path 136" d="M318.25,91.232a1.208,1.208,0,1,1,1.208,1.208A1.209,1.209,0,0,1,318.25,91.232Z" transform="translate(692.091 -39.258)" fill="#002141"></path><path id="Path_137" data-name="Path 137" d="M311.125,91.232a1.208,1.208,0,1,1,1.208,1.208A1.209,1.209,0,0,1,311.125,91.232Z" transform="translate(695.807 -39.258)" fill="#002141"></path><circle id="Ellipse_295" data-name="Ellipse 295" cx="1.209" cy="1.209" r="1.209" transform="translate(1025.864 74.505)" fill="#002141"></circle><circle id="Ellipse_296" data-name="Ellipse 296" cx="1.209" cy="1.209" r="1.209" transform="translate(1025.864 77.885)" fill="#002141"></circle><circle id="Ellipse_297" data-name="Ellipse 297" cx="1.209" cy="1.209" r="1.209" transform="translate(1025.864 81.295)" fill="#002141"></circle><circle id="Ellipse_298" data-name="Ellipse 298" cx="1.209" cy="1.209" r="1.209" transform="translate(1025.864 84.675)" fill="#002141"></circle><circle id="Ellipse_299" data-name="Ellipse 299" cx="1.209" cy="1.209" r="1.209" transform="translate(1022.49 81.295)" fill="#002141"></circle><path id="Path_138" data-name="Path 138" d="M345.812,163.271a1.209,1.209,0,1,1,1.209-1.208A1.209,1.209,0,0,1,345.812,163.271Z" transform="translate(678.35 -76.19)" fill="#002141"></path><circle id="Ellipse_300" data-name="Ellipse 300" cx="1.209" cy="1.209" r="1.209" transform="translate(1023.708 37.188)" fill="#002141"></circle><circle id="Ellipse_301" data-name="Ellipse 301" cx="1.209" cy="1.209" r="1.209" transform="translate(1022.07 40.568)" fill="#002141"></circle><circle id="Ellipse_302" data-name="Ellipse 302" cx="1.209" cy="1.209" r="1.209" transform="translate(1020.41 43.978)" fill="#002141"></circle><circle id="Ellipse_303" data-name="Ellipse 303" cx="1.209" cy="1.209" r="1.209" transform="translate(1018.779 47.358)" fill="#002141"></circle><circle id="Ellipse_304" data-name="Ellipse 304" cx="1.209" cy="1.209" r="1.209" transform="translate(1013.728 50.766)" fill="#002141"></circle><circle id="Ellipse_305" data-name="Ellipse 305" cx="1.209" cy="1.209" r="1.209" transform="translate(1010.348 50.766)" fill="#002141"></circle><circle id="Ellipse_306" data-name="Ellipse 306" cx="1.209" cy="1.209" r="1.209" transform="translate(1006.938 50.766)" fill="#002141"></circle><circle id="Ellipse_307" data-name="Ellipse 307" cx="1.209" cy="1.209" r="1.209" transform="translate(1020.309 37.205)" fill="#002141"></circle><circle id="Ellipse_308" data-name="Ellipse 308" cx="1.209" cy="1.209" r="1.209" transform="translate(1018.518 42.826) rotate(-82.16)" fill="#002141"></circle><circle id="Ellipse_309" data-name="Ellipse 309" cx="1.209" cy="1.209" r="1.209" transform="translate(1017.011 43.995)" fill="#002141"></circle><circle id="Ellipse_310" data-name="Ellipse 310" cx="1.209" cy="1.209" r="1.209" transform="translate(1015.38 47.375)" fill="#002141"></circle><circle id="Ellipse_311" data-name="Ellipse 311" cx="1.209" cy="1.209" r="1.209" transform="translate(1016.929 37.205)" fill="#002141"></circle><circle id="Ellipse_312" data-name="Ellipse 312" cx="1.209" cy="1.209" r="1.209" transform="translate(1015.291 40.585)" fill="#002141"></circle><circle id="Ellipse_313" data-name="Ellipse 313" cx="1.209" cy="1.209" r="1.209" transform="translate(1013.631 43.995)" fill="#002141"></circle><circle id="Ellipse_314" data-name="Ellipse 314" cx="1.209" cy="1.209" r="1.209" transform="translate(1012 47.375)" fill="#002141"></circle><circle id="Ellipse_315" data-name="Ellipse 315" cx="1.209" cy="1.209" r="1.209" transform="translate(1013.519 37.205)" fill="#002141"></circle><circle id="Ellipse_316" data-name="Ellipse 316" cx="1.209" cy="1.209" r="1.209" transform="translate(1011.881 40.585)" fill="#002141"></circle><circle id="Ellipse_317" data-name="Ellipse 317" cx="1.209" cy="1.209" r="1.209" transform="translate(1010.221 43.995)" fill="#002141"></circle><circle id="Ellipse_318" data-name="Ellipse 318" cx="1.209" cy="1.209" r="1.209" transform="translate(1008.59 47.375)" fill="#002141"></circle><circle id="Ellipse_319" data-name="Ellipse 319" cx="1.209" cy="1.209" r="1.209" transform="translate(1010.139 37.197)" fill="#002141"></circle><ellipse id="Ellipse_320" data-name="Ellipse 320" cx="1.209" cy="1.209" rx="1.209" ry="1.209" transform="translate(1008.354 42.827) rotate(-82.54)" fill="#002141"></ellipse><circle id="Ellipse_321" data-name="Ellipse 321" cx="1.209" cy="1.209" r="1.209" transform="translate(1006.841 43.987)" fill="#002141"></circle><circle id="Ellipse_322" data-name="Ellipse 322" cx="1.209" cy="1.209" r="1.209" transform="translate(1005.21 47.367)" fill="#002141"></circle><circle id="Ellipse_323" data-name="Ellipse 323" cx="1.209" cy="1.209" r="1.209" transform="translate(1006.77 37.197)" fill="#002141"></circle><ellipse id="Ellipse_324" data-name="Ellipse 324" cx="1.209" cy="1.209" rx="1.209" ry="1.209" transform="translate(1004.988 42.831) rotate(-82.67)" fill="#002141"></ellipse><circle id="Ellipse_325" data-name="Ellipse 325" cx="1.209" cy="1.209" r="1.209" transform="translate(1003.472 43.987)" fill="#002141"></circle><circle id="Ellipse_326" data-name="Ellipse 326" cx="1.209" cy="1.209" r="1.209" transform="translate(1001.841 47.367)" fill="#002141"></circle><path id="Path_139" data-name="Path 139" d="M304.983,64.09a1.209,1.209,0,1,1,1.209-1.209A1.208,1.208,0,0,1,304.983,64.09Z" transform="translate(699.639 -24.476)" fill="#002141"></path><circle id="Ellipse_327" data-name="Ellipse 327" cx="1.209" cy="1.209" r="1.209" transform="translate(1001.775 40.577)" fill="#002141"></circle><circle id="Ellipse_328" data-name="Ellipse 328" cx="1.209" cy="1.209" r="1.209" transform="translate(1000.115 43.987)" fill="#002141"></circle><circle id="Ellipse_329" data-name="Ellipse 329" cx="1.209" cy="1.209" r="1.209" transform="translate(998.484 47.367)" fill="#002141"></circle><circle id="Ellipse_330" data-name="Ellipse 330" cx="1.209" cy="1.209" r="1.209" transform="translate(1000.032 37.197)" fill="#002141"></circle><circle id="Ellipse_331" data-name="Ellipse 331" cx="1.209" cy="1.209" r="1.209" transform="translate(998.395 40.577)" fill="#002141"></circle><circle id="Ellipse_332" data-name="Ellipse 332" cx="1.209" cy="1.209" r="1.209" transform="translate(996.734 43.987)" fill="#002141"></circle><circle id="Ellipse_333" data-name="Ellipse 333" cx="1.209" cy="1.209" r="1.209" transform="translate(995.104 47.367)" fill="#002141"></circle><circle id="Ellipse_334" data-name="Ellipse 334" cx="1.209" cy="1.209" r="1.209" transform="translate(996.662 37.197)" fill="#002141"></circle><circle id="Ellipse_335" data-name="Ellipse 335" cx="1.209" cy="1.209" r="1.209" transform="translate(995.055 40.577)" fill="#002141"></circle><circle id="Ellipse_336" data-name="Ellipse 336" cx="1.209" cy="1.209" r="1.209" transform="translate(993.794 43.987)" fill="#002141"></circle><circle id="Ellipse_337" data-name="Ellipse 337" cx="1.209" cy="1.209" r="1.209" transform="translate(991.733 47.367)" fill="#002141"></circle><circle id="Ellipse_338" data-name="Ellipse 338" cx="1.209" cy="1.209" r="1.209" transform="translate(993.739 37.197)" fill="#002141"></circle><circle id="Ellipse_339" data-name="Ellipse 339" cx="1.209" cy="1.209" r="1.209" transform="translate(991.536 42.843) rotate(-83.209)" fill="#002141"></circle><circle id="Ellipse_340" data-name="Ellipse 340" cx="1.209" cy="1.209" r="1.209" transform="translate(990.852 43.987)" fill="#002141"></circle><path id="Path_140" data-name="Path 140" d="M273.508,85.34a1.209,1.209,0,1,1,1.208-1.209A1.209,1.209,0,0,1,273.508,85.34Z" transform="translate(716.051 -35.556)" fill="#002141"></path><circle id="Ellipse_341" data-name="Ellipse 341" cx="1.209" cy="1.209" r="1.209" transform="translate(990.816 37.197)" fill="#002141"></circle><circle id="Ellipse_342" data-name="Ellipse 342" cx="1.209" cy="1.209" r="1.209" transform="translate(987.912 43.987)" fill="#002141"></circle><circle id="Ellipse_343" data-name="Ellipse 343" cx="1.209" cy="1.209" r="1.209" transform="translate(984.972 47.367)" fill="#002141"></circle><circle id="Ellipse_344" data-name="Ellipse 344" cx="1.209" cy="1.209" r="1.209" transform="translate(984.972 47.367)" fill="#002141"></circle><circle id="Ellipse_345" data-name="Ellipse 345" cx="1.209" cy="1.209" r="1.209" transform="translate(984.972 43.987)" fill="#002141"></circle><circle id="Ellipse_346" data-name="Ellipse 346" cx="1.209" cy="1.209" r="1.209" transform="translate(984.972 40.577)" fill="#002141"></circle><circle id="Ellipse_347" data-name="Ellipse 347" cx="1.209" cy="1.209" r="1.209" transform="translate(984.972 37.197)" fill="#002141"></circle><circle id="Ellipse_348" data-name="Ellipse 348" cx="1.209" cy="1.209" r="1.209" transform="translate(988.346 40.577)" fill="#002141"></circle><circle id="Ellipse_349" data-name="Ellipse 349" cx="1.209" cy="1.209" r="1.209" transform="translate(987.674 37.459) rotate(-10.955)" fill="#002141"></circle></g></svg> 