<?xml version="1.0" encoding="UTF-8"?> <svg xmlns="http://www.w3.org/2000/svg" width="148.93" height="38.026" viewBox="0 0 148.93 38.026"><g id="Group_273" data-name="Group 273" transform="translate(-886 -2713)"><path id="path3064" d="M52.823,57.219c-8.735,0-15.722,9.827-15.722,18.124C37.1,84.3,42.341,95,52.823,95c10.7,0,16.159-11.575,16.159-19.654C68.765,66.609,61.558,57.219,52.823,57.219Zm0,.219c7.207,0,9.172,8.08,9.172,17.906,0,12.885-2.4,19.217-9.172,19.217s-9.171-5.241-9.171-19.217C43.652,66.609,45.4,57.438,52.823,57.438Z" transform="translate(876.851 2656.028)" fill="#617589"></path><path id="path3060" d="M62.175,75.631c0-9.608,7.644-18.124,14.195-18.562a15.272,15.272,0,0,1,7.206,1.747c1.311.655,3.931-.219,4.369-1.747h.217v13.1h-.217c0-.655-2.4-12.664-11.575-12.664-6.77,0-7.425,11.792-7.425,18.124s.219,19,8.08,19c3.712,0,6.551-1.746,7.207-5.022V79.343H80.956v-.436h12.23v.436H90.128v14.85h-.219a2.926,2.926,0,0,0-3.057-2.184c-3.275,0-6.113,2.839-9.826,2.839-9.608.219-14.851-9.608-14.851-19.217Z" transform="translate(886.497 2655.959)" fill="#617589"></path><path id="path3058" d="M20.845,58.286h-3.93V57.85H30.236v.436H26.96l9.608,25.987c3.057-9.172,5.241-16.159,8.516-25.987H41.809V57.85H48.8v.436H45.522L33.947,94.536Z" transform="translate(869.085 2656.271)" fill="#617589"></path><path id="path3054" d="M87.02,85.644V58.128H83.308v-.436H96.846v.436H93.135V88.263c.872,3.495,2.184,6.115,7.206,6.115a9.269,9.269,0,0,0,9.39-6.987V58.128h-4.149v-.436h34.066v13.1h-.436c-.656-8.516-3.931-11.792-9.608-12.666-1.965-.217-4.149,0-6.77,0V74.944c2.184.217,4.8,0,6.332-1.311s1.965-4.149,1.965-5.458h.219V82.8h-.219s-.219-3.712-1.965-5.46a6.89,6.89,0,0,0-6.332-1.746V93.5c3.275,0,5.677.219,7.861-.436,6.77-1.747,9.172-7.425,9.172-13.321h.436V93.723h-26.86v-.436H116.5V57.911H109.95V87.172c-.655,2.839-3.494,7.425-10.482,7.425-5.9.436-12.447-2.621-12.447-8.953Z" transform="translate(894.626 2656.21)" fill="#617589"></path></g></svg> 